<mxfile host="65bd71144e">
    <diagram id="OBP48QAiFmIXn9jOLmE4" name="第 1 页">
        <mxGraphModel dx="1790" dy="2439" grid="1" gridSize="10" guides="1" tooltips="1" connect="1" arrows="1" fold="1" page="1" pageScale="1" pageWidth="827" pageHeight="1169" math="0" shadow="0">
            <root>
                <mxCell id="0"/>
                <mxCell id="1" parent="0"/>
                <mxCell id="4" value="" style="edgeStyle=none;html=1;entryX=0;entryY=0.5;entryDx=0;entryDy=0;rounded=0;exitX=1;exitY=0.5;exitDx=0;exitDy=0;" parent="1" source="2" target="3" edge="1">
                    <mxGeometry relative="1" as="geometry">
                        <Array as="points">
                            <mxPoint x="190" y="-170"/>
                        </Array>
                    </mxGeometry>
                </mxCell>
                <mxCell id="18" value="" style="edgeStyle=none;rounded=0;html=1;exitX=1;exitY=0.5;exitDx=0;exitDy=0;entryX=0;entryY=0.5;entryDx=0;entryDy=0;" parent="1" source="2" target="17" edge="1">
                    <mxGeometry relative="1" as="geometry">
                        <Array as="points">
                            <mxPoint x="190" y="60"/>
                        </Array>
                    </mxGeometry>
                </mxCell>
                <mxCell id="20" style="edgeStyle=none;rounded=0;html=1;entryX=0;entryY=0.5;entryDx=0;entryDy=0;exitX=1;exitY=0.5;exitDx=0;exitDy=0;" parent="1" source="2" target="19" edge="1">
                    <mxGeometry relative="1" as="geometry">
                        <Array as="points">
                            <mxPoint x="190" y="130"/>
                        </Array>
                    </mxGeometry>
                </mxCell>
                <mxCell id="24" style="edgeStyle=none;html=1;exitX=1;exitY=0.5;exitDx=0;exitDy=0;entryX=0;entryY=0.5;entryDx=0;entryDy=0;rounded=0;" parent="1" source="2" target="23" edge="1">
                    <mxGeometry relative="1" as="geometry">
                        <Array as="points">
                            <mxPoint x="190" y="240"/>
                        </Array>
                    </mxGeometry>
                </mxCell>
                <mxCell id="26" style="edgeStyle=none;rounded=0;html=1;exitX=1;exitY=0.5;exitDx=0;exitDy=0;entryX=0;entryY=0.5;entryDx=0;entryDy=0;" parent="1" source="2" target="25" edge="1">
                    <mxGeometry relative="1" as="geometry">
                        <Array as="points">
                            <mxPoint x="190" y="330"/>
                        </Array>
                    </mxGeometry>
                </mxCell>
                <mxCell id="2" value="函数" style="whiteSpace=wrap;html=1;" parent="1" vertex="1">
                    <mxGeometry x="30" y="80" width="110" height="40" as="geometry"/>
                </mxCell>
                <mxCell id="8" value="" style="edgeStyle=none;rounded=0;html=1;exitX=1;exitY=0.5;exitDx=0;exitDy=0;" parent="1" source="3" target="7" edge="1">
                    <mxGeometry relative="1" as="geometry">
                        <Array as="points">
                            <mxPoint x="390" y="-409"/>
                        </Array>
                    </mxGeometry>
                </mxCell>
                <mxCell id="12" value="" style="edgeStyle=none;rounded=0;html=1;exitX=1;exitY=0.5;exitDx=0;exitDy=0;" parent="1" source="3" target="9" edge="1">
                    <mxGeometry relative="1" as="geometry">
                        <Array as="points">
                            <mxPoint x="390" y="-339"/>
                        </Array>
                    </mxGeometry>
                </mxCell>
                <mxCell id="14" value="" style="edgeStyle=none;rounded=0;html=1;exitX=1;exitY=0.5;exitDx=0;exitDy=0;entryX=0;entryY=0.5;entryDx=0;entryDy=0;" parent="1" source="3" target="13" edge="1">
                    <mxGeometry relative="1" as="geometry">
                        <Array as="points">
                            <mxPoint x="390" y="-271"/>
                        </Array>
                    </mxGeometry>
                </mxCell>
                <mxCell id="16" value="" style="edgeStyle=none;rounded=0;html=1;exitX=1;exitY=0.5;exitDx=0;exitDy=0;entryX=0;entryY=0.5;entryDx=0;entryDy=0;" parent="1" source="3" target="15" edge="1">
                    <mxGeometry relative="1" as="geometry">
                        <Array as="points">
                            <mxPoint x="390" y="-201"/>
                        </Array>
                    </mxGeometry>
                </mxCell>
                <mxCell id="3" value="函数的性质" style="whiteSpace=wrap;html=1;" parent="1" vertex="1">
                    <mxGeometry x="240" y="-339" width="110" height="40" as="geometry"/>
                </mxCell>
                <mxCell id="28" style="edgeStyle=none;html=1;entryX=0;entryY=0.5;entryDx=0;entryDy=0;exitX=1;exitY=0.5;exitDx=0;exitDy=0;rounded=0;" edge="1" parent="1" source="7" target="27">
                    <mxGeometry relative="1" as="geometry">
                        <Array as="points">
                            <mxPoint x="550" y="-529"/>
                        </Array>
                    </mxGeometry>
                </mxCell>
                <mxCell id="7" value="有界性" style="whiteSpace=wrap;html=1;" parent="1" vertex="1">
                    <mxGeometry x="420" y="-429" width="110" height="35" as="geometry"/>
                </mxCell>
                <mxCell id="9" value="奇偶性" style="whiteSpace=wrap;html=1;" parent="1" vertex="1">
                    <mxGeometry x="420" y="-359" width="110" height="35" as="geometry"/>
                </mxCell>
                <mxCell id="13" value="对称性" style="whiteSpace=wrap;html=1;" parent="1" vertex="1">
                    <mxGeometry x="420" y="-289" width="110" height="35" as="geometry"/>
                </mxCell>
                <mxCell id="15" value="周期性" style="whiteSpace=wrap;html=1;" parent="1" vertex="1">
                    <mxGeometry x="420" y="-219" width="110" height="35" as="geometry"/>
                </mxCell>
                <mxCell id="30" style="edgeStyle=none;html=1;entryX=0;entryY=0.5;entryDx=0;entryDy=0;" edge="1" parent="1" source="17" target="29">
                    <mxGeometry relative="1" as="geometry">
                        <Array as="points">
                            <mxPoint x="530" y="-90"/>
                        </Array>
                    </mxGeometry>
                </mxCell>
                <mxCell id="17" value="反函数" style="whiteSpace=wrap;html=1;" parent="1" vertex="1">
                    <mxGeometry x="240" y="40" width="120" height="40" as="geometry"/>
                </mxCell>
                <mxCell id="37" value="" style="edgeStyle=none;rounded=0;html=1;" edge="1" parent="1" source="19" target="36">
                    <mxGeometry relative="1" as="geometry"/>
                </mxCell>
                <mxCell id="19" value="复合函数" style="whiteSpace=wrap;html=1;" parent="1" vertex="1">
                    <mxGeometry x="240" y="110" width="120" height="40" as="geometry"/>
                </mxCell>
                <mxCell id="23" value="极限" style="whiteSpace=wrap;html=1;" parent="1" vertex="1">
                    <mxGeometry x="240" y="220" width="120" height="40" as="geometry"/>
                </mxCell>
                <mxCell id="25" value="连续性" style="whiteSpace=wrap;html=1;" parent="1" vertex="1">
                    <mxGeometry x="240" y="310" width="120" height="40" as="geometry"/>
                </mxCell>
                <mxCell id="27" value="" style="shape=image;verticalLabelPosition=bottom;labelBackgroundColor=default;verticalAlign=top;aspect=fixed;imageAspect=0;image=data:image/png,iVBORw0KGgoAAAANSUhEUgAAA4kAAACzCAYAAAAkJ1kDAAAgAElEQVR4Aey9XYwb2XUu2i85uBdBAl8EMRwkCGIcI8DFCXwwb3k9BvJwApyHe4C8HCBPwXkI7tN9CMoNWgmnXW6LcnMytMwoZmRaFnuGboty90TUeFpuyp5WREUcy+xMyzIt05Y5Mj1NRdTIZZnjHqbnu/g2exV3Fau6yf5Rt0drA91VrJ9de3/7b317rb32FDQoAoqAIqAIKAKKgCKgCCgCioAioAgoAtsITCkSioAioAgoAoqAIqAIKAKKgCKgCCgCioAgoCRRkNCjIqAIKAKKgCKgCCgCioAioAgoAooAlCRqJVAEFAFFQBFQBBQBRUARUAQUAUVAEfARUJLoQ6EnioAioAgoAoqAIqAIKAKKgCKgCCgCShK1DigCioAioAgoAoqAIqAIKAKKgCKgCPgIKEn0odATRUARUAQUAUVAEVAEFAFFQBFQBBQBJYlaBxQBRUARUAQUAUVAEVAEFAFFQBFQBHwElCT6UOiJIqAIKAKKgCKgCCgCioAioAgoAoqAkkStA4qAIqAIKAKKgCKgCCgCioAioAgoAj4CShJ9KPREEVAEFAFFQBFQBBQBRUARUAQUAUVASaLWAUVAEVAEFAFFQBFQBBQBRUARUAQUAR8BJYk+FHqiCCgCioAioAgoAoqAIqAIKAKKgCIwEUm891Yb9p/CpwgoAoqAIqAIKAKKgCKgCCgCioAi8MFCQEniB6s8NTeKgCKgCCgCioAioAgoAoqAIqAI7AsBJYn7gk9fVgQUAUVAEVAEFAFFQBFQBBQBReCDhYCSxA9WeWpuFAFFQBFQBBQBRUARUAQUAUVAEdgXAkoSt+HznvSBfm8ETK/XBzZHr488GLrQbDZDV4Y/HcfBvXv3hhfGOHvrrbfwqU99atcne0zvVn/kud4m9pQPzwOwxX+TB28L6D/qjv1iXBlIBI2NPrxWXX7uemSq62st4HFr12ePywMsp35vFG8Wa//J6PVwuvv9YNl3HrI+jF8G4fj0tyKgCCgCioAioAgoAorAs4fAkZLEVg+oXCgDWx0f+TaA4kIVxYXiyB/uV/3n5GT5jjfyXNS7ywtFwGvIa6AoXbvVBXoN8OvOXAW4XTD3y9dbwKMBGXHO19G65Prv7Xbyi1/8Ai+88AI++clP4vOf//zI45/+9Kdx8+bNkevjXPjOd76Dubm52EeJnXOyjPbl1MgzyQsNVM84AHYnGvJysw84bgnr80kA4xFlm6SkLrdRPukAW0GS1ifjCYVwGYRum5/plQ7W5x2kr3awmnOBPnM8CKRB7tka2isZwJQusE48nIJfrvLsTscf/ehHSKfTIJGP+mPZ7jQBsFPccffqD/voNWrmtuSRP6otoLtWNtcLa0B5luUXxNKOs9YD3Ok8+s0lc9lgmqmMXX7Me+bFF5FMJgN5l2/YeLAOf+1rX5NbT+XI9H3xi18MpM1O08zMDGq1AY5PJUH6EUVAEVAEFAFFQBFQBD6gCBwpSVzvAc5MAdVc0ieKFOyTTgHFcxmf/OUXinCSmUhhfzeSWHi5CGcmg4zjAA8rfjGS8iTn11HJOOig45PEwu0eMtNJ4EEF1AUmkyXgbsl/b7eT119/HV/+8pd9YfbRo0f+K7z31a9+1f+9lxMK5hcvXox8tdwGMk4KeLwauN/YApxkCf038oHr8oOUrd7ooL5WH/nLLNaROeGgfmNp5F5rjUR6SDpTVzoBIkrS4kzn4V3PyqcMpkyLfY03JyGJ1FCmLjbQvEjyPiSclQ1+L4PGRZLk3p5IoiR0fn7ekBH5LUcS9ZMnTx4oQbLrnJBEaRudqyS9QPJiE82LJOvRgfXZyddQnHNQX6v6ZZW/WkfBTaK+VvGvSTnHaVjffPNNk/elpQHZlC/ev38fs7OzoFb7KIMQRZJGOwiJ5P2f//zn9i09VwQUAUVAEVAEFAFFQBGYAIEjJYlMpwj27csDbR1JYpranwdDQjcOgQjnmdShfLuLhJtD6YUE+g9HzRSbW0BlfhmdzZYhid3bBaTP1tATjWILyDsuvEdVeJ7n/0WZA8r3X3zxRbz66qv43ve+BxIKO5w+fRoPHjywL018fufOHSPA//SnP/XfrT4E3NkcnBMuEtMO3FnX/FXPEtMu8rf65h3XTfj3+Exu1gUeVn2C5s4E70s8UcfEjIsCibehYoOklO4SrySwOdTmUJtYSlKbONDiVphWJwO0BhoyyYRdxnHa5GQmj+xJx588KL5chHdnWaIwR9angpsBvDoqD4CUkwY2gs8EXoj5QW3aF77whci71KJRg8WyOKhQeK2JfqsCIYm5m12sz6cN2aXu0Jkto3sj79dB1seesQUekOTMSgcph9hkh/hwcuVkFvlMMnBNNO1Rmnnmh9rgz33uc6DW++HDhyaLm5ubuHbt2p6z+95775n28M1vfhPy961vfQv1eh0bGxsTxXvq1CmD/7vvvjvyHtsFy4bf0KAIKAKKgCKgCCgCioAisDcEjpwkMtmdhz1/3VupAeSpydsckjqbQEg2RfvV32ig2e4B3tD0sP4ASMwVkHMdeM0KqHmC54Fr2joNxtuHrYEUTWXxTMoXpilA00TTPTEkXSRhyYSDxmK0+enPfvYzI6BGmbyRWJBAHkT4zGc+Y4ioxEUy5Dpp1F8v+Nqi7Ct1VOYceNSSnl7F6ssp/x41SYXX60g7riHjUfhK3HHHwm2MkMQojSW1iYUXSPoH5Zl/oz8gjUanOIzdTgN1k1xLKBovObrnV7GUpaZsqPFk+fe3WLy9AIEiiSo3PaScFLxmeeQe78eR/R/84Ac7Eo3Hjx+b+6+88sowA3s8a3g0r172612YCLdvFME2kZhO+gQ/4bpIOA6WZqlZbCB3vQNnOom848DzaoG8OudqaF5KBa7tlHfJBkkWyda3v/1tc4lmtqzfkwZq98QktFgs4urVq4Ys8rr8TUoSGd+XvvSl2KQwrZnMQAMb+5DeUAQUAUVAEVAEFAFFQBGIReBYkERJXe0RzU/zI2Z1JA3OmSqyLjUlBTSuFNFBz2j/mitppC40kJp24N0ZmIWSwCyfoparg3YfSOZWUXIdpC+vGuLE6ySMQjZS86tGkK0vZv1rtXbLmEr2buYkecbkj2viosLdu3eN8EsBlsKvbWbK5ykgX7p0KepVc43Eo91ugxoXBq5tjDPrW1xcBM0hJZAkpqkxs7SvxIAksXS3gyxJ9+Pgek77HeJbfK2BOM2SfMc+Vu8DVa7zxJCc8z6J9eppYjQ0Q5X3SOxpEtm4EDSbdObXfSJB/MIaSnk/e91DLc+4B9ozuc68OE78OkIhKeFjXFm+9tprJj1xaw+FJO5EVCRtux07myTEDVPvCtfqcJzUgAjfGhDhdqtuMKvlmO/BulBqbAvU2GId5RbXIbqo3S4iRTPtMTWJJJ87BWoQiRe1qULmdno+6h6J5t///d+DZqoHFVgmTBfJZlygFnQcJ09x7+t1RUARUAQUAUVAEVAEnnUEjowk2sSgs5JG7QngJPKB9Yl24bQ9oHytYTQuFHBF88R3GQpvdOFMu2hdSqFwu28IUv1xB45bQPl0Aui1jCkfidNgBdxA5M5cbiHjJuDMZpBIJFBfSBlvkFwDRmG0c2XoBIZObOR7dtpefvll8yyf53oomsMxLq7tkvD8889jdTW4VlDufeMb3zDvc70htSB8jiTw/PnziNJW8b6tlbQJn8RJkliec5C+VEXrUnrE4ynfKZBYbtWRu971tVRRpqU7XUMjuG6N6yKpvUM7aE7KdK0+5nrTDNAIrvGkB9mm58E5VYZ3M2/MKKkds7/bvZ6DEF+WX80DqvOlgPMaybscuUZSJgvkmhxZ/+JI4j/+4z+C2tr/+I//kMcDR1mzVyoF8xF4aMIf5Xs9uCcycDOshw6KpxLGeRIJoeMkA/mgExupx6SNvYddY/SbdwoHpklk8rPZrKmXJImTBq4JZHs46CAE/sc//nFk1ELgSRQ1KAKKgCKgCCgCioAioAjsDYEjI4mSXArrQryqjS7qazVfmyeaPjk26Chlk/RwQPPokVTe5bU61YYbdZ9MdLY6aFyr+aasXO8lwjU9SibmSoZAdnqDNYntWwWjdSyecpA7t4TMhZKvuZJ1YVgbeECV9NtHal1sDZ/c++Uvf2kE5vAaRd6nAH7ixAl51HiXFA0ViQpJYzgwHpJQCXEkUfK6dLePgusCPa74HASfJGI9oFUVrOVIs9WsQxPPUcc1fCbs/ES0vgON30DzJd+kllHSJNfkKKRfPMyyrMRMkiaTLGebJGauebEaS8Yp6Yhz9hJHEoVkRJWjpPWf//mfTXlev35dLu352O0D6Qt1ZBIJ9O6VzURGfd5B7lobKZqQLhZRupBDnuR6e62ne6mF+vkgAWPJHqQmkRkqFAomn3shw9Sci6nqnsGJeJHElc5z4sLa2ppJM7+vQRFQBBQBRUARUAQUAUVgbwgcK5JIjZas+7O1SDynoxTbQ6mQigBJfNhH6UwJhTcaWJ5zQM+OzZV8JEnMkYSs5My9WrOL4mLFmFuS1nSag20GaMpXSrrG6UrVo+fQbMBDahhyagujNH9vv/22EVyjHJ1Q80gzUwaaqFL7srw8cLTCdYxRWhxxXtPtDva/I+GjuaXtmIZ4CSETwkRPrrLdSPHO6JpCPle52kB/Y0gmSczizD/D+ZffxC3ppNC/MxTUo67J8zxKedokUcpWJhKoVSslk2ijabb66N+K9tbK+GqbxCRvPOKWbvewfoFr1IakNY4kipZwJyctNKGkOaOUm52PSc/paKdyNgd4TTQfAUsrNYgpaPMe1+p2zKYXydmy0cBKWXa3vZ7K91hik2gSuS4xal9QiY/EkF50OfHx2c9+Fr/61a/k1lhHvrNfJ03hD41D4JlutqE33ngj/Lr+VgQUAUVAEVAEFAFFQBEYE4FjRRKZZjrpKM1wS4zhZvRcgcbtKurnqD0ZrEcTUkEi0fSA9Pwq3OmEIX6FW54hiRWuX5rJgZpBeje1NYk0caSgXGl7SE1n0W0s+c49ZNNyfwuMRgnUXJk9/0Jr8ATnd955xwinJHbhQDJBwfWHP/xh+FbgNz2i8jkedwqMh8+1WgMyS5IY57hGTGvr3I4iWfDXe0aRP+aX21PY2tKo53ZKG++Z8lpooDDjGO2lbOdQP891dEOiZscj5WmTxLAmUbSfhds1lE+yjgzyb8cj5yyvwjRJ8Trk+/Z+j3EkketGbWwlPjkSc94/KO+Z3DKS9bBNc9szFTQW6WSma64Z76Vbg/pO82eu5aTJbopaxZA5L0liwinAnR06uAlPtIR/h02FJY//+q//ilRqYGYtDmyi6rU8H3Ukkea62oMM4xB4pvsrX/nKQX5W41IEFAFFQBFQBBQBReCZQ+DYkUQhC50rg7WGLBF7HzkpIXkum02ZtYgVbvfgDYilbZZIcz73fA3utINUNutr19zFBpKzLhwnAXvrB1sDx2/RRHIp78A5WQqYtko65EhX/iQP9tYUco9Hmof+27/9m31p5FzWJu62xxvj4beoWWEgeYpzXCMkkc8V1noouUmg3zCmm2ENYVw8/FbUn2j6RjICgNuLODMlFDMOnEzRJ4xRz/KalKdNEsWzrJNIGuzrjNMpwJl20IvZ85FxiZdVrk+VUOUeijM5NBaS6KIPJ1NB69Kol1puU8J9EONCPp83njPFwVDcc+NeX2pw+xIXzCM95wqRY91MOwnfGZF4/U1dWPLrsP0NahhbayTNPBsElmdlju2I6I4XhBTK07KlRC43dOAk93Y6cnuL27dv7/TIxPe4byPrYZxDJ1mv+JOf/GTiuPUFRUARUAQUAUVAEVAEFIEhAseGJBozz3vbmrENIDmdMfsVyj6Ksqm4JF1IRWslDW9jYHYp97jNgpha8hp1Ma27baRXWoHrxTt9FKm13Bzs4cc00Ptm+/KQXFBz4zgZ5KmVsrblkG/JkR5HKcDGBZqV3rhxY+T25cuXjbMb3iBBIQmR8PnPfx7nzp2Tn/6R8djfiiN3Ngb+y9wOxBBvoMg8YZB3XqP2Lcc89Ib7HO5Fkzj4ArBKb7VOFknHQf/uzk5e/PK8lkf1cg29zRawGdQ6mmdOLcOYzdK/LQu2H3yG305dag3Ky8oHr9e5Hd9G3SekYZIrZsF0IBQO9PZJksJypNb4IENjE0jOFAPmufk3egHNtTEzPT3wwmub2bL03Nkln1wKyeTRbJVh7Ztp3+N5eCuXMEGUPNLslPXNdsQk9+KOdPozNzcXd3tP12dmZiIJPPd15AQLnTkpQdwTtPqSIqAIKAKKgCKgCCgCAQSOBUmsLKaQmFsKeJuk9pBeHak1al/herKB2Z2kXkiFCPpmk3Z6h6RWhmanF4PbLPA929yUv0u3PSROpFF6IYHu/RoyV9oo0UTSMnUVkiqmk/L98JHmdSR1cYFksFKpjNym8E3hnJrIl156yWyVwYe4nouOa6IC47HJ5EQkcTtC20MmL7WopTtZNnjbZpl7JYmVpgfHzSHtOnDcNNIJB+2bJX99qJ2v1qM+Cit1ONMpJKYd1OfT6G120Gx7qNysI3t+CSU3jeUNbpWR9jWAmatd37GQxCf1xruelUsjRyGbUndovss/OgSS8pBtH0jIFxYWQILC9aY7aRA5ObHbZMJIYriRxWMg8UIJ6RMJg9Hy/a6ZJIFFrDssn0zFEO7e7aHzJLaK8B6Rq/e6RmuaOe0iw/bgZlA5m4T3sOmbVMteidyj8NatW6YO2nmXdBIHIY90GjMJUeQaW65NbDSGExES7yRH7lspW1+QpEvZsM1wcoZ7IpLI0kGUBkVAEVAEFAFFQBFQBBSB/SNwpCTRJyb0nsmtJ/oDjWB9Y+B5lITBSSRQmkugvzHYjF2yHCaJ1CfV77SNZ9Rem2anQVLJ98Ikkde4EXv+ZscQUmq8OjeoyRu8KyaKlfkknEwZRdcBvGA6TBz9viEXr776qiRv5Pjd734XZ8+eHbl+4cIF8y61iAwUxPnHdVXUbEWFM2fOBNbEkSQmnTSK5zL+puypM8WA1jQcD7eHsDWNmZWOITjrD2twZgqonXeNJ9lJSCJRW73rITFXMJu91y9wi40uulsDD5407U2fcLC+UkC/N9xfkVuLFF5IoLVWAfqe2Y+ShCXtJrB0PovGzQpqXAs4k0c2lzHOa7DVMOVpTwaUGj1DNG2SG843fy/T9JTbf2x7qiXx4b57JENRf1yPtxM5lG9w3WDUPo5yf7djbaNv8si8V/M0C2YtB0gQk7mqMdnNXKoY02lvbegUSOKlaXV2sY70CRfdtZIxQ6a5abffMSbXJOotEvX+0CSVeScRtvNtb24v1+kQhh5f+TcJUez1ekYbTm+jElf4GOWcSfLEtFCzG37H/n3Qax/l23pUBBQBRUARUAQUAUXgWUXgSEkihd/06Qq8OyV0NvtYutZEYjZrCEaNBMNrG6c0br5i1g5mZxOorRTR32j6JoOybi1sShf1m55TbWJEDVZ2seavaSxcq8FJpI2DkHKT+y5m/H0bjfMTt4hMwoHXDO4BSK0fBfv19aFX0HCFookivZ8+efIkfGui37LJuS1Y70YSSaCLVxqoLBbNFiOFFeY5hdbiQNsq2jcx6W14MJrdhOMgMZNEynFGNmkvLhQNIW1dK6H58F1kF1fhnEiZsqvkXfQfD9aH2pkTB0PU9BKvzEwCrWv0Phsk9H3+tK7VPa4nLIDkr4MeuPXJ+itpOLkKqDH0toDcCve1TPrlZX+X60/zp12T3uz5IpyEiyI1xttmxvazez0X7WR/h7WScXF3N4Glmy04bhY518HqzYoh2tRqNx81zARFjundqBq3P+7CusG5eTmDft9DvdVFer4y2OeT7WZ7soX1wl6TuNrcJvDTDpbyabRJyreGhDEufQdxnetnqQ2kVvD73/9+4M8mpQfxLY1DEVAEFAFFQBFQBBQBRWB/CBwpSZSkiykdtUz1y3l/L0S5z2Pr8YDQJROuWavIa96TgYdSms6N85e61DQksY8OEvPrxrSxMp9G/+GQ3Hl9oNr24Exn0biYCgjRrR6QOF2GONWhhoNkh2ZvO5maSj6+/vWv41/+5V/k556OfP8f/uEfAu9WHwK52RzwsOpfp0OUKp35YKCdJVES4pyedVFfzBotH1/g+rf1eT4bXN/X3OijfK3uayeFGNpHtKrg9hbpEymjIZR9LP2ERJwQY5Ki0ulsYO/GiEeNTpdrDGvnuBXJIC9Gw+vmkOWaysdVozFLTGfQWKTmcpT0LN/xAnmoXS6aCYio7+31GrfcyHPLje29DMeNp/AmtdAJo0nt3qY58oAw83/7sQcnW0XpFDXYQ5NNllLmcgvLcwlUH3WQcXOR2IdJoqRpfaOPzHxloL0Plbk8o0dFQBFQBBQBRUARUAQUgWcXgWNBEgm/0R5FmIgeVtGEtVXh7/Q3g9qtwP1t5y/0gklTxPPnzyNqD8TAOwDu379vSKVsXRG+v9tvalxISnfbImO3eCLvb+cp8t6vwcUdy+sppJ9my/0nQZI9zmdNLduhru1YT3/Ny2wcfPQZRUARUAQUAUVAEVAEFIGnj8CxIYlPP+v7/yIdcly5ciXWJX/UF7gtwF69PtKxTZTzm6jv6DVFQBFQBBQBRUARUAQUAUVAEVAE9oKAksS9oLbPd+j4Y9K1idQilsvBtZD7TIa+rggoAoqAIqAIKAKKgCKgCCgCisAIAkoSRyDRC4qAIqAIKAKKgCKgCCgCioAioAg8uwgoSXx2y15zrggoAoqAIqAIKAKKgCKgCCgCisAIAkoSRyDRC4qAIqAIKAKKgCKgCCgCioAioAg8uwgoSXx2y15zrggoAoqAIqAIKAKKgCKgCCgCisAIAkoSRyDRC4qAIqAIKAKKgCKgCCgCioAioAg8uwgoSXx2y15zrggoAoqAIqAIKAKKgCKgCCgCisAIAkoSRyDRC4qAIqAIKAKKgCKgCCgCioAioAg8uwgoSXx2y15zrggoAoqAIqAIKAKKgCKgCCgCisAIAkoSRyDRC4qAIqAIKAKKgCKgCCgCioAioAg8uwgoSXx2y15zrggoAoqAIqAIKAKKgCKgCCgCisAIAkoSRyDRC4qAIqAIKAKKgCKgCCgCioAioAg8uwgoSXx2y15zrggoAoqAIqAIKAJPC4H3nwOO8u9p5VO/owgoAh8IBJQkfiCKUTOhCCgCioAioAgoAscagaMkiPy2BkVAEVAEJkBASeIEYOmjioAioAgoAoqAIqAI7AkBJYl7gk1fUgQUgaNB4MhJYh+A5/WAfu9oELC+2mp76Pe61pXJTr1NoP9kb+97T/qRGHi9PrB59NhMhkTw6R7zAP4Fw7h56/PVrdH3g7Hpr+OCQI/toOdFJqe/dXBlybjarQ6A8dtHj+0sri4egz4oErQDvhjX1+znM2zLUub9zfHbanuD/RvL8Nc3sPb1HrK+j5/v/eSW3Wn/yWj7YnvocSx9SunYTx7C73YfHw8ZIJyucX+zHveftHd/XEni7hgdkyfYmk17ipA9DqMPfRrZHojae5NRn0b6or7Bfq3fGx3j/fL5NezvovJ5XK8dOUmsPARSTgbYWJ4YI3bJxYUqigvFsf6qC0UA0R05rzony+ispCdOh7yQv9VHftoBNutyKfbICl671QV6DVBEcuYqwO2Ceb58vQU8GsThnK+jdcmNjee432gxb7NlP292ep359V3xZteQPF9HNevAQxfF1xqxZb3M8vUa9idiz5vNZuw9x3Hwk5/8JPZ+1I233noLn/rUp6JuPXPX0isdrM87kfnOv9HH0gzvsWYEA9sEJ4w8z0P9bhudBtsAr0aH5haQnCmhv91uop8aXq1vAs50Hv1b+eFFfpN19PQqmheTgesfxB/hvsbOY2Ojj/paPfC3WxnI+2zLLPPmJpCYXULlrAt48W2M77H8nJkSGgvEPb6c5Rv7OXY2gfpaI5A3yWtUHtdZJ5zCSL/FCZA26+daE+vXVk3tKbeBjJMCHvN3fJhkvGrf4Fg1DE0P6KzVzIXCbaAyxzbUwXoPaK1UzETJ8gaQZzo2B88N3979bKf+cGZmBvfu3ds9EusJ9ofsR8cJMva2L6fGefxQnqk8YHmnR8p7nI+Z/uNMFY0LY/QfMSTxpbeew9TUh4Dq7+26ZvGd95/D3Jf+GHOp3x/7753qHw7iHSdDx+CZ3PUu3Fl317/crAs8rI6kuHijHSsn2PJiWCb0toD6zSaw1QH7gDT7gAcVMw1ZWVkHeq2BvHZqGf03guPISCIiLhxlO2NyUpfbKJ9ku4yWgyOSfKCXpF+dRM6Ok6tXHwNJcoe7pQNN426RFdZ6cJwkejdzuz06cn/S/I9bj6VOh8eNkQTs4cKRk8TiHaDAwWQrSKxajzmoBwUW/rYHdAG8eCYV6BCck1lkTzqBa6kzxcF3TNMHlu94gfuZ80UknCSK+XTguoBvH1kQUelzzpSxdNqJTLedF69VN51Ocn4dlYyDDjo+SSzc7iEznTQdE0WsZLK0ayP45je/ibm5OTMoc2B+6aWX8MUvfhE/+tGP/Crx2c9+1r//uc99LnDPf+gQTsotoDDtwntSN8I/CYD8OedqaF5K+b/luq05zb/RGxDvXs0n0/VXsiMYL63VkXayBredsvGLX/wCL7zwAj75yU/i85///Mijn/70p3Hjxo2R6+Nc+M53vmPKYZxnJ31mY2Nj7FdY9vYf6wR/S2B9mZ2d9Z9hfdkphNuKtIW4DimOJAoZozCYvzEUApxE0q+bTCv/EtMOll/g5EgLnPd0z1YjBQa+m0w4kfe614OdOAebUpJ9TXAigYONy8GmVd4JhmNzj+068+KLSCaDuEkCBUMeb968ia997Wugpo/tq+l5cE6V4d3Mm9/U/lXv9uE1V8Fyc08MsXROuD4ZkbjjjnaZd/uAe76GajYBmNKLewso3O4j6SR37ePiYxjvDkiG+4UAACAASURBVElAwknDnU0G6kpiZpjHhgdUFzhZ2TajhJDE9T6QmCn6dZT1LT3rYvV8FthsInmhgfX53YnuOCQxlSvAcRJoLAQJVmUDSE5n0L9ThJDEzlYHTqbik+zsdQ/VM3xvVMsYh9I4/SHr0F5CVH/IqYB6oxPov4vX6kg6KdSv5gPX7TGT5421ekDrvJd2EJePcUkika2vtQLpLN2sm7pVfy0XuB5Of4vpPwCS+Pb7z2HqL/4IlezvoFL5mP/3V9mP4a+mplCp/IF/jfen/vcf4O2XPnTgJPEw5Q72J0vZnWWpncb83YTr3HwRTiKFIif1MRwPOpy42m5T6+j7JDGz0kGRk5ubDVQ9IEtZwxslp3H162m3M6YjPOm3ulaHc7KIyrnkjvWU9ba/McSEcR1UWxOZfVySyP7COVePnIDJXPNQnmX5jU44x5XDfq9zUs6ZKSCRSKDA+tBjjsYPk+afk6+r591AeRVer8N1XNRfLwSuu+dXYyfnx0/h6JNHThIzV7uGKIWFCQ6EFBTt2aSw0CKAiwZOsiez2vKbR8ZnyGgMSXTcUWIpwnD4SOF4qYFA2ihsJBymNyiE2OmX88biQDPImfTK/DI6my1DEru3C0ifraEnGsUWZ4ZdeI+qASIlZl12/nhOoZBkMSp84xvfwMLCAhqNYOOPevYgr3HmijOsznzdF7JsITbqXDqQ8r2eEYwED9GCiIArpJLHmuch7eR3JYmvv/46vvzlLxuCxG8/evTIzy7vffWrX/V/7+WEAvnFixf38mrkOxxcGB+J7SSBAzjzt7q6GsijxDE/P4+vfOUruH37tlyKPUaRRE7ExGkLbcJgR2prXOxJlvbdOvI3PeQ5WdQPThbJ+zTvYTmnL7eQn3HgbdQCbaLreci93kZmOgHv3rK5J5MN0lbDhFLaIetoVNtd4iy1JUBIWo7L8c033zRlvLS0FEjS/fv3zSQAtTkS3MWG31850wm4Mwnzu/SyC2emCO961pBEaXtRg/NOglcykw9MzBVo3TFfgGj36y1q30Yn/SprdZTOFlG/tRp5nxNqBxFIAgrUFG33/xKnEC5q5exnwmML61+PBHu+HrB+4ASD42Ri+zbR+Mn34o5tD0hfqMFNJNBcyQNbo0SveMODd7vkk8TyvTYqp9NG62HKK19D85XgpBvTvJOp/tPuD6MmfEx9tCYnZJwMH+O0RpO0gzj8xyWJHD3d2SW/LTGN46bf9CcHSBLDWke3+hzcqSng/T8OkNGp5//4UEiiYMlx5qDlDo4htXNOoI+3x/tJxnxJJ4/UFJZutpFIpFHJR1s7VB8D6xeKWAdligJa7Qoyc2Vggxp7wFjDnGTamoH0yXhjf0/On3Y743fD2ljKz2GZOtzG5Hd4glXysd+2Jv2qjDMSb9SRY1aS7csZjldMHxpLRg9Ky7+oCWIZ16Pi3M81mUAwip3+YIKO59Q6jxsmyT/jjLK2Y1+V5lj2YFAf5dtxcpfc3+vxyEgiMx9FENIUFB9U/IGQg7cEgmAPugK4CDxSwcPCIK+TxNkkUeLksdbjLG0eaOxNbc0BmlrB1dPBWVx7nY79PZ7bgnd+oQgnmYGtEcX9qpmhDs/ss1FENYLHjx8bPCn422FzcxMkBN/+9rfty0/lvEFzQGpCY3CNagCSsFKDBDGFDrVBXMdmjKsGZrnh8mb5sjNJO4mRhiPxyfHFF1/Eq6++iu9973vgTLcdTp8+jQcPHtiXJj6/c+eOKYef/vSnE79rv8CZu3w+b8hsOJ32c3Hnr7zyiklH2GyWpJjxTjpZ0DcLQwdfE4GUHb1NPvz2d8L1O2+pq0I6anm2Ef4KhvAkjtzlk7bmobo9G7p8NhEgFfkVzuYnUb2YCVznjCjjzjqclV7y78msG+uokyyhfimonc6+Uo/tLyRt+zmyvbJcSeb5RzI/aWCZ0CqA2u+HDx+a19ner127FhuVTLRwYs2YchszUWrBegGSSPJjlgG0h9pVttewhYZMoJEkZpK03sgHLDGEJEbVE6kvOx2l/sRmaMwbNgG0z8clifIZu89i3WS/XzufhOd1AwJjh4TyzCrq5wb1nZMi1CR1tzx079JGZNAG+D/7WhOJaRf1C2mg34X3uA8PPaOxwuOWEYjsZRW0irGxbrxWxOpjDwkn409SinCVcxOIMseT/Bx1f8iySFLgscYIrkGKWwsm6baPe2kH9vs8Zzr2Ym5KS5k0TXxDAls4fv/3AZLEub/+7YC56Z//9e/jz6emMJf63cD1qf/+u4dGEg9L7qCsF0UA7L4iaswXTS/bTbPZNe1JsF++2weVAaW5BPoP6/DY+HoeOIElk1H2RFh2oWg03MVzGdOnsS/zvIZZmmDLIJQ3KafFESt+/6jbmfT7YZNos7ZyAp8X+21rIrOPQxLZ19raZKMJnR0sASg1gOw0NaJlf0znJKSTXYqdvJZ6sJcjCWLidCWgPRStYu1cEtgab53nJPlnOolBPpMMjKmZc6yXSUi9tMfguIn7veRZ3jkykkgC1eBAOlNC91rODLCrDzhzMzAZtAdvSWwcSQxrlmjGGJ6FoqYijiSmLrUM+VxqdAIzhHaHJOdRQgvXgpiBLmQbzQKOKzTbFCA1v2oE+vriUFCttVtm/ZRt95y82IyNj6SCpJsESAIJAokPhdCjCDTvE8yjTK2ojQo3ADFhTF9sDggiBbGLTdTyCXTQ881yw/lh45P1A+F78vtnP/uZwahWG12zQ5MqduQHET7zmc8EymGSOJk2lmOxWMTVq1cneTXwLIngqVOnsLW1zbABfP/73zdxdzrDiZfASzE/zFqn6TTQG+DmrzO9UzQDbFhDRAImnbsMvhSmHCcVW3/jSCIH/Z3WoUoHGXf07iyPWBEwmzLrRhO9Es1GtoLr5+LSEwPR2Jer1aopg7/7u78zZczJG5o3s42yDU8a+B7ri0wCUePMeh4XRFggSaQJlW0yQ0xk8KZ2VQiOxLVTf2YsQrbXycnzUUcSgD61WzuEZssLmBXu8OjYt2xiaJ/b44x9XQZz4kQz1OLCshmo7T4rt7BkBBU8HpidSZ1iohhXiuRn24RZ6tNquw5nJofVXBLot30TeqwN1qOX7nhwplNYvZb110SK4Mt2Vr5Zh3Mii/ysg/qtihGQ2o06UpeagbW+NImTsTQOpKPuD/315iETWWIXNVMelw9en7QdhOPiN0kSo5YyEHfpx+z3WpxgOllG+UxwwircHwbMZHchiWETUjEnfefOx3zt4HExNyUWhyV32G3Jxtw+jxrzpd22bxWQzK0iN+Og3x5MwDHO+nlO2sC0aedUCatZB8780ExPLB5qa3UksmW4nFzcNoNmOZbvtg1xxL2B9QbbpnOm6vebdvrk/KjbGdPBdXQkVdJX8ZqMBdLnS3p3O+6nrUn5hE0opc3Yy8nC442k17tdMJhH+RAIv7NbXsa5z/6fdSWTcHxtsrzHZQBOIoPSKWcsfxiT5J/fYH7CWD1T5qbhgYzCaIGzclifSJO4F3NTv5A5k8m1HrcLkesMpfIKkQs7kTEVN1PBQEMS9MC0W4Xl05nLLWTcBJzZjLFzri+kzKwEiRGFv86V4WJ+OrGJa9DScN944w2TNWop/vZv/xY//OEPJatP9SgDqJBENo6kUwjMftgCF4V8aiN8Ur3NbVgnjMCwsex3avYsnpD3qFlFO8N37941mhtiyoHNNjPlcyRlly5dsl8JnNO8hUSSmhoGmoHSmYP8th9eXFw02lv72m7n1OylUilT5lKGu72z032WPU1fJdDchVrmX/3qV3Jp7KPRmCw0/PVO4TUZxqTNii08wEsbIfZ++VrP81SE6LA5oDw2KVmkJl5CVNxMY2XegZuvwaMDgiGXNq/xnWV2/JYlA7EjGSOR5xrRd999dyItPUk/ybto/SR9+zkyLuL6hS98wdTrKKIpAjCfi/ujhUZ6ZeBIig5+jGXFBJNexMu28qg/BmqLSyNkL7nYGrG4sPMvTkzCBNV+Zi/nxEDMTe1zO932dRnMObbYTm+c00v+oF1ea6BzdWh9Ytf72kYf65cpSA7GBLsOtnqclS4bAbbzsGYmvjj+ZK604E4n0H2jEFgTKfmtPQISbgHp0xwrHORmEujdq4Dmcc50djAht7223x5L5X37uN/+kBqkdruN9957z0TL/tA2b7a/FdcfFu/0keJ61NBaYJbDpCRxnHZgpyl8zm+SJMa1j3C/ZQju/DpSnNBbyAZm+u0JK876p5lH0TTuQhKnpqYQ9Vd9nmakz5k/IYnHwdz0sOQOtqW9aBLtdivyVdJJoHsz508MLrf6RrCvnXeNrBWW07pbgzXVmdMJs9Y0mUigtZIz2n0SQtYRmdQxY9up5ViHR8ehnTXosG2miNaloSzJ+i+kK06mDLcR+b2ftiblE9fO7DEkXC6S3trVAvKzecAbneznO7bMLGne63GJk3aJNAquAzwafI+kcZlr17edJLJfdtwC3GkHzRVavsVPgk6Sf6bZ5CfkTDOuf7THn73mN+q9I9MkMjGFNQQWntLW29j4ojsRSYyrcOHrQlgECBFew8Kg3OeRNuyZy01/8Lbv8Zyz8Rl2GhGe7cKV3H63/rCPxFwJ5dMJdHqDNYky+1U85SB3bgmZC6Vt8tk3S3ONl9DtGWc7Lp7TMQnzS+3ht771LXMeXqsUfucwf1NDk55zfMGMjSOs6Qs3gHAlF6LZemWwhlOIgk0AJA8ULpcXqn7Dles8vvzyy/7gT5yoYePCY9rXS3j++edjTf64npPY0myXmhqa8xUKBbN+8Utf+pJE4R9JIsbVSjIuftt13QMj9K1Wy6RXNKZc00gPhU+ePPHTOOmJDDSdqxmzJkM689LdPjLT7lAIsrR08o3M1Q4KSQdOrmBIIrVJ4sVU1pnImkTPC641lPW3MkDEzfTLZI5tkiLftwV0uWbXtex1rotOBNYW2OSB78jASDNemhSzHrAeMZw4cWJX813WNWqYDyNks9Q6DSY/doufglPqYsOs65RBT94hJhQYxIxmfYHtbkBy+Azba7hPtZcH2E4gfC96W0GnAtQopxwXsMxY5fs8ct0qNc5hD7T2M3s5twmgcabFNIQmI+1nZDC3JyDFO27zNWrVB4IA/zffbBmzNqlTJJWtNxnDwKSU6Q3XQY4rjVv0bD20jlht9NBvDyY37O/z2dxKE27CNQSScS3POSjdaRqT/OJiDqX5HNxkwSdcHEvjxrWD6g85CcV2QFNp9o3nz58H20c48H64P5Q6FjZ/47txQlA43vDvSdpB+F1+c1xzU5Zq5krbtIWwTBEVb4Dw7kISw8RPiKF9FJL4iT/9T/jEn/2W//fRP/0tfHRqCp/4s9/0r/H+1Md+89DMTQ9L7uB6uvoFN2DCLWOFHOtchz5bCphT2+1GyqJ+xzNe5KV9NnpA+wa1i4P2actplaaHhJsDCeT6VtfILI3mstEkLeWSKOSKSJ4v+R7na5vsz/KR3vmPQzuTyYwoh20ypk5KEonrXtualM8437TLhd+U9LJPpnFnwmhwM1LM5igypfghECXCpMfW+hLcsxXTxlfpqbtPCXMQovonTiykL9DvRgJZahwfDSep5T0eJ8k/n2d+7CVnzEfC5TpNB6478CsgeeOa0/Bklv3tvZ4fKUmktsxWGRMQ+R0W0phBNnIRTvlbTBjDpCFcufhs9T491wW3wCDBI9h2nDaQZlb71LKxYZctKez79ERKV7gyUPC7YSEq/Fu+lVvp+LMOtWYXxcUKmA826k5zIFhRmCklOds18KiVoSnuw+BiVaZH1gXwW6VSCT/+8Y8N8SAx+PnPf24nOfKcWpEoDUTkw2NcZGNOnVpGvVVGgS6ksW4aR8opwGuWTcffoqnx3HLAuylNpqSSS+fGPEmHYq8XsGdr7XNZAxWVTGpbKMyEwy9/+UtTblFr/4gLSYAEepUUYkihP0rw5zskobsFWTdok9Xd3hnnvkwSsFzppIckkTjS1HE/gfU9NZ2EczLllwnLycnXfC0j45fBmOesC8lTy+itFUyHx/IVgSzcNqJ+S32QAWKvJDHsmMbuUGUrhoGHSuYICJtPUgC+cuWKucf1pkwrZ9FZ1jyPqjvm4e1/X//618FZ5cMInLBgGnjcKXAbBWqwqP2oXxt6RhMTH5abtDUR4unQRgL7N9uMv9ykCT8tH+qmTI2mbquOdc5cJwvGGY68K0fTp54sR3qr4zPupVakB1p5f69H1jnRJHJsEa949jhjPyODuU0SOfFFnJMzSZROJYzgaa/dlHpPopsiLhYR5ndknGAeSPzyK02sv543msT1mwWUzpTMWinet7/Psihmi+ZeuweUrzXReI1l7aFJp8e9lhF32Q69awOhiWNr2ENqGLvD6A9JGsOBbcPuD8UBBLFkfRu3P7DLIvwN/pZ2wDFw0iBp2O0b7B0yl1pITTvIXSgduCZxXJL4if/vP6PypQ8bL6YvLX8MU//tw3D/x2/gC5c/iqmP/Q4uPv/bvofTT/zNH+LtVz480EROCswOzx+G3CHmnjLpN8mR6xDtdiNJJ/FbzeeNpURt3kH2wjq6t1hHgiSRZZtd4L0ieuhj9W4by/NlM/HMOtu7N1iSwAkY8T9RugsUaca5g4Ozo2pnzL8t44oXfba7nf5kzBX8oo57bWtSPjLORMUt1zjehLXJdBIlbZTYc22eODYkcaRnWsZNed+WCyc979yvIp2toLs22pewrwhM/EiC6T/hYR/Nq0FHctZtv36Ok3++x7X8qxcGfhZWb9WRyJSMBUrlZtloL8tZmrrXzLKDzIXVSH8l9vf3cn5kJFEIWC0/WPQpDiSkAtiDt2TMJoncr0pmlMLHqDWJ9jP0QkWBlxUsN18wJLH1OOiWm50TXSy7TnbE1SyFqspGH850xggM9uAvaeUxiqzKfXFJX2l7SE1n0W0s+fmRjZL9LTAaJRh3vzH724jHqVwu55NCmsWxI6AgGxd4jySHmqyDJIn8HjVF7BCEJMZ6hdv2ssjZEBHcZSDmeilqn6RBxQ0goj0igQis/whlnPmMmul+++23DVbUEIUDZ0ppVsVAE1UbU5qfRhE8GTy73d0XMxN3lhvjpSniQYSzZ8+aMhVCzDWIjD9qyw/5HtPBGf9//ud/NlppuW4fWS7cs9Jozq3JCnaaXJNLIsggwrK826brRmpMdlijGxai5V057pckxjmukfhpnkdNgpAiu6/hM8RPgqwrlHoxTtshWeekDcuAAyy96FKYZX28fPkylpcn3yeW6WEcnASgIMI0Rpn8UXNbuNmBM+2OOJ6hExSZuGKepa0xbm4/Y++pxfKzTXlY7kK87Bl1rvE274W0iIIf+7Ko/WRlDDiM/fLstNpji31uPyPCjIxHtGpInizDSSbRWkkPHNacdZC5Ntx3TOo9RU+6bbdNZqV+97GOpVtd34FGe6NuJsu6twpILXAriIHJ0voWCenASYOteU9eWEf1bAKe1/HHC/TZMgGSWAqvDb6bLO2qjT2o/lDqLvvDqLYgzrzYH5o+hMLftGOwtOub1A+WQ5wQJs+EjxcuXPDbAbd7mtSsnt8cR5NYeLNvrIp6twdbkRy0uek4JNHWKr705sfx0f/2YVRO/Bbw/scNEaw8eA4f/W8fweXP/Dbw6L/4ZqrmvTBw+/h9GHLHThPBYQ/KYcGfk+x2u6XA7maXkE446NwqIX2ljfq8gyLb33QKFa4L9pqBcUm8aJdue8glkvA2hp7lxaqFyy3MhP3jVeNc0G7nUXAeRTtjOkSJwUkt6ePt9MmYGtUG7efC5/tpa1I+43yT4434NqA8LnKe9MlMV/pKB1luY/K46msax4k7nKdJfu+lf5L4J8m/vMOjbXnISUEGWbZQziXRf8iYDyccGUlkdqj254JQLvrMv14PzCDbg7dk3Rbcwu59fZXrdMIISxSYwrMQ8gy9UHGGpbOS8c1aq/c7IzMPYe9W0il977Uikhe+i8rpBAprncAMsaSVx52E4jj3vva+XYyDe3At5R04J0sBAc7+DtfSMb9hj5q8dvLkych1c/b7fC5qcLef2cs5q62QRL5PTUbDbEDdM/Nu7nTRN4/ifTrzoYMAY85zvm4WCRvBdCW943pR6TxEyxTlZOCdd94xGFGQCQcK+8Rgt/Wb9IjK537wgx+Eowj85jodPkezz3HDf/zHf4Brd/gezbi4xmcvgZMh3APy3LlzgdfZsTPuOI0Xy5+TBvwjMY4KpHqyJoNtxw7ZS020b5Ak9kdIojy3U3sQIXqgQ5E3hkcZ0KSM42aYpS7YA0lU3CLQD78wGHBkbz+7r7Gf4TmJWSYTzH/4mfBv7ktJoYpbjlBophOh8F/4nd1+/+u//qtZx8rnWG4sXx7DgZqo9GwB7pmcr6mXZ+x+lnm2B1hfGHpYMeY9nKXtXh3m2zbbNOVDq4sLGTNhwP384gLjdZysr/WS5+joKs50X57Z69EmgKkrHd+M386//YwM5lKPSMAoaDnzg5lqagLbPc84LhHtnV2nBma1Q20iv8O8Jc5kjdAqmgyp1/IdamfpCCF7huNYxsyaVx9y24WcmUQLu7C3Z9ZFq5lfLKFAwWkrXnA4yP6Q/eJOgf2q9IerzEsig9btotGg2vVN4phUCOMG5Zx4YZB2ENXPS/xRR35zHJJIktt7OJj8i+pXwnGP5OUAzE1J9i7f+Tg++he/j49+bApz/89vAo+C215cvPtf8ZE/+zA+OvUbOPs3H8I7d/4z8P5/DSdvX78PU+7gWJM5V0OvMdTK2O0rLuHSbrNnMkg4Cd9jMJ+33xerCpoGOqcH2zmxVLkfb5Q5n0xgMx4zDp5exdKFlHEuKG03Kk1H1c6Yl8TpVXDJQHpl4JjRXl/PtErfE9UGo/LCa/tta1I+43wzLC9Iem28jdfRuWV0r2f3lJ+4fO50faRN7/Rw6N4k+eer6xt9uGfLZusS+i7B/aAX9PVHQDJTgjPtoJh10b5dgUwahj69559HShKZatryJs8NPDq2XxsurLUHb8kdG3nUjAjvs/OmGUiRTmByBRRytNktwFuLEVa2HVVEfUe+xwINr6OTe9RkYosaSRIhahn4dDCEK3nwLsCF+8WZpNmglfeYB5oM2TPpsg9X1My7xEcPphyEez3GMAyyXiCOGMiTfPdpkERxsECCQSGKe0Bic3TxsUnXdvkISRQb86TrwnVH96I0e1VtayWjPNDW64N9GsNEWjCgOdS//du/yc/Io6xNpMOSnYJoJqlRnDTwHTrRYZlEaT13i++73/2ueZcaQTtQaGKc1GjtFHYiidQscdaucHUZGZrYbO8bFY7PHoztezu1h53aEeOQAcImiZVbdZTP02xyYG4RN9sYFXdkGi3nNaav4R5IEZvB06TOJmNR2mQ73zwn9iR1BxVEGJb4xASWGsW4wDyFt7DYSZNIMiceMmnVQO0ULPJHXMVsk98UZ1uNhcHG8pzs6dzvjOzTZzRt+VqgLxfBa7dZ+bi87XadRGtpls4nBi7sS7TK8Bpmv9sq15ygOzSZ3TaPF01enVskJQvGuZn0R/we3bBn6JRkez26XackPwMT5r4/TnQe1QNu+TmNZNaab++Ny3gpwNY36LhsoEnkNdb/BE2pQiQ9P50CNod7SXJSkXXNHkOisDnI/nC3JQ3sV5km6Q85Tkl7jhIWJxHCaP3A8U+CTPjROmOSMC5JtONk/X/amsTLD57DR/7kd/HnH5vCnZc+jIr3cfzPqQ8Db/1RQGP4P1/6E7z0F1Oo/uy/4H89/0eY+sj/gYt/+RsA3razsK/zw5Q7KPekOUkiDn+2SV7cxD/3zmMQIby7VkD/IWvZMNCU3Tal5ERPp0lNYj1wnWvozRp1U0sB8Y1gr5Nm2+dSI9vSYvil4dnRtjOmY7C1UZTcvFMbHOZgeHYQbU3KJ6rdD780OAvLC5JemySaJ7fHbblvT2SG4zyI35P0T+HvjZv/5iaQOLlkyCG3Rmr1uyPjBOMW2abt1ZFdrMFJuCjSW/vmwe2HfuQkUdYn0FsbvQPRs5tkPlyxjeAW4WZdZoXKFOroBGbbrM14g5vJB2aTwoVGkMPfkWdYoHEkUZ6RQtoLSaRJQ+JEGqUXEujer5nF8GF3/MbF7nQm4Kpevs2jEBIxLbTvkfiNQwz4TBxJFCFmN6HD/q6cEz9bk8jr3P8wMZ0Cyd44AqEtlFG4TLzMbUUG+7rJd6RzGOk85AHA19JZlwKnJNTciiAcaAoomjUOitTMSiCJo6lfOKyvD9amhq9P8ptbV8haQpbtTtsa2PFSC8nyjDKdpTaL97jZelyII4lSDymkymRG3EaytrBsf0fapX1NzndqR0az/HLdzCrbbVLWzTUucnKpB/YlndsNNHt9FM6UfW9kUXHHpVHSQ22TCBQ0M2bZk7xLm7KJ4ac+9aldy4fP0+zoIEKYIEqcUl/stMk9Hpln23yHpJr7QUr/Z/rXi2msXl4GXcAnc2VfCOLAmHXS6D+uov+EK3aA1Cst39GY9OMUmrExMJ2VviOqXRbX+qjOZ3yHAJw0SnIdX8ijqp1+ng80dPGOb8LPh3/zfe5r557NBdzjh5+TwZxppxlsbZ5rUwYm0xRwpA3YjlfCdcrWjIbrYGKhYfY0pOWImEvZabC/z+utTcDNV+AmEli/nEf9UQfOTHDdJ9OU3F4XH9b023HzXKwWwtfl97j9oW0iT1PqsAUD42O/yn7HDtJnRwmL4wphnPy0CaLET00/vxfXDuQ5+/jrQhKpRbxz9+PAewPT0rnvPgf3I/8n8H5QkygkEe//iSGP77z3HPDo43aWjQOynSafAw+Hfhy23MEJJ5pey3ozfp7ty14THVhCtG1yHW43xTsAvaHLvqGynMDOjj0usV/LX20hkXBRzrvobqwjOV8PrLnnu2LKGTcGSvxH3c4EN+njJV087tQG7ed4flBtTconqt2Hv2mXW3wlxAAAIABJREFUi53eqPHEv7+Dp9lw/Hv9PW7/FBX/JPlvcQH6JksJiJo04fXwuMKlCb3Huy9zikpb3LUjJYntfnCDytx1rp1KormYQuF233T07OztP7uyd/tA7vK62Yi4sZj2Xc/alYt2u/RSRAK6uphFf2N0PzQ7ThsoFui4JLG3WffXiEjnFbc2Umzb+S0Wap7rhZyk6RQ7N7gujV0VUOU6qZkcKvNJOJkyinTD6w1mjTkA8o+Nl/hQcORvIXs8/su//IuPHbdAiDOT5Pvynp1/kwYPZl1m2E15+Lmo38QvTBKlzPnN/GwCndvlEU2DHRfL0u5QhBi0r6T9x6Szi+s8+ODf//3f77gmj2SwUhl1CiTYckbwpZdeAh3XMIjmxk+EdcL1oLbwZN3a0yk1UEJUd4uAzzHNUUE0ofS6FufpNIokCuY2OadWOH0iC9wfXUtnEyw7HXa7tK/zPNzZ2ffZQWY4q/x41cwU222SaavOLxnPpCQABWqnt7hvXMufWGHc4Rn/wHYr9se2z7ndjJBEljVxpedglivXfBInrrGiYCxeZCOiCVySekFPqZMGOiG6deuWb07H79ttlue8xrKn57koATlMYpgGYiP9H++vrqThzi6Z/WKXzqQhDrvorZTr3erba+X4HfapXJslbZpuwp0zBX87IK5TzNDzn7V+NSrfQrjEGUTUM3KNZp+29lKuj3Os08x1pmBcwfObtDxhHqKsTWQwD/cp0h+xh67d9YAHfHIQwviSOHdvc0Z3qEmUycTmIxhnA607dWBzdFCP+37jcR+JTNmUc/kFjgcDk3bmh15rM9T0r5SRcJJoG5PwwVgiaZTjQfWHnDhhePDgge/tV74hR/ar4f5Q+uz2SnrE0zFNbun4R5ycyXjKrXY23m7vqx30+tG+DIyZL795Mz8yjtvfl7GZedupz/LzHlpf+e57z+GdRx8f+Tv75scxNfUhvHP5IyP35Pl3SfIsc9Ufv/8cPvKXf4TK9G8MTEmte2GS6L8nCdvW/A+27oquI9aj/unTkDtkIqewsmQcpdGRzE7LGPzEWZpEabe0VKuvNY2vgv6jQVuxn+d51Ljk9dk/UCufAD04e/fK/muc6DZrGi9lTH/CZUe290v/wQOUO/bazpgW9kvs471eO1C3m3QeeKoccB4odZ1+O/Yz5tjrqCVOHmv8ppOP/KY8Z7bU2uqbcrEtX/ILRTjJgQm+jbGc17lvqWV9IdcP+jgOSTyI/Eu6ZfIvSms9Th8k8ez1eGQksfawb7zz2MSHmVha89C7vWQ64PIpB57X9Cs2vV+ysvfRQeY1bjafMJ5H+w+H5jaMI6rRr9K18dzAC6BtsmMLSXyXZkJeu2u+udzydl1AL4WUu14xgpWse9zpKOaQrUf9gYp42kXlrIvCNaqL08bzX7nJxdUZVLm4eqszcEvvFs2Gnhw86SmRJoUUDO0/qQjszHmd5IekgNqouH0AKfDZAqfEwWN4mxL73m7nNkls9/rIX1436vCluQQ6jxrILtbNb5qQFM6kUVtZQnONQtNg9oTxi1Bmf4t7cXtbHuprLSNoLd2sm70u47QQ/f5gwuHVV1+1owmc00yTwn840Cslg8xY/8M//IMR0OjxlPhGhTNnzsTei3r+IK6xDPldkhn5s/dJ5H25LvsxRn2XeeJzEii+OqdXBxqjrWG5yH0e6danuFA1a3pNR55I+16K7eekXYqAyDTt9sfBnrPKonWmyO1MF9G8lIHnDdopB5dm20PyXMWf8aWA7p6uwFsrmL5kJ5Jo0n+hhtXLxYGXsMVVM2nj3RiarJHgcR0inXSQYFPo5bYl9CQ7SaBG+J/+6Z/AesRJB/lj+4xrg4yf7ZkaGbutcxCXINepRWFc/AsTRQoLUXjbJNGekJG4aW5peysV5w5c+7DaZj+eG2wm3Gv422eUz7rILK6adebrGJhORn17t2thU36S9/BetZLOnY70cMgJN+lP+SxFY25lwA2zDdmlmefauqkD+RU6kUmOaDbD/RHHC/ZDzbsNJPPDTbnDaeE4Efawu9MYIZoPEXZJbiq322YMoyOO2s0l45SD6xy7D1bNkg163Ow1Bt74aDJHAdfsBdcPktD99Ieytln6Q05I8I99q10f7fxH9YfSB9iTEjvhwXu5WRdvXi/tqx2wHHarc3H3w3VRxn4h/pJnrq2XNdOZxdpgOcr2/pVu9bnIfRCj9kYMX3OnuFfiQGNIhzUfoUfTP50CvKAWkYRwN5Jo8D+1jD73iJ0gHLbcUWF/ksgYfxFMluxTx20Akm5qxFxe/ETw2F1b8s1No/ZSjqtfTiLpTwiyT1hv95Cer5g1jbXFtC+jdV7PIH+za8YGsV6RzdQ5QdZ/GFw6cxzaGTEUkuguro4to9Jvx37GHNHMx7Wlna7Ltkrsa3ciibU25Y4S6tfKxqlN8vQSclyL7e3Pi/tuzWEckngQ+Wc6xGENJ/+ilvfE9UG75WGS+0dGEnP0xBbaf8ROOF3YNl7jDBKH4UFg5yvu2jlD5LUo3o3OgokwKu/Zx94TPj98hyCLkMTnZO0NKzEH9Wqe61WihWM+v5dC4tcT89SAOqjMpwOeiTiDVW17ZnNk0xFZG3OKN6OOpUWz87bXc+Y1TkClHf9ehDKmRUhiY3PdbOZaoFktF9Za+HPGZfVuB9nzZSTctJkJt9chhIUyySPnBN25st/p1S9kzMa4ct8+cpabeaQZaFzgAnOaA8Zp2OLeC1+X/fTi8Aw/f9x+h0ki09d+REu7gYfXqPRSBOWCfxmEV2lGuO2By37ebpdCNGT2MO5IIsJ952CZUJQbPbhzWf978l1b82V/l+tZl2bZjod2+nR8JZM14fRnZl20rtHsnXN4hxPomIiEkfVE/g7nS8NYw5ou3rH7P96PIok1brtwKg9EeCulJrd2gZrcIRGpc9P3F0qmf+tczZrWHt4XM668w9fNrPJ2f2Ha/Gw54OxqmLv4MzpLSUxnYFubyNPsi1t3Wbd7MPsgnhhMJHLiqj5Pa4Xh+MN3wv0RRwb3zED4ys+5wEa0gBKnwQrnV37LjDtJoggc2dkE2jeJ9TBN3cce3IuNSNPZwhtdFGZcoBecRD0O/aGQxKj6JmVzGMdJy0HKg0e7LjJtcWN/iSaOs675S8+66FwfErE4TaJoC3c6iiax6j2Hj/7p7+Hi3/w28F7Ie+m2NnE3kkgtf55a/jifAIcBfijOsNzBHoTOVoSAyeMss/rdNoqXV0ecC9okEa3qnvoaWnzRakTqpMtJmMUstQWSBHBiutToIum4aF/j5OFQhuSypqRb8L17y0vHoZ0xLUISd5JjJc0HdYzTpNntKe5cNIl07ihjNNMl47SsPxWHXtLWCqdd9O4FHbscVH7seMYhiQeRf050cx360guJyP2/maa4PshO737Pj4wk7jfhO73P7SVsk86dnj2qe332MVvDjiacjv5m/D1YDjbC703ym2Zy169fNwQqTlAllnv1lsQc9DwK2n0cVJonyZ+sz6Op6E7bP0ic1BrSRHc/ge9TSzRO+Pd//3df6yPaH5qVMN1MC9c8lstlvPbaa09NMxlFEsfJyzjP/Dq0y3Hy8Uw+c0B9zn6wC/QnE0bEWf2DCKY/3Dy8yYO4NO40HlAgQVz+rHI77v1hXN4/UNctk1DfBPRpXtsGk3WGa4uPIuwod1j19SjS1ueEpEUAw2mIbYdWurWdhVH7YP1m2zFy7Q7y+4Hl2KpXBxbnhBF9IEnihBg8s4+zsxYzNR538+756wYUnczQqyc3Qo9y5BLODx26cHZzkq0r7Dhk5nA3l/DyDvfyonv4RqMBvhPeEiH8W947jCMnCWhCyfy/+OKLWFhYiNUuH8b3NU5FQBE4XASedn9I81P2J+P2h4eb+2MS+9MkhFHfOgYwqNwRLIT9yh3azoJ46q+DRUBJ4sHiqbEdIwRIvq5cuRK5wXhcMrmP3dzcXNztHa9Tg0jNrAZFQBFQBI4bAk+7P+R62yhnYMcNl6eaniji9jSvPdXMPpsf03b2bJb7BzXXShI/qCWr+dozAlywvZe1idTGalAEFAFF4IOEwF76Q2o3aCqvQRFQBMZDQNvZeDjpU08XASWJTxdv/ZoioAgoAoqAIqAIKAKKgCKgCCgCxxoBJYnHung0cYqAIqAIKAKKgCKgCCgCioAioAg8XQSUJD5dvPVrioAioAgoAoqAIqAIKAKKgCKgCBxrBJQkHuvi0cQpAoqAIqAIKAKKgCKgCCgCioAi8HQRUJL4dPHWrykCioAioAgoAoqAIqAIKAKKgCJwrBFQknisi0cTpwgoAoqAIqAIKAKKgCKgCCgCisDTRUBJ4tPFW7+mCCgCioAioAgoAoqAIqAIKAKKwLFGQEnisS4eTZwioAgoAoqAIqAIKAKKgCKgCCgCTxcBJYlPF2/9miKgCCgCioAioAgoAoqAIqAIKALHGgElice6eDRxioAioAgoAoqAIqAIKAKKgCKgCDxdBJQkPl289WuKgCKgCCgCioAioAgoAoqAIqAIHGsElCQe6+LRxCkCioAioAgoAorABwKB958DjvLvAwGiZkIRUASeFgJKEp8W0vodRUARUAQUAUVAEXh2EThKgshva1AEFAFFYAIElCROAJY+qggoAoqAIqAIKAKKwJ4QUJK4J9j0JUVAETgaBI6cJPYBeF4P6PeOBgHrq622h36va12Z7NTbBPpP9va+96QfiYHX6wObR4/NZEgEn+4xD+BfMIybtz5f3Rp9PxjbZL+azWbsC47j4Cc/+Uns/agbb731Fj71qU9F3XrmrvXYDnpeZL77WwdXloyr3eoAGL999NjO4uriMeiDIkE74Itxfc1+PsO2LGXe3xy/rbY32L+xDH99A2tf7yHr+/j53k9u2Z32n4y2L7aHHsfSPaRjp/5wZmYG9+7dmyjJ7A/Zj44buo+PhwwwbnrDz7Ee95+0w5dHfytJHMXkmF5hazbtKUL22GsfetTtbCBq701GPapiYr/W742O8X757KG/O6q8/Dp+98hJYuUhkHIywMbyxPixSy4uVFFcKI71V10oAojuyHnVOVlGZyU9cTrkhfytPvLTDrBZl0uxR1bw2q0u0GuAIpIzVwFuF8zz5est4NEgDud8Ha1Lbmw8vPHNb34Tc3NzZlDmwPzSSy/hi1/8In70ox/57332s5/173/uc58L3PMfOoSTFvM2W/bzZn/CmV/fFW92DcnzdVSzDjx0UXytEVvWyyxfr2F/YuT8F7/4BV544QV88pOfxOc///mR+5/+9Kdx48aNkevjXPjOd75jymGcZw/zGZa9/cc6wd8SWF9mZ2f9Z1hfDjKkVzpYn48WEPNv9LE0w3usGcHANsEJI8/zUL/bRqfBNsCr0aG5BSRnSuhvt5vop4ZX65uAM51H/1Z+eJHfZB09vYrmxWTg+nH9wXadefFFJJNJv03bAjnP5e/mzZv42te+5mcl3Nf4NwA0Nvqor9UDf7uVgbzPtswyb24CidklVM66gBc/EcP3WH7OTAmNBeIeX87yjf0cO5tAfa0RyJvkNSqP66wTTmGk3+IESJv1c62J9WurpvaU20DGSQGP+Ts+TDJetW9wrBqGpgd01mrmQuE2UJljG+pgvQe0VipmomR5A8gzHZuD54Zvx5+N0x+yDu0ljNsfytjbvpzay2cO5J3KA5Z3eqS8x4nc9B9nqmhcGKP/OACS+M77z2HuS3+MudTvj/33TvUPB2shx8nQmM8cptyRu96FO+vu+pebdYGH1ZEUF2+0Y+UEW14My4TeFlC/2QS2OmAfkGYf8KBipiErK+tArzWQ104to/9GcBwZSYR14Ti0MyYndbmN8kn2HdFysJXkQzmVfnUSOTtOrl59DCTJHe6WDiWtcZEW1npwnCR6N3NxjxzY9XHrsdTp8LhxEAk5cpJYvAMUOOO4FSRWrccc1IMCC3/bA7pUuOKZVKBDcE5mkT3pBK6lzhQH3zFNH1i+4wXuZ84XkXCSKObTgesCvn1kQUSlzzlTxtJpJzLddl68Vt10Osn5dVQyDjro+CSxcLuHzHTSdEwUsZLJ0tiNgIIhyWJU+MY3voGFhQU0GjuTqKh393Ot3AIK0y68J3Uj/JMAyJ9zrobmpZT/W67bmtP8G70B8e7VfDJdfyU7gvHSWh1pJ2tw2ym9r7/+Or785S8bgkS8Hj165D/Oe1/96lf933s5oUB+8eLFsV7lIPviiy+CwtRBB8bN/K2urgbyKN+Zn5/HV77yFdy+fVsuxR7DbUXaQlyHFEcShYxRGMzfGAoBTiJIdpjuxLSD5Rc4OdIC5z3ds9VIgYHvJhNO5L3u9WAnzsGmlGRfE2wDHGxcDjatciwGx/HGm2++acp4aWkpkLz79++bSQBqcyRQ08f21fQ8OKfK8G7mzW9q/6p3+/Caq2C5uSeGWDonXJ+MSDxxR7vMu33APV9DNZsATOnFvQUUbveRdJJj93HxMe18hyQg4aThziYDdSUxM8xjwwOqC5ysbJtRQkjieh9IzBR94s36lp51sXo+C2w2kbzQwPr87kR3HJKYyhXgOAk0FoKTLJUNIDmdQf9OEUISO1sdOJmKT7Kz1z1Uz/C9US1jHDpPuz/kVEC90Qn038VrdSSdFOpX84Hr9pjJ88ZaPaB13s9kSRiPcUkika2vtQLpLN2sm7pVfy0XuB5Of2utDrf6HKampvb0505NAe//Md5+/zlM/cUfoZL9HVQqH/P//ir7MfzV1BQqlT/wr/H+1P/+A7z90ocOnCQKhochd7A/WcruLEvtNObvJlzn5otwEikUOamP4XjQ4cTVdptaR98niZmVDoqc3NxsoOoBWcoa3ig5FUzCx6fdzvj98KTf6lodzskiKueSO9ZT1tv+xhATxnVQbU1k9nFJIvsL51w9cgImc81DeZblNzrhHMb/oH5zUs6ZKSCRSKDA+tBjjkaD9CdsG5P+pcmHHnDiD+Dk6+p5N1BehdfrcB0X9dcLgevu+dXYyfnRFI5/5chJYuZq1xClsDDBgZCCoj2bFBZapMKJBk6yLbPa8ptHxmfIaAxJdNxRYinCcPhI4XipgUDaKGwkHKY3KITY6ZfzxuJAM8iZ9Mr8MjqbLUMSu7cLSJ+toScaxRZnhl14j6oBIiVmXXb+Hj9+bCojBX87bG5ugoTg29/+tn35qZ1z5oozrM58fezGIh1I+V7PCEaCh2hBRMAVUsljzfOQdvJ+44rLIEnZq6++iu9973sj5Oz06dN48OBB3KtjXb9z547J509/+tOxnn/48CHOnTtn3rl8+TLee++9sd7b7aFXXnnFxBk2myUpzufzE00WRJFETsTEaQttwmCn09a42JMs7bt15G96yLNz7Acni+R9mvewnNOXW8jPOPA2aoE20fU85F5vIzOdgHdv2dyTyQZpq2FCKe2QdTSq7S5xltoSICQtB3Fke+XkAMk8/0jmJw39fh+0CqD2m/WIge392rVrI1G5iw2/v3KmE3BnEuZ36WUXzkwR3vWsIYnS9qIG550Er2QmH5iYK9C6Y74A0e7XW9S+jU76VdbqKJ0ton5rNfI+J9QOInDQLlBTtN3/S5xCuKiVs58Jjy2sfz0S7Pl6wPqBEwyOk4nt20TjJ9+LO7Y9IH2hBjeRQHMlD2yNEr3iDQ/e7ZJPEsv32qicThuthymvfA3NV4KTbkzzTqb6T7s/jJrwMfXRmpyQcTJ8jNMaTTJZEoe/CHVhWSL8PEVnd3bJb0tM47jpZ3/y7nvP4Z1HHx/5O/vmxzE19SG8c/kjI/fk+XcffdwQPSGJqP5ewFMqCagQSduD6tTzf3xoJPGw5A6OIbVzTqCPt8f7ScZ8uwypKSzdbCORSKOSj7Z2qD4G1i8UsQ7KFAW02hVk5srAxkBwN9YwJ5m2ZiB9Mt7Y35Pzp93O+N2wNpbyc1imDrcx+R2eYJV87LetSb8q44zEG3XkmJVk+3KG4xXTh8aS0YPS8i9qgljG9ag493NNJhCMYqc/mKDjObXO4UATWbGKsust5VTHyUcqR+Q5u8+OsrZjX5XmWLZNJOXbcXKX3N/r8chIIjMfxbCFRduDt2SOINiDrlQ4EXikgoeFQV4nibNJosTJY63HWdo80Nib2poDNLWCq6eDs7j2Oh37ezy3Be/8QhFOMgNbI4r7VTNDHZ7ZZ6OIagSc6SGeJEASSBBIfCiEHkVo0ByQmtAYXKMagKSz1CBBTKFDbRDXsRnjqoFZbri8Wb7sTNJOYqThSHw8/uxnPzMY1Wqj5lg0qWJHfhDhM5/5TKAcxomTWp8vfelLJn0vv/wyaJ6yn0AieOrUKWxtbYMH4Pvf/76Jv9MZ7dR2+xYJiQQRSNnR2+TDb38nXL/zlrpq3jlXRy3PNjKMS+IMT+LIdT5pax6q27Ohy2cTAVKRX+FsfhLVi5nAdc6IMu6sw1npJf+ezLqxjjrJEuqXgtrp7Cv12P5C0raXY7VaNWXwd3/3dygWi2byhubNbKNsw5MGvsd2L5NANKVmPY8LMtFCYdiYchszUWrBegGSSPJjlgG0h9pVttewhYZMoJEkZpK03sgHLDGEJEbVE6kvOx2l/sTlZ9zrNgG0z+1xxr4uY0uYNNh9Fusm+/3a+SQ8rxsQGDsUBs6son5uUN85KUJNUnfLQ/cubUQGbYD/s681kZh2Ub+QBvpdeI/78NAzGis8bhmByF5WQasYG+vGa0WsPvaQcDL+JKUIVzk3gShzPOJ2HPpDYp6kwGONERSw4taCRZX3JJMlUe/zGtOxF3NTWsqkaeIbEtjivmOTN/v8pbeoYfwQwsTPfkbOhSTO/fVvB8xN//yvfx9/PjWFudTvBq5P/fffPTSSeFhyB2W9KAJg9xVRY75oetlums2uaU9SFst3+6AyoDSXQP9hHR4bX88DJ7BkMsqeCMsuFI2Gu3guY/o09mWe1zBLE2wZhPIm5bQ4YnUc2pn0+2GTaLO2cgKfF/tta9KvjkMS2dfa2mSjCZ0dLAEoNYDsNDWiZX9M5ySkk12KnbyWerCXIwli4nQloD0UrWLtXBLYGm+d5yT5ZzqJQT6TDIypmXOsl0lIvbTH4LiJ+73kWd45MpJIAtXgQDpTQvdazgywqw84czMwGbQHb0lsHEkMa5ZoxhiehaKmIo4kpi61DPlcanQCM4R2hyTnUUIL14KYgS5kG80Cjis02xQgNb9qBL364lBQrbVbZv2UbfecvNiMjU+ExTfeeMPARS3F3/7t3+KHP/yhwPfUjzTvE8yjTK2ojQo3ADFhTF9sDggiBbGLTdTyCXTQ881yw5lh45P1A+F7/H337l2juaFAzYHNNjPlfQrsly5dinrVXOMsD4kkNTUMJHF05iC/7RcXFxeN9ta+Nsn517/+dVMfCoUCut3xOp9w/Cx7ey0azV2oZf7Vr34VfnTX32at03Qa6A3Itb/O9E7RDLBhDREJmHTuMvhSmHKcVGz9jSOJHPR3WocqHWTc0buzPGJFwAzLrBtN9Eo0G9kKrp+LSg+xIxnjJMPGxgbefffdibT0V69eNVpc0frtCvwYDzAu1ukvfOELpl7vRjRFWCD5oQmVbTJDTGTwpnZVCI4kY6f+zFiEbK+Tk+ejjiQAfWq3dgjNlhcwK9zh0bFv2QTQPrfHGfu6DObEiWaoxYVlM1DbfVZuYckIKng8MDuTOsVEMa4Uyc+2CbPUp9V2Hc5MDqu5JNBv+yb0WBusRy/d8eBMp7B6LeuviRTBl+2sfLMO50QW+VkH9VsVIyC1G3WkLjUDa31pEidjaRRI++0PqUFqt9u+5QP7Q9u82f5mXH/orzcPmcgSu6iZcjvO8LmMf+NOloTf5zdJEqOWMhB36cfs91qcYDpZRvlMcMIq3B8GzGRj1iQKSXxn9feAbY2hkMLwUUjicTA3FdwPWu6w25KNuX0eNeZLu23fKiCZW0VuxkG/PbDSYJz185y0gWnTzqkSVrMOnPmhmZ5YPNTW6khky3A5ubhtBs1yLN9tG+KIewMTf7ZN50zV7zft9PH8OLQzpoPr6EiqpK/iNRkLpM8Ppz3ut5T5XtqalE/YhFLajL2cLDzeSHq92wWDeZQPgfA7cXmY5Dr7f9aVTMLxtcnyPpcBOIkMSqecXf1h8B3Jf2sljf7jncdBPs/8hLF6psxNwwMZhdECZ+Ww7pvUDKryoEjYyKM0iVGzvWFyJoN02NyIg4NZ63G7ELnOUCqvELmwExlTcTOVbQ1J0APTbhWWT2cut5BxE3BmM8bOub6QMrMSJEYU/jpXhov56cQmrkHTMQmfp/bwW9/6ljkPr1WSiv00jjKACklk40g6hcDshy1wUcinNsIvt20FGOuEERg2lv1OzZ7FE/IeNaso+aRmjtjwjzhRw0abcppOSHj++edjTf64npPv0myXmhqa85HAcf0itX/hQBKxX61kr9eDmIySwJKQjBtarZZJr2hMuUaSHgqfPHkybhSB54zGZKHhr3cKr8kw5hHWG+EBXtoIMfTL13qep3HtUx5jdzoJWaQmXkJU3KYvmXfg5mvw6IBgqHA1r/GdZXb8ptbBmHMy/SwTmhSzHrAeMZw4cWJX813WNWqYDyNksyQUg8mPqPhFAOYzcX/sV9MrA0dSdPBjLCsmmPQiXnbfXH8M1BaXRshecrE1YnFhp1mcmIQJqv3MXs6JgZib2ud2uu3rMphzbLGd3jinl/xBu7zWQOfq0PrErve1jT7WL1OQHIwJdh1s9TgrXTYCbOdhzUx80flS5koL7nQC3TcKvjBhj221R0DCLSB9mmOFg9xMAr17FdA8zpnODibkttf222NpGK+D6g85CcV2QFNp9o3nz5837SP8Pd6P6g+Ld/pIcT1qaC0wy2FSkjjpZEk4jfwmSWJc+wj3W4bgzq8j5VB7ng3M9NsTVpz1TzOPomnchST+r7/8v/CJj0zhzksfBt4fmJfGkcSw1vGMEJ8vAAAgAElEQVQozE0PS+5gW9qLJtFutyJfJZ0Eujdz/sTgcqtvBPvaedfIWmE5rbs1WFOdOZ0wa02TiQRaKzmj3SchZB2RSR0ztp1ajnR4dFzaWYMO22aKaF0aypKs/0K64mTKcBuR3/tpa1I+ce3MHkPC5SLprV0tID+bB7xRizC+Y8vMkua9Hpc4aZdIo+A6wKPB90gal7l2fdtJIvtlxy3AnXbQXKHlWzz5k/xnMilj+STWI3HpM/kJOdOM6x/t8Scuvr1cPzJNIhNbWENg4SltvY2NL7oTkcS4Che+LoRFgBLh1RYG5Z4cacOeudz0B2+5LkfOxmfYaUR4tgtXcnmHx/rDPhJzJZRPJ9DpDdYkyuxX8ZSD3LklZC6UfPM8X3uzPeNsxyXrApjfUqmEH//4xyDpITH4+c9/bj86cs4G/4Mf/GDk+n4vUEOTnnN8wYyNI6zpCzeAcCUXotl6ZbCGU4iCTQAknRQulxeqfsOV6/aR2hYKM+Hwy1/+0nT8UQ5kqJkhCZBAr5JCDCn0Rwn+fIck9CACNVYUxFi24waZJOC7dNJDksj3aeq41yADTedqBqadbmuNSnf7yEy7QyHI0tLJtzJXOygkHTi5giGJ1CaF7fVlTaLnBdcayvpbGSDiZvplMsc2SZHv2wK6XLPrWvY610UnAmsLbPLAdygAX7lyxbzO9abEkzOqLGueR9Ud+RaP1A5zVvkwAicsmAYedwsUnFIXG2Zdpwx68g4xocAgZjTrC2x3A5LDZ9he+R37z14eYDuB8L3obQWdClCjnHJcwDJjle/zyHWr1DiHPdDaz+zl3CaAxpkW0xCajLSfkcHcJmniHbf5GrXqA0GA/5tvtoxZm9QpksrWm4xhYFLK9IbrIMeVxi16th5aR6w2eui3B23U/j6fza004SZcQyAZ1/Kcg9KdpjHJLy7mUJrPwU0WfMLFNrrTuMY0HUZ/yL4qHNg2wv2h1LGw+RvfjROCwvGGf+82WRJ+3v7Nb45rbspSzVxpD9qc6ZdZWtFhJC+7kERqEv/fl/5vTE39Jtz/8RvAzz4WWHdIwiiaxE/86X/CJ/7st/y/j/7pb+GjU1P4xJ/9pn+N96c+9puHYm56mHIH19PVL7gBE25ZsyXHOtehz5YC5tR2u5ESqd/xjBd5aZ+NHtC+Qe3ioH3aclrl/2fv/X7c2K57T79kMIPBBBcYTOCLAQYxbjAvN0jgt/t6LzAvA9yHucB9mAHu0/wF8xBUOrQcWqE7akU8NiO35dAyI4t9zCjiifpYLef0iajktKw+FhWZbbesMAptmZZpi7IoKxWFTptpr8FnV6/qzc1dbPYPnW7bewPdVazatWvX2r/Wd/3anVhyhbIAIDe3B4ZnaXdWjSZpuZyXarkm+cv1NOJ8c4v5rDI1Ov9xjjMVZvgCtumaul+QCF0POta0fWZ5p90uvFPry5yMfVXOaHBL2szmqDylxiFQJcJ+j93NZSlcbJgxvkak7hEcZpImxjTh2bbxKSfuRk4W0Ti+8PNa+v29m0Wp3R8YqxG03XEn8XfVd+iR77FdzviOXAE/zUgKhSSugH4bPqeuMEvLOczxWEEi2jJbZQxB9LfLpPGRDHJb0qAmjC5ocDsXz64/IXLd+BYYADyIbZdpE9NItc+uGht23ZLCvk8kUkLhKvjkvTYD5TvXd5Vv9lOpQ7MzkNq1hvAdDOp+J2GsYGbqeaRdSUStEqa4zyc7kzoTl8vlFBRiCsD7YWSzEgCCPEi8Pv/5z5tgLll593OdwbxwdlVa3RWpEkJaNo1kfCGqStxZMRN/F1Pjc6tjDryYTGkn18mN+umEYvsL2NJa+1x9oHz1BTijCXLTD3/4Q0MHNERuQlKKWRUJE1Wbppif2tpIfVYXz4OailIOWkDexZ8vEIm+y3e8ePGiERIoIMYHkXJ8W37Yz7MtBqZhLAA+01v6+8JcXqIzC2mb0E5RpZlqGSlPF2PO6Qv5s6sy3KgakEH7KkOm3zftqP1BF4iDgkQ3MI09oepWDEmESr5IxDWfpI6a1K9Q+8VeJp48x1hDaEMbqBYagQ79kYBFq6v73wKIcikDIQCMCHXMMvkjL9sooMFC+9G6vRsZTU18aDcda8rEE9BGE/Obbca/0sGEH8uHlmlTo6nbbskmkut81QTD0Wf1aObUMyveaHXkKVzveiPQ6vMHPdLnVJPI2qJR8ex1xs6ji7kNEhF8QeP86bzUz+YM42n7bmq/B+guQBcLCPMeXSf4BoBf5WZHNt+rGE3i5t2q1C/Uja8U9+330xa1xZq51xuKrNzuSPsd5tVYOk/B8V3D7jIO49sJ08Ta6kZIdWl3VPOh9l3mQ99Y0GBeOh9qAAhoSX+bdT6w28L9Fn6rsIQxsd+kddjrHcwOpetdWZiLpHy1fuSaRNUONn7wUfnwf/63BvStLxCZdFerCEj8T//fv5PGF37NRDF9c/U35EP/8dcMqPzMjY/Ih37jf5a3PvGraYTT//Q7/5v88G00kx/dL1mm5n8dfIeae6rQbz9H/BDtcaOVB/itVSrGUqK5FMni1U0Z3KePjINE2nbxCvdqMpSRrD3qyerSihE802eHjxOXBAQwGn+i/kikhhnnlABnxzXO+H6bx9Uo+oy7aX+65ir9fMeDjjVtH11nfGXrNdYbV5tMkCgdo9Ae3zwNbAhwJDItZcPv23zhfs/7T9aluNiQwcbkXMJckWXpgPKnc2s82rh+D0f3+1mT8+UEjJpto4bjQlV8+deuJnEW1u63JFeqGwuUxt0Vo71cWcTUvWncDkpX17zxSuz3H+T82ECiArBmJXH61AAS2gHsxVs/zAaJ7FelEiX36PNJtPMQhQqGlw5WXqoakNh9OR6Wm8mJEMuFaHEi1CxMVePpSKK5kmEY7MVf68rRB1b1voakb/RiWZhblEF7Of0e3Sg53QKjXRcT7jdjfxsYega9G1GTa2fOnPH6zeGADABSkINJpQ9AaX33e0RTxIBQkJgZFW4nyiLSEGXcdSHGXwrtk04oWQuIao8AEGP+H1alf/zjHxsawci4CWYfWu3lv0lEVPLtpXklQin5MPvcb/ra175mni0UCnuaMPrKpp+zByQRU+109epVU26WxuvOnTupQEE1ZW6kV9qFPSuN5twSVjBp4pMLECQps6zv7xG6EY3JFB9dl4nWZ/V4WJCYFbhGy8c8D02CgiJ7rtE8eoQJLZXGJZh6L+sIAGesseUITDNBhNy/rGezrtNXFhYSEyL1E/EJhdDcVu/2JZorTASeIQiKCq74Zh1rvJPtZ+w9tWg/25SHdlfgZUvU8fE2zzlaRP0O5jLffrK6BryO/fLsutpri31u59HFXNcjrBryZ1YkyucFf5I8gPliJKXbu/uOab+H9SRsu20yq/17JJuyjAR5J4BG72nLCMsG96uycIWtIBKTpc1tAGkSpMHWvOevbsr6xZzEcT9dL2TEyBQBxMK8tnk2X5+qjT3K+ZB5cVpiXtX50MwhMH9zkaGl3d+0DNohiwnTPO6R+U2FJewJvF/fa945iyax+s2RsSoaPki2Ijlqc1MFiQA69kP8f7+AVvG/kzf/718R+dlvTmgV3/zmb8lH/uOvSePU/5QCycazj8pH/uOH5cYnf1Xkxb8ff8Yl3CF+vw6+Y5og2I2g7DL+CNntcQvDXlhclmIukv79uhTf7UlrKUo1OA38guPO2LqkUbTrD2Ip5/ISP92NLK9WLbhbGIH9yzUTXNAe5y45j2ucUQ9VYiDU0jnerp+uqb4xaOdzzw8z1rR9Znkn643GNoAfVz5P52TqVXy3L4tsY/JyPdU0zlK2+037+X2Q+UnL930/60X1LlrFgtROsc0KucaTbXmIUJCkbgsr5byMnk8+M17CwX8dG0ikyqj9cQjF6bPyXmtMgmwv3vp5NuPmhvdNVa5zObMgsSi5UgjNQxQqJCz9m6XUrHX9SX9C8uBGt9JJ6Vvv1CR/9evSOJ+T6kZ/TEKsdeU4jSnOCu9r79tFGezBtVyJJDpTH2Pg7PcQwZTvxY/NTuovkAUMLn/xiymwRAKMpuMoE91WQSLlIjVpmw2oh0buVpirpeZR3CeYDwECGDSlyy3jJGwY05vFqf6iOnmolskXZKDVSrbgcIG0fi/mUN/4xjf0p/eovol7+QeqZhKN4qwJwIDp6kHBob7n61//uukLX/7yl/WSOQKO6SNotHwJ/yLua6LvuIADqKc+GYwdOy1e70jvfUDiaAIkar5p40GZ6ETWpk/sHnVB0zbOkjBrX7AXEl/ZytDvviFZcHRvP3uusfNwjkmdTRsVtLj57N/QFlB3VElBoZanwB6NopvQRBXnq1K4UE419ZrHnmf5ZnuBTZmh5w1j3oOUdnBrt91ts03TPlhdXC0ZgQH7+WUlyo2ixVTrpfkIdJVluq95Dnq0AeDCu/3UjN/+fjuPLubajwBgMFrRUiKpRhPYG8YmcIlq7+w+lZjV7moTeQ/flruwaJhW1WRov9b3oJ0lEMLiBdaxkpGarz9n24WyEaK5IextybpqNSvX6lKFcdrOZhyOcj7cy6WBeZX+z3y4xrfkStJ9UDMaVLu/advulwnrdDqpqbWOC58wUMv3HXnnLCCRFXb4PAkm5ptX3LInvmUPc1MbJKov4psPf1t+sv7rY2DvxsPfko/81/9VPvIbH5Jz/9f/KPLifx+7/9aj35YP/x+/Jh/50K/Ixd/5N/Ljh/9O5Ge/7VbvUL9fJ9/BWlO61JRhe1crY4+vrIrruF28UJJclEsjBpPffl6tKjANjM4n2znRquzH6zPnUwE25Zh18PyaLF9dMMEFdez66nRc44xvyZ1fE1wGijeTwIzqX6/11LnHNwY1j3s87FjT9pnlnS6/oPW16W2ijp5blcGdxZ9bkKg0xrexf2c3mjjXN5+OpHBxxWxdQuwSeTK+VdbmC5F8qS7RXCS1xYL0HjREhYZa7mGPxwoSqTy2vPlLiWld751dx1p78daPZJD7JCLcZ/LGDKRGEJhyVaplbHarEm9kMCs7gSp879H30aFdPzq9hyZTttFIAoRgricXZLeT67N6xHG/djpvNmjlGt+AyZAtSdd9uHySd55RQKKmhVo2R/WXygIGdl4WVySxR5mgiA0SNcACAAMmij0gZWvS+djUYad9FCSqjXm+UJBCYXIvSrNX1Y5W0heBFjNKGwS53wkoYisCN2EKyD0SiyKaWU1oXn0029xMzI4137QjAB7QgUmKz1Rr2rO+ewr2fKazaLOgAZutT0vqmO760KFZQmpXvbUqJUxsdvaNcsuyF2P73rTxMG0cUYYuEDZIbNxvycplzCYTc4ssaaOvbG8dreA1Zq5hDyQZGDNj2p4AQjqmbGD4sY99bOq2E9Sf/LTxUSRlhN2y6Iu0r103Ow/f5G5hMU2TCJjTCJlYNaCdEgv8QVc12+Q9GmyrfSXZWB5hT/9Jf2KfPqNpqzTH5nJlvKZJ5e1v2e85QGt5nuATSQj7OlYZcdvsd7uOz4kMdk1md8zjVZPXYoukfFUILqPzEe8nDHuJoCQ7/uh2n9LvSUyYR+k60X/RGgvLj0w4ml9JTagoFwa29ZTAZYkmkWv0/xymVA5Ir8wtiGzt7iWJUJE+YK8hPlod1XzIVjuaMKV2LRi4x7xqz70IM3U8+5jFCWClL/AcCYrD2NSkViG4XuwnzQoS7TLp/69Tk6gg0T7eePZR+fBv/i/yf/5GEtymEf+W/JcP/ZrI98ZB5H958zflzf/6IVn/wb+X/+cTvy4f+vB/L2/9t1+BY7A/4cDnr5vvgO8pIiTRgD87IC9L8M/eeSQFIYONqoye08t2E6bstiklgp5+B01ia+w6PvTGR930UhGNjWD7STP2cTWyLS1237R7drzjjHokWxv5+OZpY3D3C3bPjmKsafv4xv3um5Izl1/Q+tog0eTcWbf1vi3IdMs8it/7mZ/c9836/Z0tkdyZZQMOCW7THQ0m1gnKVt6mF7dk8VpTolxBakRr38J272jSsYNE9U8gWhvRgYjsRuLj3Y5tGDdPmHWVCq3A1BEEZseszUSDO10Zkya5ZPO9R/PQoFkgUfNoIx0EJGLSkDtVlPobORk8aRpneDccvwmxO1caC1XPu2EE+QNksADDOPJbgQbHr371q+Ye99kCIctMUrVPPi2bMjF7MR1KD/sI/WyQyD32P8zNLQhgbxaG0GbKYC5zX2JbkWRfN32XTg4Tk4dmEJFPfepTU33yAIONxqS/p9IWieCbb74pBK4hqebGekV6ij+ozTylN5wT2gxwvx+No1PExE/VHk/cEBHVhOKDOi3SKWBDgbGWo/0QJlWFGVkbydrMsj7PUcelfU3Pp40jo1n+UstIle0xqX5z7bcQLg2FuaT/oC2d4UiqF1bSaGS+srPqqPVB26QMBW0NPYgcTLvi80nb4WMFY6xRZPXZrKP2C0D4fhNBiO7fv2/eq31Sxzplca7gEZ9SH1Dkm23zHUA1+0HqPGvm17eKsnZjVQgBny+vpEwQC+NiRNjudRm9wmNHZOHtbhpoTOdxmGZ5mvhX6tzhG5e1jZGsL5XSgAAIjfL48TkRVV06JRq67MA3bn73N8+zr13hYnksPL6bTxdz6o4ZbHMJ35TEZBoGR8eAHXjF7VO2ZtTtg7krbbOnIZYjai5l18F+P9e7WyKFSkMKuZxs3qhI60VfotPjfp/UCTNY+oer6bfL5vyo5kMEJyRM0zXar/su5lV3PtQ528cszsqEsfbZAFHfizk4NPCNAc3jHn9eQCKA8eGj3xL5aeKjeO7rH5XCh/8HkZ+NaxIVJKqJ6o9/+tFkaw3rw/GtyxI+W9nGTqEpf6+b70DghOm1+ptRCcaX7RM95kK0Y3LtjpvaQxGioeu+oepOYH+UvS4xr1VudSWXK8hKpSCDp5uSX2qN+dzzrJpyZq2BWv5xjzOlm87xWi+O08agnY/zoxpr2j6+ce++024Xu76+9SS9nxFp1i37ML9nnZ9879jP93dxQN+ilUR8QhOuu+sKrgnDl4mlg+/9B7l2rCCxNxrfoLJ8hwAbeelcW5Dqg1EKcJjw9c/u7IORSPnGptmIuH2tmIaetTsXdrtEKQKArl1blNHTyf3Q7DJtItKgs4LE4VYr9RHRySvLN1Jt23kXjVrBXyjKm0mx/z6SWaYqkXX8pE6XpbGUl6i0IjXC8MaJ1BgtDyaFMIb2n9afiZzrgB9AAWDEF4wE4AhtSTbTqeWgTcAv0w1TrvenHaGfCxK1zXlnZT4n/QcrE5oGu0za0p5QFBj03i2m2XSyy5o88L/kfV/5ylfSZ9wTgDLMv5uISklSZuSzn/2sKYuIp9DXly5cuJB5z5f/KK7xfbwXMKN/9j6J3Nfr+LHx25cAkm6AG6W5Dc7RChdPLYo8mQy4YgMs+x32uLSvc+5OdvZ9JsgSUuWXa0ZSbI9J6ra+tGwikwIAqmint9k3rpsKVijblfiPbbdiv2znnO1mFCRyCYCHHyJBOgDYML2YBhNJdj+JjZUJEkU/Quigf4xP3/jTshnPaGTssQ5w1KTXYZApiz+esZMLYrgHbXT+4/7azaIU5pfNfrHLF4qiAbuIVoq/W2vHV47+w5yKb5aOacKERxeq6XZA+CmWiPxn+a/a9dFzBVwaDEKv+46YfdraS1+erGstzFxPV00oeN6J5Qnf4LM20cXcnVN0PmKGbj6KRZ6RM0kufQHOgwdIdHc1iSpM7LwQE2yg+7AlsjW5qGe9v/1yJLnSihm/K2+wHiT+KXwPUWtLaPpvrpjw6j1jEp6sJVpHjoeZD9W3WedDBBL8Mbfa/dF+n28+1DmbKH9upGNMbgn8o0HOdD1lq52nP+wdSlgyHPljGRgzX955tzKxjtvv17WZ75s2Z+n3TzCUBzA3tTWJ9vl3fvZR+fB/+3VpzOGv+Ntj5qYuSEyf04rtaP6bFdaByT5iZRs7/SD4DhXkVG8um0BpBJKhju74GqvYzg933GCp1tromFgFoxfJWHGf861L8Yj5Aa18TojgHD/eNQNE0M1epo3rJTOf4HZkR7/U8k/COKMu0I05Ph72xvp2h+CBZ1fGggdqXydux2EEk7YftZbJsck7o4r3nZrPbKm1PTJCZdvypXKlJlE+McFXGtvHFvuWWtYX9r2jPJ8Y0/soXPunzdPu9bgK/3xa61nmoL3K3+v+sYHE5vORic5jAx8qu7wRy/DBspmAV85GEsedtGMT/ZLOPpK+lN5hs/mciTw6er5rbkMZvkG/Rmjjc0moeNtkx2aSeBYzobg3MO9c7cZ7OtBrI5XvNAxjpX6P045qDtl9MUpUxHMFIbJR9Tbq4qKJ/LfSwZG1JOs4V2/3k7D0hZrZ0JPF8ygSTGQ+j1YuST7g4G5TonlnOTIgFCT2hiOp3Ng06vDlcznpv2jL4rWW+Y0JSfVCUZo3l6WzAdOUSE94hzJl9vvYizvejqW10TWM1vLdltnrMksLgZSbb8MMNCvhYI454DQNW9az9nU11ZzG8Nv5T9I5AAiwTNKIqLCv0fm1RGO0vdsudr0JQlW7sm58es1EniumUYrtfDoulUGkTfb6g0lHqqxaZ1juaK4mneslieNknLK4dHqx5C81UokvDHrhfEPijaqZS6aBRFP/q01Zu1FLooRdWzNCm/j9/Zms2d+61zmbjwMY6Sf6t9czh70Ps+Cjtw0SfYsX5pZ2tFIN7oDvw1qPebycbCY8bKfbZ6xcLEjp2prxM9+UxHTS9+69rrmm/IB3d6/aWehChEMEbjqf8gysMVsZsGG2AbuYeW5smj5QuUkQmfyEZtOdj1gvmIc6j9qSr+xuyu3WiXXCjbA7bY1QzYeCVMBN40HPrGEE4mjeXTZBOfBzHDxbMy4bRNwctpNofJjMweCaveBG4yD0JMyHOgfYQolp9OBeeb4g37xTP5SwhHbYq89l3Xf7oq79Cvy1zfGtV5/p0rVm4o6ys39lCtYcsPjm9z4qH/rQvxGfT6LvGQLWfJiIpv/hQyLxuBaR/HuBREP/s6syYo/YDzhN4zsazCe5UqoJ133q2AYgX1iYMJfXOBEcBxvLqbmpby/lrP4V5fKpQJA5YbM3lOJSw/g0Nq8VUx6t/15JKgQYifKi1iu6mToCstHzcdeZkzDOaFoFiYVrazPzqMTtOIxgUjXzWWNp2nXdVom5dhpIbPbgO+rSur1igtrkzy9LGV/s2L/9xFF18w8SJGrAGoR/PveerDnoqL6Vco4NJJaJxObsP2J/GCFs2+8gQWIZThKTr4ZrR0IUd2HvJqVgyozqc/Zx+Ir8u89AZGWSyKe+N3RiFvX1Cv4qfuaY/AdpJN6eW0IDGkljqTgWmQgJ1novNpsjm4nI2phToxn1LS2a/W37PUdjhFZJ9+EjKpybsOM/CFNGOQoS21ubZjPXKma1ONZa9EfitPaoL4uXVyRXKBpJuO2H4DJlWj9kgoVzK+mk17paMhvj6n2O6p+HqairHbPz6TlaQ0x0D5N4Hi3RLOlHP/pRqvVR7Q/mW9SbuuDzuLKyIu+8885r10yyrYNqGvWIDwKp9wJLO8aaP8GC4vCvi/AaZoROKGeetMelAg2VHmYdASLsOyeWCcVKeyiFc4vp+/S9tubLrin+rMvzjONdO30CX6mwxq1/ab4g3duYvSPD+8VJPkm8Pf9x3wcSm2y7cLYi4olWiia3eRVN7i4QabHp+xt1M7/1by2a0e5qi7La271upMo784UZ8/jvOZuv79VCBEvJzZXEtjbRZ5iLu4/o20Mx+yCeSgSJCK5aS1gr7K4/POPOR6wMhQsJ81U5VxB56mdQsjRY7vfqb5W4AxKV4Vqcz0nvLrTerdPgZSyFt9pe09nqvYFUTxdEhokQ9STNhwoSff1N2+Z1HPfbDtoeHO2+SN2y1v46Jo7zBfNXnC9I/44FxBxwqABwPyBxPf6ofOQ//Ft563d+VeSnTvTSnfL3Aolo+Sto+bNiArwO4u+UmcV3MIMQbEUBmFaBNms96kntxtpEcEEbJEp3/UBzDRZfWI1onywghLm2iLZAqyAIpuvtgeSjgvRuIzzc5SFxa8oXqml075M0zvgABYnT+Nj0Q4/oJEuTaI+nrHPVJBLcUddoqqXrtPqfakAvHWvV8wUZPh4P7HJEnzNWzAcFEhF044e+/EYuc//vrDlorMKH/HFsIPGQ9Z76ONtL2CadUzMf080Rc8z27kTjVmO0lX1PrAAb7nOz/kZ7QaQq9899HloeNFoSXzCMYbRHchR1duu212+CzBDljo3QfYFc3OcJ6IJw4CBbV1CWSg73Cgmv7yVMO+Hh2+222aPS3RLB/a3PvY4jG8XzhzaRP4DpXluC7LcePw/jcr/f9EuT/wjmnMPSamw+2WdhmH4dRTLz4dYHLzyYth7AkEnW91nt9kHPh5irMZ/OOh8eRfuc+DIyQKKCxdd+3CEQfQbf4g867cl3WP31g64b7xshkLQAoFuHzHFo1TuMM5dqv1i/GTuGr53Cvx/ZF1v96sjK3GdBv5AgcZ80CNl/QSkA+AL4TNtg3P109rE7d+6ce3mm32gQ2W8wpECBQIFAgZNGgQ96PsTf1hcM7KTR5QOtzwkBiR/oN/+SvSyMs1+yBv8F/9wAEn/BGzh83v4pgC3+QXwTswLZ7L8G4YlAgUCBQIGTQYGDzIdoETGVD8mhQACJDkHCT6VAGGdKiXA8SRQIIPEktUaoS6BAoECgQKBAoECgQKBAoECgQKBAoMAxUyCAxGNugPD6QIFAgUCBQIFAgUCBQIFAgUCBQIFAgZNEgQAST1JrhLoECgQKBAoECgQKBAoECgQKBAoECgQKHDMFAkg85gYIrw8UCBQIFAgUCBQIFAgUCBQIFAgUCBQ4SRQIIPEktUaoS6BAoECgQKBAoECgQKBAoECgQKBAoMAxUyCAxGNugPD6QIFAgUCBQIFAgUCBQIFAgUHPXPsAACAASURBVECBQIFAgZNEgQAST1JrhLoECgQKBAoECgQKBAoECgQKBAoECgQKHDMFAkg85gYIrw8UCBQIFAgUCBQIFAgUCBQIFAgUCBQ4SRQIIPEktUaoS6BAoECgQKBAoECgQKBAoECgQKBAoMAxUyCAxGNugPD6QIFAgUCBQIFAgUCBQIFAgUCBQIFAgZNEgQAST1JrhLoECgQKBAoECgQKBAoECgQKBAoECgQKHDMFAkg85gYIrw8UCBQIFAgUCBQIFAgUCBQIFAgUCBQ4SRQIIPEktUaoS6BAoECgQKBAoECgQKBAoECgQKBAoMAxUyCAxGNugPD6QIFAgUCBQIFAgUCBQIFAgUCBQIFAgZNEgQAST1JrhLocKwV++tOfHuv793r5T37yk72yhPuBAoECgQKBAoECgQKBAoECgQKHpsCxg8SRiMTxUGQ0PPTHHLaAbi+W0XBw4GLiLZHRq4M/f+AXQ8NXIy8N4+FIZOv4aTvrt422xVtfrg/pJ0KPmZ5GW3vn8ZVw9uxZ32XvtW63673OxU996lPyla98JfN+1o0oirJumeuf/vSn5Wc/+9nUPL9IN7P6NN84OlgTe8nT3xIZ9rLb032IvjgaTo4pqjRrH3XL/Hn7zbQyehUfabXTMb49EjMPzNjI8Ugk3kf7HWmlj7CwAeTc+uDWj6zxddA1o9PpZFLj9OnT8vjx48z7vhvf+973ZK850X7uONdfux4HPaf5B92edx0/aJnhuUCBQIFAgcNQ4NhBYuO5yEJUEnm6uu/v6IlI7cq61K7UZvpbv1ITEZ6aTFyNzqxI/2Zx8uaMVyr3R1KZi0S2WjM+cfBsMKTN+wORYVv61P1cQ+RB1RS4cqcr8iKpQ3S5Jd3rhakv+qu/+iuzGLMgf+Yzn5FaDTplp4sXL47l//a3v52deZ93KvdG0jgHWOKrdlPjmUg1om02dy96zlafihSioowe1WX9Cf0ju2/03h//zlkYkh/96Edy7tw5eeONN7wMzF/8xV/It771LU/N9r703e9+11umPkn9jgskLi0tyZ/8yZ+kfw8fPtRqeY923lno6hbi9mn7Pn0/qjSley1vX07PATBxHEsvjqW10ZHR03Z6z3dSfyRSzedFtqb3LX02a5yvvRTJM5c9qmvWE3tkzJY+/WnJ5/PpWLbbiXP9u3v3rvz5n//52LdUH4h3nMLotja60tpojf3Jy71BOGO8yBh/1pDFOwMp5nIyuA8tp0sEFu/EUmLefdYYq+Pr+NHq0qfGv01/+76xeLM/QSe+BsFouzuQxt2WSLdpvjC61JL2VX+ftr9l9WE8dV7TOW+V9S7e7ftHuWbY9fmnf/onMx/+7u/+rvzxH/+xfcuc/8Ef/IHQhw6S/vZv/9bMt7M8mzUu93r2sGPBLj9a2pxob/v+tHPmoVKUF3m5Ni1bem+v9U37gR6n8T9poeEkUCBQIFDAosCxg8TaQ5j/SGR7HFh1X8JsTC7G/Tb5EqYBli6KqlK7sDC2aEZnFmXxTDR2beFCLXnPDshwF9rS5ZrkorzUKsWx53SCtY+AC1/9ogsrsnw+8tbb/pa42zK1oO7KiM16LEKrZw1Bj5FnQSpF0pd+ChKrD4ZSmsubPMh18/n6zEwrjP2bb74p0zRqV65ckdXV1algxupf+zqlVWH+e+8WDRMFo69/K51YKtGCxHEzvca9YQxbmvSH7nYC9LvXF8x7YWSr87TH2kSbFC6vyebSuOaONtgrra2tyeLiomF6yP/ixYv0kY2NDfnTP/3T9PdBTtBAAsh8ifcdFUi8devWvtvwm9/8pqARyOVy8vbbb/uqaK4hRKAvffzjH5deLxHK0Eq1d9resSVP1ifKmgYSAWMIlga9FSlU1qUwX5D8fEGiKDcxngqnIum+kwh+1p+LFObLJj/P6J8+WzidS6/pvfJ8QeT5bv1MH81g5ku3Y1mZpw/tDYgmPviYLtCm9Kvl5eWxGjx58kTm5+cFbY4mtHuAG8Zd5W4sK2cjieOOGYP97ZG0brZkczSQXFSVwnx+rF1UgKVl+Y7M58WomoI9xnwhVzICH19+vaZ9Zf0CtKenvb4ECKBPaf/QYzSXS4V0tfd7Ej9MhJ42SCzd6gv5oDd/hUJOKucLMthYFvp0EQHDDEDXXbvstYnz6pdqEp0uSYn57PkucH4dawaUfu+998y8x5jnu+w5kXt/9md/dqgGQUDx1ltvjZVx2PV3rLCdH/sZC77nuTYrSGw/HU2sSfnKqtTOsV6tT9yz+QcVevnWt7WNlkTzVVm7XBgro/peS6oRwuLZBGFZ3xeuBwoECvxyUeDYQWLp1sAAHZFxMxsmwNzc+GIcnSqMSekUJLoMCBO1CwDMhGpAQDJJugttVJgElu7iq78BicttGM5dRjN3uiA5Fv4d5si+5563rxUMrFGGS4GQHptxLFFUkc51QNEuUOLcgKLtBBR1tkUaS6vS3+oakDh4UJXixaYMVaPYFalEBYlfrI+VMxpOMlJbW1vyiU98wphJstD7Egw/9z73uc8ZBtKX5zDXWlsipbmKNNprEkXFlJninVl/RsAgmzLYFslfaiZ9aTvRQtLmysi6dFy43pnoI1nfbX8TkvIbN27I06dPBSm3nbjnXrPvz3I+HA4NuPKZs1K/w4DE58+fC5pONKF//dd/bfrELHXSPHzzF7/4RfnDP/xDqVQqenns+ODBA9NWaA+q1USzTQYfSFy8UpMoWkiZa7sgZfzdsU2ehRs9WTufAAJbsxP3OhJdakrrEveSMWKXqSCny/g6tyLNS3mJ4/7Y2Oi9iCV3cU1WSwCg7th4K1xrp2DUBpTSXjb2CVgi5HPjcxZjn/H+OtLLly9Nf8MSgD8EGPtNo9FI/uiP/khoL/oHibng9u3bE0XZINvMdzvzM0C6dLUu9dORbG53pArQ22FGV3poRxZS7Ug7Rru/6hUW0B/y0YLULpXS+9WlxBKAORez4NZGe4z5Vea5cq0lzXfL3nvtjZbIVjInTHzUPi+wtrjWJm5ftfPYIFE13KtPhhNWEfmr7cw5zsxLO3P6tOrS41ceDCRXKEv9jZyMno8LXnn2KNcMrQtm8Ai3sKBw57/z58/Ls2fPNOuBjlgtQIPvf//76fOHXX/TgqyT/YwF67Gx01lBYvnO4MD8w+BO2byT9c21utG+6PbRWS1xxj4m/AgUCBT4pafAsYFEJlMmfvdPNWW+CdBecGk5BYk2wwZTFuXyE8waTI0CCrfVm0OR/FxFpH0wMzEWZ7R6yrhq+fh2+ACZ3s866ne5E72d3wa5FZjtfGlMo4p2BsbDlnoDsmFifUzr17/+dbl8+bK8//77pk0wIXLTqVOnDENNmyE1PuqEJsalob5j2iLXByCW16V+NjLmt4Jfo4jQh1xBgwJ2aOEKEviuaekHP/iBoc29e/cmsmFOxfMw7odNtIPPp5HyDwISv/Od7xggUC6XpV4/WB/nmxSIAIZhDH2JOqrZrPsNBrZZfmbNLbQnFWk/a0hhfnmMaTLjeC4nOrYBYiQECdFcRUb3/CCVecVtV55zAUbtTkty0YK03hkHFvlLDSmdiqR1p54CDgUZlL28uGspoFJ7gGy9LbI4l5fWxkr6HAAmWlz21sdHu1mvra+vm772+7//+8Y0/G/+5m/MuKV9DmL6zXO0G+WQMKWmr09L9vzceCpSyuEy0DBzsg0SmYNs0M44zkfFMSCowjcVGriWIdwHJNogVcfxLEdXGzztu/a6Rx/QeVnPlTFXgYZepyx3zeKaO5fxGzPbuLs6JrBAsFV/GMsCJoi9FSP2aLX7xny60xviiJlWt/VMJHeuKuVCJHGnITFzYBwLGiu1vjnqNYOX65zYbDbTuugJc2LWPKF5Zj1+8pOf9M6JPH+U6+9BxoL9DbS9C9zs+75zNLxY0GwuYWpsZklftolrjMFSHoupSipUUV6gUsqn1xg/pUtYUlF+IiSfKCxcCBQIFAgU8FDg2EAiAKqNRP90XQa3y2ZxXHsWSzFaNCY3NhOi9XYXXAVT8d3K2OKKNqF5CU3ArhYO86gskLhwvWsm9uV2f4JRdZkQH8DCDw7Gx/VFYsHwMaz6PRyRrK9eWR3zHdHvUmbEzq/ntrnKwhKat0ha1xZTBrXZ6xpmeng3kTryXP6tSe2ZlodJ0Fe/+lX5+7//e1OWyySigSoWiyb4AO9iMT3K5PqE2gyNLnIwS7Uri+nipz436y9F6ufKBiByXphbFHmyYkBi1oJNX3Lbhu/KStADKTl5YMRd+mCuVyqVsh43fZHADq9evTJ56JuAN7Q2bvrGN77hNTnl3fsBiWiG0Pjx3DTzUPf9Wb/xV8X8kDLRPLkJ8IhZGFpK3vmtB+O+mcV3+9KsQOMk6MtKV6Q2V5BY0A6N+7EpAGu9nfRp9fdirFK2MuRuHbLG3DQNloKUrKP2M7dsBQfxg6pEF9al89akP5n7zL/8y78YMAZTjWaWiLWYFytAc7/H/Y2ZMPRXrZ97/yC/KQua0r707VmAps7Pm8O+RKer0r+Z9H3mLgWJAPoFhG+9lbRaCoh8ZpV4z0Vztcy2TQsB/7yEmU76kX1dzxEKxF0M7mdnuvXZaUfaU+dlPdd+oH1Sr1OOvWZhhurOZcsI+ErVtO9APzW5VfCjY0bf07lZlIWrbVmYiyR+mAh9aI9VhGTSl94Iodma1AuRFG+spaDlqNeMR48ejc2Jtpkp345v+/Xr1zPJiUAN6xSNKo1g0jZvth+8du2ad04kz2HWX/sdnB9kLNhl0PZZLg4qbLLzc165N5QF1u87tXT9Vg25fcRNxU60ufsunTeDualNqXAeKBAocFAKHBtIpMLrMQtiAgr5zWRfxTRJNr0Mvr3gkl/BlC7OSgQmahcAmAnVgACe2k1Gsj1XktGDqtfPUCdpBWJuEBizcJcaY8yvlu6rh97To49p0u9SZkTzukdYpNKNrpQKOYnmS8ZXrHVlQWR7YAAhjF//3cQ/j2cJYpNVJqamAB9Mg3iu3d4NeACwMYy5iKgv2yyMpFvfab9ZKE19dwIH0da2XymSUBskonUo0lfUh4fopwDhyy1pXYZZHx6ZJhFA/NnPftaY2X7sYx8z5pr45dk0gHHP8r0BYPNt5CdQiPq+fPnLXzb+jS5dMKvySeC/8IUvzAQSKR8TQt550IARbp0wg/293/s9cxkfIe0Pmk+FC/ymnuR1t+xoowU8XZP4zqJ5jIAj6kdmNB+WGbQyxPbYZqxEc6Xk3Rnmd3uNuf2ARTfQg1u21rF5qyqV+YpIPKlN4RkdgwQ9gm4Adkzo0Nip/y9aenvMKV3tI+2KRuV1JPxstY9mlc+3kGfa3+aDagoSMQvW9tUyffOd3lN62m1eu9WR+NGuXx15118hlCtPtfwgiAmMtw1Q9T2HOZr23Jmj9Nytt17nPfaapabRlVstWYzQOi8LwGH52prIMFmX+K8gERPt5ZsdkW7iE6vv0Tm8em8g0VxB8MGuPkgCfrVe9iUqVGXlfE5k2B17P/U5qjXjS1/6UtoPsCqhHzMn0kc1saZkmUD/5V/+pXmeuYRxQD6EJVhR+ARa3PfNiYYmh1h/ta72cZaxYOe3z6eNEbWSsvOjhWdOczV/rsCKOAs+nsYVgrp9RN/FuJsl8JvmD8dAgUCBQAEocKwgsbohY4EeTGTLEtLQwb5A4jSmxb7nahJ1gVEJrK9LwLyWbnSkMJeTwb1dHyvNW7rZTwIEeCKSsWC4E7s+p0cf06Qg0bdwYHZFaj0fSe5c3TAD/WHik9i7XzUS5NrZSMqXlo2fUCKFHplQGtH8isjG5Df84z/+o5w5c8aUi18GNLN9kvitiz1giIAWR5nwk8mfrkvhXDEFsTBXNu3cRc5mprQuAM0yjOEwYdaJ/tZ+B3pN+mCiqVRa6vMwB9PShQsXMrWFbHvh064C0mytGwwVIIoEw+9j+pHIw3C5aRaQCNCgvXx1ccvbz+/Nzc00KA8+mbzDTvz+8Y9/bDSm1F2/0c7Dee3hyARWGj1rGBMrGF40JoW3Oju+yYzKJLatHbFXx2r1MtE4y0bbNERbZFkLcO6zIuC6brFDP1qMioZBVwGQ7+gL9OCOZ2XIADV4VOcurKcaNf1uGzB8/vOfl3fffdfcQhCg7YTwgHPXn0vL0CPCBrQ3ryPhP0odbD/Sae9Zh7k9XZbudTSIuxo9xqVqEs3cmIuMGaqWBf19/saMdaXn4FailVTT4qFjWkx/wTzPNmPV8jma+5dasnKGPrprkmnnOei5tqfWgf6r9VZwq3l4hw0S9Z2AZ9ai+OVuQKTOM5H4SRLQDJDI+ABUyrPdbSX0PQoSKa+F2vBpK10v+9t9ad9uimwnc579/qNcM/Rb0D77Am398z//c2afpr8jFNFElF2dL5gPAY1uYmz45sTDrr/ue/itY+Egpvm0vQvcfO/gWitmDCXjzm5TX37KtddDU88MdwqCI9luJlhD5QrZ7ja+94VrgQKBAoECUOBYQSLmj7aJFhOh/lZzJnsrBHvBo/Is/2yB4UZH9E2oAAZXM8ACA2OUNakbE8izq1I/l0u3lLC7DZFEoyifmrHyXsqb9ue+66AgsXyzL52bZcMMNDsDqV1rGDrArvU7SXRFzPnq+YLIdttobUtoba1od/otBBy4evWq/jTaLhhSEiAH7ZkmFncfU6D3D3KsboykWclJ8WZ3DCTaJsPVe0Q3xYQ4iW5KcB/82VSTqBJZFQTMqjGygSIMz7REZM8sbSFSc/w63QQotE1T0fApgIO2tuRdn8UkkT40GIwHcyJq6CzmpoBM2pMyeP9hA0dQL/wLVVCgPnFaX8AzdSMR4ZX36jdqHj0abe/SpiycjcY0wfgF42uoWkZliJXxNlYG+QXZHLZMRGOuMx9MG2v2PS3nsCDRDUxjR7UkhH0+yqeBo2i9qNRI+zT10aQ01OivtlZa87hHIufSBzHrhZGlL8LIonkBuBN1+CCJMjATpv9TxyyTP8oGHFXvJhqslcWctDaaqYkcJsE2SCQ/cywBbWQ7ATvQfwH/u85KCvAB9qptZQ7Vc9rXftb+NjSFJnqnRziHryuBv+Lb2ebfdln7OTf1s4AhvrFuX9U8lOuuWQjEcLHIR5HkT+elvxOERH03N2VkNIlGiHKpNQaE9T02oAD41S/UpXqvLavnIkFL2blZ8YLEo1wzlGbMez7N3w9/+EPTl3xb5TAnab9nrqLPad9lTvSNBQ1eY8+JR7H+6nfokXlTxwIBupiL95Noe3eN9z3ffEE/qEi9nJfobPVAmkSC99TPE8U0id5durom+SgnzRtlKVxuyCK+1XcTH+n67ZYszzMedi2EfPUK1wIFAgUCBWwKHBtIVADWrOSNeWSbxZPtGnbMyPYCiT4tgmoVsrQJep/N5VlgYOjKS1UzqXdf9lNmRzULyxstKUSL0nqvOnaPQACNpyNjJsJCr8DEJiznLBiu9M/NMw0k2syA+xw+nXxPoxfLwtyiDNrLKdOlm1ynW2C062LC82dI1lmgbYADkGEhN99gMbYa3dTWMrr1OshvNTWEodJv9kZ/s6Ldsm1BMcoZkKgLbnWplJoru4FKtE05Lr7dSn05bD+PaSARfxmYGZgYX5rFXBDzS8rANHNa2t7eNvlcZmlWkGiXjeaKd9Kevoipdt5p5zZjR70ok6SaS31WTWunfWMLQJivTkQ1pv2reTTBrQnGG73IsNfLNDHX9+815g4LErMC1+j78btcZM++l+vpN2if1jwcAWbTfFjtvHqOBh+hAhFkYZr/7u/+buJP8856/NrXviYLC4lJOsCeds0C+J2XI8mdXzEAx45AqsEymLtdkKjb0ozuJ4GGoL8xe7O2PLJBVeF6V1qXI1GhgatF1O/S9aJ3Y9ecXu8x172u/Wq1rgrY+Gb7nDpoHs5dkIi1Qz4fmSAijactKcyVpP14xax90Mi2kCAy7AIm9Ts+nfoe+lMHV42lNWPhgrCwej82ILHR6RgNL9YkRDe133+UawbfhuUA/cU3J+pa8Q//8A/aLN4jAkrK2GtvWcohn85hKhQ87PprVwqfcdWk61jwfZv9jHtO2+8FErUdG+dzguYXiwmf1ZBtcuozN9V3D0YixastKeVyMnyc+P+qWXH5dE4GD7iGeCekQIFAgUCB/VHg2EAi1WzDLJ6tm6iUlfdaUodB3E4kXXuBRBdEaIAZex8qV+qveQghjYSbYAv6nvUn/TQgik7OvpDs3PvWOzXJX/26MMlXN/rHAhKzwvETxdVepJBQL1ciic7UUwDmdhHM4DAP0oT/XaFQELQdBLPRpNqPaZoGzXuQow0SWdIa9wciTxPTUbZKUdNZygY0tDe6JrQ9zNTmUkkaz5LQ8iPZFKIA2sDQPrdBoh1MYBpIVCbFDsNufyOh3u/cuWNfmjgnkAuMjuur52ZUQHoUIFHL1r0tDxr0BHNaTbaPqsvgsb0G2oVp30hwoWhuMdkA/emuvxlaluqFFRn1dgGWCo303TDR7C/qXtf7MGnTBDOHBYl22crs2XUh0m7u3KoM7iym4MEHEjGps8GYT6Os36RHaA2oO6qkjLCWpyawWeOAObN8EeFMsuG9PmfTwQWJ5MFipH0lESqwL24NEL2j0bDNNsmLCwKCgvzl+pj5sb7LPlKuvWZwzwgfz6zMtCm9Xdas5woAW9siBfphdyVtZ+0HmocybZCmZvUrN/HbZO/OTbPvZOX+MP0OGyTC6NtmtUrnxcUF44vYuFgQiRMNra5jWN4AGgqXm1KYi2RhcTFdD45yzeDbWi20+uNbU9h0xDyUIFzTkvom4vIwLVEO7yLYDX2Gde0o1l99J1YSzOGaFOQSEXo/aRaQSHkDttfdHqR9xzdH2O/1zWsIQss3Nk1fKORy0ntvXHOOJUPpKvfzsliIZPNmTUZDRkhIgQKBAoECs1HgWEEiVdT97VgAeu/sSoXtRU8/xV5w9ZoejeTseldqBHEpV6VaZrPiqsQbiQ+f5kuP1jYJNqhK7+8ExtEgAvZ1ztFkynYSHOU4NInUAf+u2um8yFYCrJWpsKXrbNIcRaVMyTqLM/se2kmDEqgJkN7juvou6rWjPNogkXJhAqunIxkNNw2z5AYNGns3e0buaCkGsimFizubrJ9ONvVWAYHxz2BPS2uPN90snT6YldCeTrtPAAaf2RWMuGpliYBq0w8pta/Mfj8xozxKkKjfBejnnfhfzgJMeA6A7EYpJAAPfkI2Y6WRAbNMcilL++jqBYBAY2xfS60jR2WIlfHWe68DJFZvtqR5fdxaYL8+iVo/c9yZW/Qb8LHDrA5aEfFRNbE2/THpts2Sx8rb+UF+APhRJBcgapmY2tE/7LrpPY7QPx9Vx7awmKZJ5BnGsYJrghU1dvzOuac00i1NCGYWRTsChJ2gVL2XIqOXiQm9XRfM6SM2CLeCGLEViW4ZYec9qnOAFkJG3oMlSu/WogxkZOYb3aYlCySiZWataTxDsLgDEgGC59dSUGuDROrMe4psXfCskdKqe7Mo8dNxU3Tjz3+O+QuKJnqj7qOeMeG317ejWDOUlkQc9c1fep95jy2V3IRptM6JjAkEV5owpb506ZL+TI+6NZNeOKr1l/LceUzfgbZ/2ljQfPZxVpCoz2j/348mEZC88HZHoiiX7oeJBl7HmJatc2W8UZXluz3JzS8aK4DRwwyeSB8Mx0CBQIFAgR0KHDtIRPKO306OTajnojQ4zH5AIqY3mEGtwHwQxGVHm4AZYu50RVpXiyKj8UVVe4DvPXrPXbD1un3k+eMCifUHseROFc1CMXjSlNK7vQkfHjXLAWxpBD3qD6OKJBj/QhZCmEYNioF0F1M41S6SF1McGFSuw0ASvt+XYFYOaurlgkTd/7BQiGZi/BQkJqysCN9eyhXHAmdQ56w2n8bw4KsCA5OVdGsC974yGWgZ33zzzbQMlVT7/AUfP35s/ED/9V//day4g5ibjhVg/QD4KaNmXZ44RbtEHyGvLe0n2IT6IepDCn7oS1kJbVQJTdKzRmpSqNsn2M8o82QDAO4r4+Ne12d17Otv+0gglOXzNZFX7bE+gOn5wlxehjv7pLafioyebsrKo6E0lxaNxJ9y3LKz6qjvNPfPrhoQAx2hIRFOYYqhHXTCx4p+5dtnTsuxj2yVcVBtMGP2/v375r065mkzTZwreMwSIkB/NGi2Cb6G3adNuE/gmuX3V6R1tyG12y2J5hZEzU2hIX7nmD4STKgJKGSbjB3GVf3MWpcJ3AQ7zBYBSeROBUBaX3QiixcaEj/cNbFD8+ZGVNX8elTtZVbgG82XdVRBR/lCXqJcSdpvEVF6MjgWz9uCzert2Gge7XkKoFvCpHTHt9Jdc2zNqPY31To1nosUTpXMtk1Y0Kg/v11v+/1cP8yaYZfLOdYF0+ZEwGCjsWspoM9r32P9YU5EcEJiLtRov5pXj5Rjg0m9ftD19yjGgtbBPtK/bVBu3/Oda5vuByRSDttkjp4mghN6HoIG7Rf6Ht9cGb+g99ODQwoUCBQIFNibAscKEgnMljvfMNoiAEz5DhqUvHSuJSG9WUzcP3sCxqwGc4vcXEHa14rpQm0zc92hSOFiwwDQtWuLMnq6Gy0O8mQBBu65C7aPnLpIDbdaqU+g+j5m+UaOhrHErxKfwpUOmyUvjAVyICgLgRc61xcmyqRs9TmkPqNtkcrdhG4EQ+i/j1Q2Ya40AmFjKS9RaUVqhUgkTvZaUoaQbRgAAfwBXEgwtAoY+Y2GDObR/rOZS/PQzj+0BrZZqH1vr3MXJJK/9gBaJJq/5tWiV6Og5drMl14DlBiA/IrWTFJWm9PXshLh193N4e28mEPZAX70HjRDe4gJL4kQ79qnuedLAE6ClLiJ52YJXOM+d9Df9AnMIgE3MG82fbj23e9+1xTNdyBA4Jr9h/bMTuoHPLQ0P2iWVgkM5UShtAGWXYaP8bHv22Pfvs45jixA4wAAIABJREFUvmpr52njeGLcLz8YSv9OEvlX/eLUny7Z5HpoQKK9LYutQXPfxW9MEm3TWAAeQhY09JjswvRi1s2+kvtJaBwxEadPwWTrH+2VNS4pH+EOGhl7HNvCHr2OBkXnBFej6JsTldG1QWL5TsOAl9J8Qbq3oetQAOl5AGG7Lgvv7gYdwmxQtvtS24jNXF5ZKiW+eN0E/NEeaq46jU4ArjyAawfsZ+VlBcD/XbWXWfl815lZEcYZQdiwKeoPbb5hNGnK54I0yrTnKUwGO/eYk5M520ffzcexSNxLNYkKBmD1Ww97xqx+2OOrkjLsevvef9A1wy5Xo2BPmxPxc3cFSZShQbXUCgGBBH+UZfdH+30Ex/LNlwddfw87FnT91rVej6z5K2cJsNbxrt3kIyaCJh072qZ63T1Om9eMkAtts7UfKc/vNVe67wi/AwUCBQIFXAocG0hsPh+Z/Zxs4ELlljdiGT5YNkycO9kuXO8YKd1I+lJ6h83icybyKA76dvJNqGudWHLndsJN74RY5xkXMCCVi3sDM8GvdomgOe5/Y79Hn0eTqEyRbdaYdf61awXjrK5gYb9HBcrdFyNZvNZM/VOqt5sS5YrGdGmlQwTCkqyXCQzUl038Pws1KeUiA0jd7ziK38rYH4T54v0KEmFimt2B5N6oG3Dfu12WtQ6/k/ZjX8iVKxUT1S3uYmqbMEc286Xfw3I8ehmLvZF0/lLDq22wQZA+z5GFnXtsA5GV8JXBBHNanqxn3ev4hCFldxN1+CBBovv+w/xeI5pfVJrYIsIukwjE6g9crNRMpD55lGwWrvlsxof29m2n4I4nxmdne9NElVSNFr5xaDQHj3ajbNLOjUc9E3VQo6yija4SFTBu7QkSmz3qX5fW7RVBu5Y/vyxltKbx7lYH+h1HccR3FcAIMNS/oyh3WhlKf5fG/LZBomrz7bIwt9RopSgSoTcCLwJXFa+1TXtrtE+EO8VcJI3b9bQ9mB98753lms2EEym3ApjcmtzX0q6ve45QcuFKy2xir1pn8uhWBo03ImFtaj1K/KGbGy2JSssTc41vnmJ+6my0pP6gk7nmKKBwtzfIWme4Hp0a91E/qjVD99OdNt8R2AbhEQKRwyQ1Y/cJQBQk7mf9bV8rHKY6KVifpd/58th9UdvUvkbl4ENaG10jAGjQj05X0qi/WnkNWIPZqc8aQ8dqltWFlhOOgQKBAoECWRQ4NpBYvhPLGo73HukrlfXtccdCSmRRQAG+jHEXye2k9NQHEpUAw1fk333GBYkqZWZyz0WRrFdYUJjK/UkXKR9T5H/i8FepfW4JDWokjaWijJ7vgpd4JLLei01gENcMCq0qZrn9d/GHOfpE6PkK21Lsk/nSmihILN3qSyEXSfPaopGg632O3ZcjWb7ZksL5ikS5vLSv5NP29DFf+mzlbmw0GzBOlXMFGT72m0Fpfo5ItukHmOip1Nu+756jldWtQ9x7s/4mKBBSc1+iLrOARNUIzXL0ved1Xes9weR7V4ruvmcd87n58oQGys5nMz4IE+J4mCmxB4TwN0R6z5zxlJHDeVKLxRttKcwX035B3yjOF6RFv9ueNE/HH81mMMmB76v6otn1p6zqefrZml39n/tz6O/6aSujuxdIXLjelaxopfVb/TQyo7ZP5WZXolxB6vNsDL9p/MC1Tfd7tLU3mK/u19qBnkOwlHIhklFvsk1xeZAdK5XizZ7xF2O8LhZyMuqOb03im6fqD+n7BfPXvkYAEv84ydJgZdHDFqwexZqB7zXfhRBrmqmpdnTmQzv4mV7fz5Hn1RLDfe441l/qsN92sNvH7os6dlyQyPXChbW0TyyfL4gMx7evMIKUUzmJHy67ZDG/7bnSmyFcDBQIFAgU2IMCxwYS96jXoW7j74JJ5y9yGsG1bPPPn0Zb2fdkJ7CG/8mDX4VpH73yMzezlGqCEagpzmuq47R6wPzYCYYIsyRModhuYK+k0SE1TPte+X33qQNbHPgS92YBifiPYi7MNhS+bRLsa773nORr9GqAIf5sIf2cUeAYxrSPQmPzjC9DxjXmt2lzbsZjE5cpZ0gftoSVE5lew4WjWDMwnSfgFmbzvj0Q3Wo/efLEgMqDzomYnzLv7bVFhvveX5rfJ2RM/dLQO3xooMAvGQV+IUHiL1kbhs89Igq4IJGgIsVi0esLk/VKABjbQBwkES0Qf52sxF6Ms4DErOfD9UCBQIFAgcNQgH1R2Xt1P9sgIfQ66JyIv60v+M1hviE8GygQKBAoECgwGwUCSJyNTiHXLwEF7t27Jz/96U8P/aUwUrNI2d0XuSDVvU+o9uEwaNBcuoTfgQKBAiebAlhk7Nc3EX9bBGchBQoECgQKBAocDwUCSDweuoe3BgoECgQKBAoECgQKBAoECgQKBAoECpxICgSQeCKbJVQqUCBQIFAgUCBQIFAgUCBQIFAgUCBQ4HgoEEDi8dA9vDVQIFAgUCBQIFAgUCBQIFAgUCBQIFDgRFIggMQT2SyhUoECgQKBAoECgQKBAoECgQKBAoECgQLHQ4EAEo+H7uGtgQKBAoECgQKBAoECgQKBAoECgQKBAieSAgEknshmCZUKFAgUCBQIFAgUCBQIFAgUCBQIFAgUOB4KBJB4PHQPbw0UCBQIFAgUCBQIFAgUCBQIFAgUCBQ4kRQIIPFENkuoVKBAoECgQKBAoECgQKBAoECgQKBAoMDxUCCAxOOhe3hroECgQKBAoECgQKBAoECgQKBAoECgwImkQACJJ7JZQqUCBQIFAgUCBQIFAgUCBQIFAgUCBQIFjocCASQeD93DWwMFAgUCBQIFAgUCBQIFAgUCBQIFAgVOJAUCSDyRzRIqFSgQKBAoECgQKBAoECgQKBAoECgQKHA8FAgg8XjoHt4aKBAoECgQKBAoECgQKBAoECgQKBAocCIpEEDiiWyWUKlAgUCBk0iBn/70pyexWmmdfvKTn6Tn4SRQIFAgUCBQIFAgUCBQ4KAUOHaQOBKROB6KjIYH/YYP5LnhSGT0Kn4t74IGMjL/D10+pfS6scj24NBl7aeA+BUEmmzDGMJtTV7fT9kfdN5423TKidfyFaOXs/WB3kuR4fMuT0yUM8sFnhq+oB0P9vws7/h5zTPcEi9duD4a7t0+I9r3gOPt7NmzM5Ot26X9/elTn/qUfOUrX/HfnHI1iqIpd0U+/elPy89+9rOpecLNg1GAeWH04oObV7P680HXok6nk/nhp0+flsePH2fe99343ve+J3v1R/u5mPH56oOjn/3ucB4oECgQKBAosH8KHDtIbDwXWYhKIk9X9137nojUrqxL7Uptpr/1KzUg1L7fwwPVByKNczBo/fR5FvE4jvf15wNMK12RclQQebWelm2fAMB4T7s7kO5GCwRj3x475050YV36N4tj14/6B9CleX8gMmwbikTnGiIPquY1K3e6Ii+op0h0uSXd64Wjfv1rLa/03kCqpyOR4ebYe6obQynN5UWer41d9/1YuNGb6C++fFnXWlsi0VxFRvcrWVl+Ka/T76JK09u/izf7srk0HURBtOK7fakXIpFRR2rv96bOHfJkfEzOwhT/6Ec/knPnzskbb7zhZaL/4i/+Qr71rW8dqP2++93vesvUwqjfcYHEpaUl+ZM/+ZP07+HDh1ot79HOOwtdvYU4F7svRVobLe9f3E3mJPuRxjORYlQUedawLwvCre7zWJobbeneTe5V7o+kno9Etttjed0f7Zh1aXVqv9I1K344vu61no9k2G6aIu3+vN4VGWysmOvVDZGVefp5thDCrtM//dM/mb74u7/7u/LHf/zH9i1z/gd/8Ady9+7dieuzXPjbv/1b09dnyQv9KnORyNZkO8zy/FHkiZY2DzUv76cO60/oB7PxJuQ7DH+yn3qFvIECgQKBArNS4NhBYu2hSBXp+Pb4wpG12Pfb5Eu0K7DwUVSV2oWFsck4OrMoi2eisWsLF2rJeyRh/LMm8PY7AMlJEOYDiSziMDf7+fOBt/zVtrQuRbL8aCSF+QUpzBckOlWYKDcXRVKdz4u8SpiIwrW2yUt++49nc3PR2DW9376WADal3X7qTt4ibfWsIWjV8iy4pUj60hcFidUHO0DqWUOQW+fzdZFH9an98a/+6q/Sb/3MZz4jtRptkJ0uXrw4lv/b3/52duYD3NFva1Zy6PNMCZtDkeh0VeI7ixMlukxh9UpNotMlqZzLjfVBH8MAYxBLT1ob3THGdvF6S0pRJK37y2PXXQZ4L6HBRGVPwAXaq/TpT0s+n0/bkb6lye6TMK9//ud/rrekuQVTX5Hhk9UJ4czC9Y40L0UT123tIgKZhWhBpJsw3DCNa5cLEzRe22hJNF9NBR9aAbuees09rq2tyeLiomG8yf/ixYs0y8bGhvzpn/5p+vsgJ2ggAWS+xPuOCyRSn29+85uCViqXy8nbb7/tq6K5xhgGJH784x+XXu9ggjtf4czTvrmPOVEFCMz9Os/bILHxVCQ6VUr7ZOFUJKX5grTerkgsA4nOr3mFE2493PnAN+7zpap5z+BWaexxe/5UkKhzT38nb/6tjnTeyo89N+3He++9Z/oc9Hb7I/f+7M/+bNrje95jfL711ltj+Xzrd3RhRZbPRxNjzZ3TXDB/mPlirFLwC/sAiftd33Vt1HfSF6vzfO9a+s06r7hzTvW9llQRFO/wJ1pGOAYKBAoEChwnBY4dJJZuDQzQEBk3Q/Et9iz0tjZPgY5qsJSQLATKEOg1M2EbRjQbJOZLlbHy9VmOPG+/277nnrO4zJoXjVF+riLSrkt/Cyl42ywo3YctWekMEoa2Ny5t1vch7UbDWL03kGIuL4P2ygSDXH84kHy0IIP7VXNPGWZgNma+Pk1oM44liirSub4wcX8Y75pAdrZFGkur0t/qGpA4eFCV4sWmDFWj2BWpRAWJX6yPlaN10O/QI0zMm2++KdNM+q5cuSKrq6uG2dHnjuq4+jBOQV25UpPal8rp7/z5qhRzCB4q5toqWuk40Si4TGFhsSYLEXkX0+d9jKJKj9vSk8L8cgrq8wgJopwUTufSawry3ePyPIzFdM3GUdHnqMsBUMC0Li8vjxX95MkTYzaJOZub0EasnY+keLNtnuX5vf50Lmi+AOhXpH9zlzFnrvD18w5j4OzKgUAi2pobN27I06dPBU2LnbjnXrPvz3I+HA4NuPKZs0KLWUDiUQtWtN588xe/+EX5wz/8Q6lU/FrwBw8emDZDg1WtJtYH+vxhj1nztAIuyrfz2CBR58Teq1iic6tjbV9vI5AcF2rY/U772F7133w+ksLFFSmeysngPsKzROBpP1d9pyOjbkO0zuW7A9lcwjJkaHSH0fyKDN6vjM2pZl72lEW5mCAjWEB77fa98+fPy7Nnz+zX7/scjTG0+P73v58+u9yWsbkrd7ogCDkL8/mx6+58xm8VZKaF7ZxMmy/m5+fFN1+4ZewHJPoshVY6sVmT487kWmuvjbzX7mdaD+yQEKi6wmL6YRWNdgCJSqpwDBQIFDgBFDg2kMhkbS+yeq7SON8E64IvBYkuMx3l8pLPjWvSWKSMxtKahF23pML1rgGX5TuDiYXMLHI72rn1izDm46DWbku3nvY99xyzxCzTIZuBcZ9rdeNUOokkNndhRWrnkFqup9eX77YkmitJozKuKXEltW7ZSld3IbPz2YCqguYsXxrT6GKmh4YUabwyAoB82sXHBGxtbcknPvEJw8zQF3wJjQP3Pve5zwlMwVEn2s2V/LpSbn4j9S0i9XVM1KgPekfMIdtXZ5f0u99RfTCSUpQXeblr1oof0jRG0C3jdf9++fKlYTjRAvO3vr4u+w2aMhqN5I/+6I8EsPD8+XNTZfrB7du3vdU3ptTn1yS+vQvy7IzKVNvX9HwdLdHpsrTfWkhaCb/EHc2C3Ue1r3KM5nJjQMHkz+ibSWkiP/jBD0wfvXfvnl5Kj2hF6b/Q7rDp8uXLXp9Gyt8LJALk0Gai7TwsQHC/g76AJhUwDDjxJeqoZrMH8cv0lanX7HXDPrf7hn3dN8cqI6/CR/3dfac4BsyMCwDChNN16d2gX4m0n44Ea5ceArwnuz6AlFFcaklhLiedm2WR7Vjil7ERDLY32iJbfXGFTQgtbYuY3vs1Aazm5naBVq6QgK9lLEw8wiLtj81mYn2idOJIf8xqIzvfLOef/OQnvf2RZ4HBWJ0g3LGtdBByZgkMfe/c73zhK2M/INH3/OpTwNzChOWTLy/9rJTfFSwiFNS1slLKjwkQS5ewdKINEyG2r7xwLVAgUCBQ4IOmwLGBRBaI9s4CO7hdNovv2rNYitGiYb7thVyJ4oIvBTPx3XGpanSpOWF2Vrkbj4HEzS2RhVw1NTtjIYO5x/yHhd4FB4tvt1IAYZu8at3so1tP+5593sSEcS5be+ljYPT5vXypsjRXXIfZ0ARjsnplNdWKcV3pOg0k2jRaWFozzG/r2mJKt2ava75teLesrxLMpLIk7l//+tcFxvf99983ZeFH46ZTp06ZfgKTidbxqNOs7TatXTBnLEYL0n7WGNMO2uBDz31awP42kubVCXMyxoMr5Djq75+lPMAg9P/93/99o/VtNBqCyRrgAPCx38RzlPc3f/M35lH8+LLMD1d6CW0B5wDG2jvtMUbLZarp62pWWL4TS/utRBuzeCfeEcz0jPmZr58rMFCgoN9FXbMSDDmaGvKgqeO3ndCYlkp+gEs+QAfBRV69emUe4/d3vvMdATi76Rvf+IbX5JR37wUStSzGHPnRJgHajiJhLo5GBy0i4N9NgEdME//6r//avPtbDw7mm+mWq7/tdcM+nwUkqguCMvLqxlC6vCx1fJS3E9AH0NA+g0Cngp/ycNePECuS+sOORHMLiVBiOzZz6kJUNb73rDXl2z0pRHlZuV1PfSJtS5Lq7ZZE0YIsL2JynvhY9rots0Y1y/TBxAy+/oh5wQ8uHj16NNYfbbNn6IVZ//Xr15V0E0eEGYxFjejLnJylrbt27Zq3P1IowCqPlsxxO4COWevBRGV2LvjmC3ecZT3Ldd6ZJQhs4++/xcjPTvSpGn6VHkDuPmXm7GBu6pIl/A4UCBT4OaLAsYFEaLQew/QloJDfqZRONr2mGi4Tr2BmgpHzLD5mwrbMTXlf6VY/Xfxd/7k4ZinnL0k2w6HXso5uPX35KDl/JTGZyzJNnQZGtMz9gEU3SAJl+N6hdFVGSN/lHmFTSje6UirkJJovGT+k1hWkrAMDCGFA++8mEnaeJYhNVpn4xXz1q1+Vv//7vzfMo7vwE+yjWCyaCHyUC7Nw1GmWduOdPppx3QCLUkM2l/ISC4KGcT9DFTwoA7hC8BQn+AR90gR32GE69Rt9/Vfv6RFwAWhDawBgQ7OH7xog7igSZcH8q9bvKMqknrQn4AJglWUGqRpatTRQEKeMPIDQBYn4Iadja0dz2BriJ1uV4UZi5gjTeBSaRPrjZz/7WaPl/tjHPmaCeeCXZ38PtMvy/6J/Qwfy46uppnVf/vKXjcbPpTWmfT4t0Be+8IWZQaKWCUDn3fztFWxGn/EdMYP9vd/7PXMLPzXKs5OOba5RT/LuV/tsl+c7t+dp+3wWkKh+dA38UU9XpPV2IvRavt2W4YNdk2gbJDYexdK9s3vPnkOMeXOhKitnI9kcdaUYVSVGeHS5JaVcJMPHK965ZOXxUAqnSlIoMadGUjubM4HAAISYvK6eha4JmCGITdrHLYJ86UtfStsUgRom/PRH+pUmLDfQ+vrSX/7lX5rnaUcEN+Rj/CPI8/mact/XH3VObFaocwJs9X0HAYnMPfSrveYLfYd75J3a192jzi08o64crjtG8Z2uac847kxolTWvRvm2+5/WQ+ctdx1kTQnmpkqlcAwUCBQ4KRQ4VpDoRmmr3Bul/om+CdZegCGgghl3ss/67WpidAFrX8nLSnck1bmCyPamrL/AT3BRRg93NW5ufaYtNlnv1+tIT2sPR1KM8rJwuWoW+ZH0J3wEs/wf7K04qIfrBK9gxD5Gi8tegOYDPEpX1yTG1kIShS93ri4r53PSHyY+ib37VcmX16R2NpLypWUpXa1LwhyMUl8a2WHO3QEAwwIwxPwNOrXbu352gB+ukW7dumXObebbLeugv93+lVWOj2bkBeDhizgtUi9tGuVK0rxMXxs3WTaBM+ZKXnNK+p/bf+36Kd3QDKBlgrGDMfy7v/u7CXraz816fv/+fWMOPGv+/eTTgBrT2hQGuZjPS3E+iUSpzJYtILKBAO93x6wCTVsTg5DFJzxRTaUb3RQTzWnpwoULmdpCtr3wCTcw+7O1btADnz4SZnz8uQmtEEy/mw4CErWMVgvtVQIWbTCh9/c6bm5upkF58MnUMavP8fvHP/6xYa6pO3U96mS3uVlPdiJS233DzuMby2is0eLFd6rGLJQ60t96Gx3zmzkXJr/7ciT9R+MB19w5pDcS6W+0zFoFSEQLvna3n1pu2O8fjESKVwGQOQMgKau1FBmt48JcXirXalK/WpYK0cC3doKXXe9K6/I4GLdpCpjyBTn653/+Z9M+ro8izzIOsdrQRJApbSv6InOLmyjH1x9LN/smAJdtOq/PQsf9ahJ5ljFIX5o2X+g73CPv9IFqXz4dC/s96pxEP/MGUZrLTQimMBueNr+79Qu/AwUCBQIFPggKHCtIdKO0MYFr1DZ7IVdCTCzAO1tguIycb/HBlMgXYhrGPD9XkvzZhbEFa+F6N9Uy8n63Pq5PoA3ICpfXMk1ayPcCsyG0au8WTXACFq1NIoRGScS7vRYle5HjW48DJJZv9lPfmmZnILVrDaEdYMT7nSQ0O6aX9TxgqG20xiW0xs/HQ81D23/8x3+UM2fOmGbG74Tvt/3S+K0Sb7Qxr8MfkZfTv/aivd63pc48qwDPvW4+auffwjs9E/xmsDEZ7VUjGFI+TAb9Td+VdbTfhZ+mMvZomXgGQAIjxbmPGdyPeSjM5kG3bbBp4DvHVI06ZgUxQeueYyuVexUpstXKs0a67Yptah5dHjczx8TcHiswrLxHGVPbrxYBSNafPb9Ah2mJyJ5Z2kIEIZh4uglQaGvO8dOs15M+AoDUdrWf+5d/+RfzLYPBuKCBqKGzmpva5dnnvE8jz/rebee1z/Ev1HGqZsl6H/BM3UhEeNX+qfeP6mjP04xnFVJxru1u57FBmtaBdYn65U/nZb2cF9nuG19AY1a61UpNlH1bOrhrFMBv8WpLmg8xK61KY2NVGgT0iRPTVfv9zCGNi2Vzr/NCZPlmM3UN6Dwemnows+bnV0ygM+Oje2HduEho3d0jfc6n+fvhD39ovtGnOaY/qsk3wghoQbAwEv3RB840eI3dH4nUiuZTwQ9rFWVN+7PHq/st+pt5gjJ0jOj1WY7UYZZ3+Mpq4wqQr8vonj8gk/sMwXvq54kHkEQ3LV1dk3yUk+aNshQuN2TxVCStuyvGRaN+uyXL85ii7wpH3fLC70CBQIFAgQ+aAscGEgl6Hp1dlWaFRXggOgHbUjh3MrcXYF/kMTX38Pkk6j2O7l6F7JtG5DWxNIf4LEb5qgFyNIrNWOzVSHY9s/L2cN/a7qcgUc2H7Pw2A2Fft89fJ0h0TWLs96o5TqMXy8Lcogzay6n5jWo6UxPedl1Kt2NZOYPEezLcPeDj6tWrafEwqJjfkWBKMN/ThITbJxnX+4c5ErDIDUq02YlFhuP7ka0/FynPl0WeJ3voKcCrLuWlGJWNSZnP1BRtrgvo8YPp/6QvUakh+dMwUPmJYCl8E/1PmS3fN8I0aVIGXRk9l6kDPMK028/os1lHNFsEO9G/S5cumSiWmJ/BtNEmMJ77Te+++66JBAr4oj5ZPk8M274MU5AINCpcXE+DIplAM7n8mISeYFM6h1TuDcwel2juFSzYfrW2kIdzu63k5W77TwOJ+GzxDfRZX6Lv2hpyXx7MLykDbfC0tL29bfK5bXsUIJH3YrJMPXzaoax62eBChRPk5ZspS5Oa1mJ+etTJnqdtYGif23ncORY/caJNR/m89DeqZlyyz6tuU4QLAnMuc6NZw86spEFr+Bad++PtvlRvdyTKFaVxsSCtlx0DEjudVcmXG7IwF8ngfk0az7AoSbTjBKdiferhq3+hIe1rRJcemGt25ExALIGx1l7u7DHcS7ZzcWmJ1jarPzI3cO8f/uEf3MfGfjM3k28vARHlkE8j7qrQDKCdNW9BRx2LYy+d8oN1Ap9WxiFzEsKS/aTDgERbKMD2U74AbL66uBpi8iBMxVWjfDongwe0365ri6+McC1QIFAgUOA4KHBsIJGPbRO45Wxd6mcjqbzXGtuo2F7IlTC6AMMu+iKQakRCFiv+3AinGjBkcGc3mAplq+QYXzLbb6L6fizt65iXxUcOEn3fpNf06DIwet0+HhdIZJH0bdVgM+bUE+ZquRJJdKbuNXclD1JqW8OCJgWGk0Q7alLGxtYy6r3DHjEn69ztiIwGaYTCoYxMVL4aQSu2diW83aFI+za+PImPjdEAnC/JJqA/qkrvWUNqV9YnNFPs3+ma8LKVRr31LSnl8tJ62jDaZBWU2N+0F0i08yJhnxYgRfPatNVrWUeAIIy//QeTj4khJq0wiftl2AjSwpYnJIAr9fGZY2qdaCPVJHIN5qt5s2WELYBGgLYt5cfHTINMlW70zNYsChbsICEuQHRBopbBO6eBRGWU7a0AtO4cCRBz584d+9LEOYFcoAP+fdOSAtKjBonqn3ju3Dnj/zutDu49zGk12SbifI8NMigbDddR+yPybnvdwFoDgEfSdnfzuHMsa0FjKS/RuWT7k3go0hrG6TZFPK8gkfPKveHYBvG8h4ik0fyilAuRxJ3EcgITfjU3BQ5U7w4kmivI4oWCCXSFdly3jXCjczPPFqNcGk2ZCKdoNReuLqdCEOriJjUfzuqPCAD2EkaobyLWHtMS5dDOBLsx/vZX29I4n5PqRv95ymrKAAAOjUlEQVTIQCLzhVob6HyRJZDJqutBQWIXLeKZlTRqNeXsBXCZY8o3Nk07F3I56b03HrSKOat0lft5WSxEsnmzJqPhpBA161vC9UCBQIFAgddNgWMFiXzcYFskfymRWvfe2Q1yYi/2SgQbJOo1PRrJ3PWu1AiiUq5KtRxJoVCVeGPXr1Dz2kdMItlHcPV23URg0z3+7Dyc++rj5tHf0+qpefQ4La/LwOgz9tEFiesbLalfrkvr/u4Gvsr0+jSDvneoT6Ivv/1u/Cprp/MpgKINiBCr4eDJi7Q7ikpjjJRdBuef//znBR8ZTQQAKRQKZlsFgtloUg1ZlrZJ8x3kSD9gT0d8few2MdFGd4LRGFC4LaKaQ3u/PeG6xQj66mAzl/Z9I0MeDlMf28OCRHyGbLCVZTIIUzdrYn9KIlIeVfra1742FuhCTWSngTAXJLJPJ9sPINxpbg2lEFXSaMUT9dwJXEPbwtyhDS7Ml42go3A6P6aRdLWStnZ5Gs0QXky7TxAQn+kfbaVCESKgquk13wAT7Cuz309MZ48KJKLR5T1omPdjhqx0BiC7kTKxCMDMGXCsSQOPZJnkar6DHgFatFd7e2BMAxsX8iKjnhEqqubHnsvt+Y/AaWj1+s8aZi87HYdYQdTzRDdNBEX2OFYLGJ0rde7oP++m/ox8S3OLsisp0ONapzeSxmMC2iSaRK612Tf3dG3MHx4galth6FYwtNfofrbpo5pxZ9GSPkc0aTfhT6r9kbbDxF8T0WmxInCTRqXW61j6yPZwqgXELEBLy8OM2e5HKjAsl8cFvpo/68g71bogK4/vOqbqi0Q1fZlYj/jqzjy+cqsjP3nalIW3MVnOSf2NnIyet0S317LL1nU23qjK8t2e5OYXJU+bWhZNdv5wHigQKBAo8EFT4NhBojLhRHErYIJzL4k6aC/kShRdgF3TTCwCc+dXZKUUGdNAncCJLpcjSt3VotEQaTl6VGafwDWYe+CHWEVrNGT6Hk+++ozn2P2VVc/dHLtn0/LaDMzuE7tnizd70rtdTv2zYGqUnupLA0PRfdCV/iiWSmXdBETYLcEfqVMXL2V87Pz2ef1BLLlTRbMQDp40pfRub8yPk7xqdpRFVyTU+NPZSSPzqR+M3uO6zUDrdftIsAoTHXRrPKCEncd3bpuTuW2y+Qw+Mykvd6UtnWt5E3goH+WNdkrLOyhItJ/HL1WZU73Okf6XZbaF3xAMFGAD0ADzaAPDj3/842M+b1quD3zoPfdIeWh/jiIBHHx+pZiRuXW33+eCRO7p/of5QmGMkbafs89pW1sDULzVl0YpZ7SRdj7mEF//n0YzTOFgorMSQZdshlvz6TejZUSzqmUoI+zby/Dx48fGDPtf//VftRhz3K+5KcCWKKO81/YnGyt0jx8AfMyNARa2xomAJ+qHqEVo/7SFGHrPPh50HGsZAKvFfCS582VjqSLxriWA5uFoz7EItLrXq2PzqWqQ7L053b7BXrcKIu25A01R7jxb4RSEPWLtbTS0Dvb7ubb5UiT3Rl2Kp3LSu1uX1ScD4zNvbx+hczyAIkuoSVlodrUv6fvsI2CQaMhuoj/SPmgi6RdslUGiHxIMy5cox9e3p81buk77yrOvuYIGvYfFhI4dvbbXkXfuFySqb2V8Zzdola/uzE/RuUZiijwUGT1NzNQV1Lvzia6z9nwfvwBqTrci2Osbw/1AgUCBQIGjosCxgkQiv7GIKoAo30E6npfOtQVh/ykWAPfPnuAxN8OcIzdXkPa1Yiq5tSdwTAMLFxsGgK5dW5TR0yRggC60DYDlNtO7CJqJQqEuSPbclBVq3M3Hb5tR8N23r03L6zIQ9nNIsPP5uglgoIuTLjZ82/JSQ2TYNhLsBSTYT1eNaVQJaejThsSvRsbXxRdBtYlPTFSRznV8YuKJP/U5pD6jbZHK3aTdYFr67yN1NrqxlIE35lulFamx5UOcgC2YRZgQmEtlStjXi4SJE+aSql0kL6ZGgBSuA1iytB2Yi2mwCpte087VD0naSbCQ0q2Bl5FQOqtJI9LlOt+0lfSpowKJo43qRKRbgrBUokjiuDnWHvgqff/7XcOgs4E7jDqMOUweNEKr6NtIG3pA9/0kTBFhBA+yBQZ1IUIq9eK9aNVoV02c6z2iF2J+rO2veaC/bW7K9ZgxeyUJiFE8FUn3bl1kBFvmTy5I1HnANTVnDnGZOkqcRjO2AJi2OTwmebZ/rdaQ70b4gQadhJ8n7+GPe74E4MQ/1E08M0vgGsqlnwDMCRZ10MT4pY/R7wAQNn24pvsv8j7GL9fsP3fvPq3HQcaxPrvaG0k0V5LhvUpqqcKWE6PeJCDyzbE6zplPmd+a9/vpGOcdbt/ArDl+wuifnPvbvaEJTNIjCupokvn3vZ9ymk9HZhsO6LmO3/6IWokRAubL62bNLF1P1jWftYwGAJvWHxljLojnHQg7eK9q7hiP/FFW1ryLBtrXVxUkDrdaY/MW60pW7IDRMDbvsecLyp42X9hCMb5B1zd3/eKdbEkydQuLrd12wpcZnqR7HVPR3es2j2EaZmczo4igQg7/AMhcwNfc8R31gUQtKxwDBQIFAgVOAgWODSQ2n48kKlTHgAMEWd6IzZ5ULC7uZL5wvWOYd7aLKL3DZu05qZ9LzDlsYvom8LVOLLlzSVS0/q2S5K62U3BqP6vnsJm6WXf1Sk2iwqKsX4CpnmRA8SKoXW2mPmjR2XK6lYeWl3W0QSL1ZnHe6w/m1WwIvhMIRv2xmpfyEse9dDHuPo+ldG3H11M6Zokr4EtxsyTRuYRZ3+tdvvsK1LsvRrJ4rWl8LgjOUL3dNIEaCKqw0sHnppRGBzRa20LN7A8Wd1bMgs/Czz5wMJr8oTkhoZlQwMhvTPTIa//ZDIPS1jB3Z1fH/NL03rTjem8ka0sIBhJGbPkxJsh5WbtWMgwe5rrNjZYUlxqyOJdLTY4AKDLc7Q8+kNh7noDsLkzRuVUv8NC6KdOwfqtqTCHVh3bacXken6u22YweAA3wxh8MMIe2zmdOpu+jbfebiMKJeTCABi2D/tF+dpu55cLEUZesNkQwwD1Ai/YHftuJ1lGQONgSqd/tSnSqaHy/Bk/WkkAhp4om7HzlfEHWbtSEwEAjK/CMCxIpH7+z0SiWVrtv2lv3ybM1B1qPLJoZppfIqZsJWND89hF/LUwwp+Wx8087xyyXtnYT9dsLJALMXNq65Rzn74OOY6Bu7T7zzs4m9jtMPeM0v9SS4o6ArPOMPUyTDepL15qyyDiIEzNCvtu8nyi6D3aFherDuvmoI9G5bP9q+pdv24OsMczWB3aUYvr1Mv26kPg0rt1tmHULLWTnRVui0oqUsXZ5mkSSRkBC0LXOjVIqJOUbdEucaX2NwDYAd+aLwyQ1IfbNyQoSy3cSjWoWHezrmAX75gsboOo8gjZR5wsFitp+vrVrlmusr1gnIVyGtr2bAMRxQQomyAQfql0pp+v+wsVasgXSDhjUgDWYnY65JuwQW+d7u58dph3Cs4ECgQKBAkdNgWMDieU7saxdLBh/Ed9HsWVF+x3MXHaZcKIRahAJfBnjLqBifPKmLB9I1HcMX5F/JD2Egi+mO4kTnEUXr+ULRbOhsZZjHwFpdqTF6vmCDB/7Nym2n+PcBokaMdSVfrq/ic4aj0RGL1gOk9R8KlI4D7gojP3tpy5a1l5HKJhbQoMbSWOpKKPnu4wx9VrvxRLNLUr7rYUxxgWtLmbBbP3xOhJ+PxW0pjt7iB3mHY2HA6ldWU4ZALZHWLlSM/4lWeVCBQ1OoXk0KBLMSWWe4BO7zKjm0eMHzTRQp4MmAqcAGGEM9W+/gWv2+256OyDR+IyVGrI4j0ne8lgfo2+yPU3lWkPy8yUTct728fGBROrBLFO41EzHTqNSnIhqSz6XZmhXuIbWQzUv074LoYhG7p2Wb9o9fHLR3PgSddkLJPqeO0nXDjqO6+2RFObyxgTfXRcAiv3OzrYT7IOYK5p2K6B9fhczwt11REGGzbxjuVGYr5v+sXy+YKw0fDSbFnXbncf5jSVHMVowvorVb2I9k5PqG0S8ROuZ1In/vZexRIvrE6azLGNEyVw9l5hMo6GnDyBAmGZqqnWnL9p+33p9P0eeVy24+5yCxMRj2737+n5naRJ9beBeY30l4jmBh4aPJ7XP1Jr+tHy7M7E+xE+S/SvJg6UJZsPxw2Xvh37Q8723EuFioECgQKDAFAocG0icUqdD3wJsYbLy85BgKmzzzZ+HOlNHY6G2vctYufUebWXfI8jL60iYho1e7ZoEvY53/CKUifkp/m8wkxyzzFFP4rcaIQ/97jX1ob2+GZrZCaYcDQbmeER53StpgB7dKmCv/L771OHBgwe+W6ZNf95B4qHG8SFMZ22CAjJ85qF2nqM+NzPmlHlz6py7Mx4wWybYESbLvj0Q3To/efLE9JmD9ke0e/RHO3qt+46fx9/0wf+/vTvaQRAEwwD6/he+sDe176KtsWZIY/rT8aY1NeDQqk8JHgffb91tuuhzqrt+DiRAgMCBwJIh8aC9dhH4e4FMBPEarpXHSiHx6s5rQ2Ime9m27dTwzYTJLAMxsmXGyvc1RdvXyFqM1UNi2ybP+wWyJmVmqj0zA3QuOIy+HzPc/NPkN/01diQBAgQI3FVASLxrz6gXAQK3E8jkQPu+/1yv/JjvudPTFtSG1HZ/LgB8W2OxPcdzArkbfva/iRlunosWNgIECBBYU0BIXLNftYoAAQIECBAgQIAAAQJDAkLiEJuTCBAgQIAAAQIECBAgsKaAkLhmv2oVAQIECBAgQIAAAQIEhgROhcShEpxEgAABAgQIECBAgAABAmUEhMQyXaWiBAgQIECAAAECBAgQmC8gJM43VgIBAgQIECBAgAABAgTKCAiJZbpKRQkQIECAAAECBAgQIDBfQEicb6wEAgQIECBAgAABAgQIlBEQEst0lYoSIECAAAECBAgQIEBgvsATCjWevCmx57YAAAAASUVORK5CYII=;" vertex="1" parent="1">
                    <mxGeometry x="610.97" y="-599" width="707.82" height="140" as="geometry"/>
                </mxCell>
                <mxCell id="29" value="" style="shape=image;verticalLabelPosition=bottom;labelBackgroundColor=default;verticalAlign=top;aspect=fixed;imageAspect=0;image=data:image/png,iVBORw0KGgoAAAANSUhEUgAAAsMAAACrCAYAAACDtJFcAAAgAElEQVR4Aex9DXfbSrX2+6/n5pqCCCLUJT5gigmYYnqqcEyoS9xbF5oSF5qeutSlOPckJ5hiKD7FEJe6BFHMDSJrv+sZZctjWfJXnDht96yVSJZG8/HM1zN79uz5fyROEBAEBAFBQBAQBAQBQUAQeE8R+H/vab4l24KAICAICAKCgCAgCAgCggAJGZZKIAgIAoKAICAICAKCgCDw3iIgZPi9LXrJuCAgCAgCgoAgIAgIAoKAkGGpA4KAICAICAKCgCAgCAgC7y0CQobf26KXjAsCgoAgIAgIAoKAICAICBmWOiAICAKCgCAgCAgCgoAg8N4iIGT4vS16ybggIAgIAoKAICAICAKCgJBhqQOCgCAgCAgCgoAgIAgIAu8tAkKG39uil4wLAoKAICAICAKCgCAgCAgZljogCAgCgoAgIAgIAoKAIPDeIiBk+L0tesm4ICAICAKCgCAgCAgCgoCQYakDgoAgIAgIAoKAICAICALvLQJCht/bopeMCwKCgCAgCAgCgoAgIAgIGZY6IAgIAoKAICAICAKCgCDw3iIgZPi9LXrJuCAgCAgCgoAgIAgIAoKAkGGpA4KAICAICAKCgCAgCAgC7y0CQobf26KXjAsCgoAgIAgIAoKAICAIjEWGn3/WIvNPYBMEBAFBQBAQBAQBQUAQEATeBQSEDL8LpSh5EAQEAUFAEBAEBAFBQBCYCgEhw1PBJh8JAoKAICAICAKCgCAgCLwLCAgZfhdKUfIgCAgC7yUCP/vZz+jjjz+m73znO+9l/iXT80VA6t988ZfYZ4fAe0+G3TcekdcdQNTtekSHg88HPIYe/P73vw89kZ+vX7+OBcFxHPr5z38e+37cF5999hl97nOfG9f71P5QI7qvOpHf45332o18xw9bB/i+CZ/8aOCKque9GR7OwEdn/KDZcsnrRuMwTlLcQ+Rx+u8Rh3eEf4M4eof67TjJCPwglK7bJToaDC/wRETnrfwqlQqBkJwnMoz0zMLNKpxZpOU8h+Eeod85WVuaNn/T1L/6vkftem1oHzhteuK+i+tT0Yfodj+kP44LM/wcYXndQc4Q9C0ziCMc56x/nwVOs07zrMKbCxludonK10tER+0gHy0iyq9VKL+WH/ijF5XAH99s7LkD/qK+3VjLE7l1/kxXx+rTDlG3TohdLZeJdh39vvSwSfQajZRIXatR85YdfDfq5h//+Ad98MEHtLq6St/4xjdGeZ/oPQY6808pRfyHuLa2tiYK7yw9Aw/g8uUvf5nCpPhHP/oRffOb34xMDvL7xS9+kb72ta/15Z1xuHnzJv373//u+/ZXv/oVLS8v9z0zfxTrRPaSPdYf1Yvmp8F94ZlHlrKpe1xnghdE5Ox2yVYWec8K5uO+++TtFm1dVkQUT3adXaLyMvz02kdfIFP8qDVdqm3XIv/oAOS836U227FpQFtVF0vU3kz1fzTBr9xTj3ILiujQb2/DPkV89vLGAOb27RaV0oqo20u/btPpMu18lJhosN0hopRyiF6WhyWFZl1+aBPf+ta36PHjx0PjHfbyrMnw7du36cMPP4xM0kcffUR//OMfB97t7+/TJ598MvAH4QH+/vWvfw18Uy6XzxXJ5wROkxf+9qRXCGmar1yqbtep+divq2hLBUsRHfXGuXHjQf379re/TTs7aAHTuWH1r/Tco/xSisjttfNhfUs4BcN4QXi8bz3K933ecIna21X9zOxTd7pEzU1g16WNfaKcShId+v76Aoj4gbq6uLiox98bN270+Yjr07YOiCyVJhoyLoCEuq4b/NWetYK+uvy4Rvm1IjlrebKXM3r8yiUSfX3necOpD5i35MdcyDAqo1p0qJK1AkKMpmgph/JX0wHJza3lSVnpgKyamI4iw85HeVKLaUorRfSqN8Bh3mat7lA5rahN7YAMg8ikFyw9GDbgxyoMrbxmWnB///59unr1Kv3iF7/QDSVM/ML+J/2NDgcEOCwt+fWvf60HDAxOr169mjTYU/WPjgOEFg5pB1ll9/Lly+AdPwtf8T2+KxT6yeWzZ8/0pAMk+7e//W3fZyDY4U6KPaBDdJYU1ba3go4mTBC3tmuklpzIOsfh5J50NOmlZokfEdfp9mY6eMY3kAzU6m3isCtrKR1/fbtGdDhIeM2Om8M46VWt7pB9QQ1MBNRCIshr/lGL3L0NHZU5YIXbWvpanhLKonwuFbTV8MDEvzFANQ9oAG+1UqLiZZRFNEHn527TH0TT99qUBnne77Xl9hGRSpepksHEwZeMpTfb5CyCIPcGd9wp5ei6xJNIngAzrvATR4ZPq/z+/Oc/UyaT0WQQ6Zq2zxhGRjh/s7qij4P7wQ9+oNugGS7S8dOf/tR8FNzj3Q9/+ENdBl/4whd0n4WJMk9ukf979+4F/vnm2rVrhInveXLT5mXaPJT3idSFdFB/0Y7TSzbVbubIpQ6py1tTTUybzWZQ/0DwpnXD6h+Pt1m0yX1fqGX2LaPiHIfkJbNo2wmqr6Ef6DngZi2kydvLE/ep7aO27jPqa5aeLGceulRZGS6c6IVItLGxQdlsVtdb1Fl26CPU1RrVryPcfpd+4FJpCX57k/Z+HxCk+GOkbSf6+miUc34tF/SztQcl3We29mpERz2BynnDKZy/t+H3XMgwgNENfCFNrdu+9DVqMApLbscBFJWytNuhhJ2lwgcJ8l71ZqT8feOIqLy6Qe3DpibDnV2HUleqgeSp1MRs0Sb3dSWYqWHW5nV7lY/D4uvXv/51gsQEUgOT9PH7k14xIKDxRYX997//XUte40jgSeOe9nuQWAz2cA8ePOgL5sc//jE9efKk71n4B/I6Ks8YTE23t7env/nTn/5kPtb36HBKlxS5bqOvXM0ZecN1SV0qBQSRA6m8glQ5G3RUiUR/p6Uu2JRQIJuW9pNdsole+Z0/1+P8SjLo1DJreUpBIhEhieSOe5aSYZDhsCSX08XE0PRjDlhhMqzsDGUuqiAvTHyjriDDYYl8YrEfq2HS+vq63z/oQfVaTUurW9QOVpHSuTzlc/4EGiRdgaRnMID4K0xYVULfklQOuY0SmeVrkvTido1slaHafScg6N6+L2ljnGZdfugvrl+/rqWsJ1lNGkZGuP7O4orJ9oULF3QfF26XrVZLv/vLX/4yNCp8l8vlBvxgIoDnUThgVQn96nlz0+RlmjxgTHPdLrXeuKSWN/r6pkIdJMoKiDLSZP7trPYIWzhuSPHRR/OEJPx+3N+j6h/arr26Q627EBR4hH6mdi0+XePG23KJUterZCcS1NjM9ZFDDiP/yCV3txCQ4dLzFpUvp7QQThPYXJUaN5N940HXdSPVpf7v//5Pq+LdunWL8McrsvZ6nawlWxNye7E3LmB1ESQVq2hWYlAQwX0b0oo+39HkGr3VbN1Z4zTb1J9daHMjw8hi+xV09HyCiUadg2TWWDblQYgHa3yDCgwpGwaqRqtL5KK6+a72kiix7FDWVuQ2ygRdKnJdMnWUzIGdJc/mIIfB07pe75OigeigMpuVl+PEFRIedECjyJ35zaT3GCgQR5z0CBJRvP/nP/85adCR/tHBYRZ8Enfp0iVaW1sbCAJEFWk9ODgYeGc+YEnSqDwfHmol0eBTDJ4/+clPgt98gw4nsTDYKYXJmCkt5W/LLzFBSpHrVvs6TnW1StWrINi9Ja6q61JK5QKiG1WPefJXvF8OCDanQ5PF43RWroAMnlwf0CS6fB9OFz9Hnk0yzBjgWu1C2pIjqvdL600/w+7RfrEyE1YVwfLvsMkmwoR6Vff5jh5gwipVVjoXSdCZDLPU18wz6kPaAqnPESYnlkoGK1PqYiaYPJjfcN5OWn5QC/jSl76kV5I4TL5CnYAJStQVElXTjSIjpt+T3CMeXukJh4OJeJzqBPut1+u63Ycnxvwe4aNfCKuMIL937txhb+fiOm1eTpL4cD3k38076Jd6/Q/u65jULxaodTsZGSWvukHnN+xmVf/QpsPpwu+oPpP9mUQUk9Xmdo06Ry51nmG9Fr2H/z9zp0GJBZtq11NEXofcA49c6lJtu0lQ+wpLSpMr+aCtY6Jcv5OnrQOXEiodCDCY0GbtRCDIMLFhzCBwMR36zWKmt8rFK4DgLeA1mQWLatu+RJdXvFSmSOZE5SRk+LzhZGLzNt3PlQwzUNXXUJvIUeNG/xIDaLJaqVDGxoDlUP1untrU1dLcxmaKktfrlFxQ5O75AzMq1MYlzDjb1PKIrOwWFWxFqdtbgf4jiDFXyOTqlu58a+uZ4Fm11SS1kKPu4ywnj6wbjb6KG7w4JsIswURjiSNu5jfT3H/+85/Xul1x35ZKJZ0XbCSbhfv0009j9XlHhd/pdIKlXwxwmCyY7uHDh5T++tfNR5H3IAvQZ4tzWJLF4PnixYs+L+vr6wNLuPCA+jFKF5cHGHMChm9Bhh0FHdn+mTs6QrNTg18mSiz15TCRVvMvpRQ1n5WDusf1MnOzFqhzzGqjiUl0+Z7TxXnl58hDHBlO3mpqDIv19gCJZzLP16jJI3T0LOAY0p+LwhHpiHPtQwyUkNz6k2mkl8uBJ8ysC22Wh5lnsz6YfhCniQV/Y5Yd7k9Sfp/ufqrrAtrZSd1ZkeErV65o/eZweiExAx4gUcMcJOHwF26v/A2v6kBabjr0F1ESY9PPpPee55Fl9Y83k4QxbV4miYP9Vl5gP02ewsKb9LUiFaB+cASi2F9nnV3o5FtE3WhdWCZ2b9684WimvsbVP7ShcJsZ9RttivtNJohbrRqpxSxtQa3Sw7rQ8V6fbX+vT2HPJbWQpK0HGa0Ohf4MvQKIMfrU0uMaqQsZykFF7qnf37bqNUrealAR+B2rL1QgaVaZIP4wIKiHSH/YhfsuTp+762j+EuY1+D78DfKaUSDUxYHxgMcF88rqYwjrvOEUxudt+X3mZNhsIFi2rb4hUolcn/6wCR5E/KUHdd0ZYMmVKxov+TpPOqQWbGreShI6AJCd2kGblO1Q6XJCb64JD+xYtknfblLaTpBaShOWvGtrSaKjjia+qPDtu70ZNTbTcXxm2iCx4MYNSwbYvIWwhg0Kf/3rX+ny5cuRZM0M27yHbhfiGSYdgQQJfmZJxqEfGDdwmekz79HJYvmNJdkgvRh0TGkWLEiw7qH5rXnPnfWwPMdJjqvVKkFtJezQaZxEMqxUKihvLve4q9mpc51l0ol0meQLu5BNKwZI5yjSHs7bqN9od1yH+T6cLn6OsMJtBs8wIdA6eLtOpB4wd9Y8yQxvQNXxpctUzWFAQSvsOcTNZLb31L+DLrOp9oCn4cmJOWEN58vE2nxn4gw/OWygO95IY2JhfsNpM8OcpPxAHPgPdQcrGPiN+j6tiyMjceGhfxrWR4W/4/Ricop2zb/ZH/T/FxYW+GfsFWQaef7Pf/4T6Qdpwnv0ZabDBB/qGUdHaCizc9hzgLxM46bNyzRxsTpPGfsZFnNUu+kLb4oP6tTd7W30Nets+ZlLzYe9dxwvlx2uwBoCBfTNZ1X/atDzRzs7JrKcLlzRplOYKB+rjjHJQ2+JVaHE5RJB97j9qqoFYt6uQ+m7TbIXEtR54ug+VYdtbG6GoC1hO5S6jHFeUXYxQd3nZaocEKmFjK+acOSrUmKi7kB1LSTwYKyAl/nHgqdw38X9RfWeQ7mlHJE7OCHRZWVwDD02HavZYWUyan8HhAwsvTb1o88LTmZZvo33Z06GGSSz4VbqHaptV2NnROZGI65oPLAjvBrEwPu1QPIHJfn6g2qggmEO7LVXHiWWC5oot7u+znDrqaOlyPlLirJXi5S+XjgesD09Z1RLpcjGy3mBRYR0enDjFL83ryCrFy9e1JtJzOfD7mF6DI0wvFmMv+l2uwTJMQarWTro6SHeaRxLbaN0CDHYQa1jmOMOKC7P+BbhROUZHTsmJWEH3dXyik2u24xcvsNSXdN1yV4pU9iaRJh8cdjhjhDPTaKE31xnTXUc1hn2XpYpsbqjJ3McpknS+NlJr9zeIDVVuaomxpwuJunsB3GZbQa/td90OVh5iUoP1JLStxvB4BT2g81tekPrwaD1kygc+XtYwjCXHvE8XB7m9+F8oTwwSPLmFFaDMXEuv8JAiDYM3/1SNg5vFuWHuok/1N2vfOUr+v4kRASWKEBmEB76FbSbYQ5x8YA+zJ/5Dm2Qv8MGYdybacaG1qh2aIaBe/hJpeItkEB9AmkrFvtJHFS/8Byke5buJP3btHk5SfpLLdTjJLkPnWBsQ91sbTf0b26/zQOP2s8G98ogbi471Jfvf//7we9p02XWv69+9at99SIqzMIzSEAtIndQPWMYGUZY6F/qT2EFyl8dRr+1Ve+S1/LD4nauJcNHRNnNBtkJWxNltPWNZUWFvQZZC0nKr2epsJol23KIN0LnnnhD+zdgdi3CiorZ9yCd3F8gHVBwS6xUKLyxmsuKMTIJLSb2tasYd321EPaDK+oA1LlMNTXzW/iZN05met+m+3NBhrMPO8R6ubzEylfoT5oWIbii9ZHhVx4VVgrkPKnrCp+7V+tTqDcH9uxmmxqbWd15VBsdyq+XCXqFkFO1G/5uT2ygK1i2NlWDpZM0lk4MixThAoYeHaSUp+UghcAO7CjzQ4gTZnEwWIzS2eOOcNQVg9tvfvMbwhIuS2tqtejONS7PGKCTyZ503fSHTgVqHcMcdpFD2h42n8bftNttnecoCTN0kYEH1DXgTNUYll6Oe+VNVOioT6ozzBIdxI0NW7wkhw4uvdDbTGeSNM7vSa/c+XL78Z7k+jpthM9+cG+2GfwGkQWmcRJrvVHk0gYVlhOBeUIzzbDWgo0+vEkEcSG8YX9mXJxuJu5RZJiXI8N+MUjaytGb40xSbeIcFR73MRzeLMsP+vRo1/NwUOvizT/jxo/2j7KCrmzYIbxhJBf+//a3v+nvo/YQcHi80vPo0SN+FFzRx6JPmrXDyhfyNcmK2knzMm0eQJKQVmvRClZSzb023H7jTHyZ8aL+jRJImP5ndW8fq1lBYJWB0MGwDjMOGc5tNmjnfk5LhnceO3rc503yJhmGdZ98Jq830GNrUelBg+p3oFbhUgN7MbtNTTUhGHAf+IIs4GtKXMN5hsWNqE3qwD28QY4n3AgDEwBLWcEGfYxKsILD/Qv8oC9iixMYD6I2V4MaR+23iCLD88QpjNvb8vtckGFdYepEhUWYWvP1n/CMC9+cJfHAhIoEO4Kp1S0tiQLBdZ66mgyXGw2tYwRJLxqKObCzUn+55VJyIUOdejGQEvJBB4FptXqBtFmUi5il9TbqmYXLHWN404fp5yT3kFb+13/9F33ve9+LDQY6sugko+x78kfQDQNBHfYHc0lRf5A4DYuf4zCvGBzz+X67j/weEolRm/NGkQWoTyDP4c0MiAMEGu+gXgJnbprk5Xa+hjdW8HO+sqkxdNTTqkk0up62UOE+zgV1zdxkx/Wc1QdMksaYnfTKAyW3H5BK8x7hsx/cm20GRBadeXbV0WS4edAeWMWJssYA0g+d5/K+R2ohrQdxJsPh/CDuODUJ+A2ndZzyYOKMQTK8gc5Z7Te1hvoS9af7mVMoP8Q1Soobxmiev3mlJioNMIm2srIS9Sp4BhOQyPMvf/nL4Fn4BtJWqFTBMkXYYfUN5iuHOZByTLTxh/TgG+gaw1Y5VNjQp0Aab9u23ggIAQMm3FDxQNrw3TjupHkZJ46wH964qiyL2tuOJlNQQ8Jmbx4fuf3qienFUuzmOYQ9j/pXh4qEVQhIoF4pMswlxpFhj3ao+LRDsGKDyXZrv6atanSeOpRcq5GllBZw7Ry5gc4wVJdggQPjp3V9hypXEuS67aD/5YO2YFoNm3nr+NYqkPd00NIJ8GIBS9QkErjHbaDjckzdbVMGeT2oBH1ZmAzz5B/jAcy0hU2+oR9OQqpumPRE+EyGzwNOnN+38XpuyDAPdu27vWU00/Yvg8v+Mpmk1hUuY7e96xNok0R0PCL7WpXsBUXJTCaQaMWZQYEEmisj4kInU8wpUhd7jZfTYF5ZYhJlysv0N+09d7xxAyc2p0FFIsp6wrRxmt9B/ePp06fmo5H30O1DZxvVceBjbD4BgY9zvCw6Ks9RUmGECdUMxB9lrQK64q0Hvc2RZp2JSw+e112iyhqsa/QP1FEkDj421irBYS+oc7zSgSvqmlrwN2CxftzWS6ItmJzyWoG6j08Bh6Vq/Hc8UEJnD1JSdKjclpg0sh+EapJhDFpY5mOsKi9g2qz/cJywNQZ+/+mdPFnXf03lywlyttuBZDic8igcTT/htJqDXXnfJUtlyP0krwc703wawogiw92nTjAwdlyXEtequs6Ed+bjFMpZl9/z5891XFETOTPP5+keev5xm9hAQuPecR4gUUObjFKb0mV0vLoVZ2kCRBYbmE7DgShHSfzi4jppXuLCHfYcUsvyqkVq2Tf7iMMSa123z7KL2X5zT7qxh9rMq/5BsKQP2jne1IfV2OSNum8//GWZ8ntYfcNBPL2DMrAqnFjJUCqhqPMUG+W9gX6r1HBJJdKUWUmQgqrTrkNsClObvAxZEDKltjgQI6nSlFsvkAOyeoTeYtDxCimwC7tw3xXuq+AfNtETyxvUeZgJ0m+SYfS3vjAEVNi32oON/KxeUXP9sxmwNyrs0C+fF5zCaXubfs+dDGv1hOe+BI+NZON0L7ZD3L7Xr4vLFa25mSJ3v9/kFHR+TEKLatV81qLUpr8DnslFfs+jPKTQh/6SH9KA5RLTDA0aCRrWqFOyWCo7SaHv7u6O7Z1NprGyvvkhdN6w1BrefW36Ock9bFCCuE7qINnBwGfqFZphwAQdJNBxjicAUZt8OM/IN6TyUY7VRsLvWDLB5A/v0ZHEbarrPPRJM68msPkf8zrMTBD8hc2FYfkuYedpYzMdSCvD6WTSyfU1/H6a3yB0yA+WVSHlbd3LUIc8sq9UAv1oczA1yTAd71sali6TcIbT14Xlu6NuIMFgvVzTX3hAMd/hntu9WXZ4Dv04a9W3PxyHl5m2qHCwmQarRIXNUl+/EE4Dfs+i/HgPAOyDvy0O+qBxhBErMFg9GuZAZuMsyKC/gBrEsD4B/clJTkmLSxtWyqL6mTj/eH7SvAwLO+odNnZhY1n7ZVmrB3AbALk0T54z2y/3dSbh4rDnUf8g2Qa5C5M5jL3QA8aGWvQv5soR/27jVFivN9aDLeh9PMZGOawS1/ahRtI7MAltPQF1BIND6DMEoJJmmHCF4Av1yxz/GSu+wq4w/ERt4gz3XVF9jA7nuB/l9x0jXVEn3uaxIrdgU+l2Vm+cNA8p43Thep5wMtP1tt3PlQyX15OUWA7b2/N1CyE5YyPdJqhckbiRY+OLfQG2AiFtSwyYZ8O3fQM7dHh2XUpcSOlDOTovqpS+2+ozUYNvmIyHT7My04J7LMGNkoqY3zBRxE7mcRyW7tAI2UFvGLpzkJpih/Uwawv8zTRXkM5xNsVEhQ1JMtIMk0tR7g9/+AN997vfjXqln7HuoGmS7Xe/+12Q51EEHZt8sOs97LAkhnTxbBvv0ZHEHcQBqSBcWDJoSnlVwhrQFzPfm+bFeGcz4jcJWjidSJM5qeP3evksVw2WRfn5uFee9GVXLC1Jqd+ABRXfNFk4jHCbwfu4dOHdsPxw2Nxpz4oMYwC0smVKJ/pPpuP4+Iq0RekM4z2fYle7Zmk7pTDluLMKk1t+2XMYuJ60/DgsqAnBFva8HAb2UW3ITBvMkKHdxKmCQQULq1Nxjm3yIt6wgyR4aWlp6EoRDvtA/JNatgnHFf4NiXZUPxH2Z/4+aV4gsBklYDHjwz0EM81b/WpNTagcXCwF+q7wZ5Jh/MbR4SZZ5nDPuv5xGzPNwHFazKuzHU2Gub9IrGGFzdIra6xyYH6Pdm6S4eYhkZ0r60M5dm7nqPa6rU++dR/6B0HhW7Ry6OGGxwUzXNzj8Ki4cX5sMnwcqOYwl3qHp/DEhSc5ZtwoQ6TNuQCJOXI46ML96jxxGkzd2/NkLmSYGzIKWZs0O5711fZ9Sw+Q1KlEQusHefv9G7fCZBiVubbnn+PdbUFdwl9mMIsgamDHMmvuMTYFWVrnqP0I5Mn/toLjLxez/rJUukR5W/Wdrc5h8yAxiYoCBg4s78epACBsEFGQZXTUrAMXvsJYOiSPp+UgMZlkwDTTgdPyoK8X5yARA5EPO+QR+cYVR15iaRakmfM+bp6hLxjGl3XuSncdbR6MN1EOI3jh9EX9DneEUX5Qq/JPO3oXs6+iAe2unh5r+Ju4NKF2a722J4NEPxxG+DfSgEkfL1OybW+oL0A1I+yi2kxcuvDtsPxw2Nxpdw9rgYoCS9njJOyQrKONQ70FR65Wr2JfQScwyVjEhj13cFMXx8lpCx/1jk2zHUiVr1b7jm/WusgL6SAefD+r8uM0QVcVdXse7h//+IceXGHecVzHm8ziVBwQDiTDYZu1WBlCO0Rfgr4e9/yHZ5gQoG2H22o4XdjIi++R9lk6xB2lnxwVx6zyAnUHczk8Kq64Zzz2gTRh/Ko+bRMd+iqC+CZMhmGSzX0xSKDOsv6BCFvZysBR6uE8alJ6rdZnzYH7CybDjdf+se5NHEV82JMUc1jIqUmG+Xn9wKNE2rfDX/oAY7m/Eo04WU3D2SzpI+Zbm1iJ9nkAf48r6l/cOA/czRM52R50FLlFWIF5uWPJNjY8hlU0wIXsTFGfalq6mdamYu2EIpB6OkRN6LnzhFMvVW/f3VzIMBpI6nJZH5bRPvSo+KBBiaWMLvgqTpRxW3pzHGZ1GAAzSwmqbubJ228Ey6VxdvhMqRzfQ2/IlLQ1X3uUWa8GOsfOgyqpREqfK15qwG5xOtiti2VRZee19AnHuZoOpn7QSE5j+c6M5227xwx6lLUIbMibRF1kXAxYimSqaGh9KzsfSPy2Wh4pO6slutZSqu9kItZ15WvjPjYBDnaOnJ5RZBhfJj7a0fWn+7ykBzFs7NhoupSGTYc/QWMAACAASURBVM1XZW0gfuthXW9K09YOLuUHNk8gPiyX5mBW51injtMw6gr9eWw0wQE1XePkONZDK3+gtCZe7Zm/Ma4Ke6bp4kAawmQYUzG31dHEFvkxbYRGpYk77ezDwVP3uK2Gr5CsYwd6GitFrTIlLpcpdUHR1u0cle9VhppkxAY+GKcP63AjbdABx6oU7JbSfr+ZJ70qlEjrkyxfPyvNrPwQL8g/+ozT0n+Nwj38DJYTYO98XIeNa5DeDnOQNoYlx1jBQjuM+xtXTQQkZNhK0rB0xb1D3w3zj+O6WeSFJYKw5DKNM8kwf4/DZ2rbddp51iC1PHx/C745y/oHM6bqUn6g30E6oNObWspS/lpG7z9IfOCfsGqqNKC/MI+4D/cN4d9sg5dJaNcjKu+29Km00DmuPi5qggn92s7LLT0RNvvE9D0IxxJUvWb3qWXwmBI3zo8iw9UWDk0pUO1BSZuItC4XKQv9ZLdCLBiE+kjn0KPydpMSH/ibe7FZkC1lQB3MedDQPAX9R+Zigiq3Hc2VzgtOXCff1utcyDCDxcsnGNxqETMe+IPNRBBXK2EHpkncN9HHPLKUKXzFSTMgw1C9h01XSJ7LqynyXvVmza5HVGnhJJsMhZeP2eA3b+5jPV5snotbOuE8vi9XLDmikfLR1JBuD3PQGz4N0z4ff/xx3ylZIKPQCQvrW0GyUm92qLhZHdgMxkQYV/eT/glQOE+jyDD8Y7MLeb4UH6b6lPInfjvXcdQyXhLZN3qb7IorqUjzZFhinVSqxPnHEeVea9C+L1QNaN+XLqU2sSSHTSiKMnaCvGb/cdxhMsySavjHoFXJIT/9UgsTLybDLOkx3w27L+561N31T5lEfraedSi3ViJ7yVePCg+K5m9vO9qiCTYFFi7FS5VBljMfFLXpp1mUHzbLQTeVD9A5rQ23w3Cc9B1UGCAVhhQ7Tl+Yw0T7x2E7p+GwynSaR92fRpqjwqweYjILyd7gIQxR/sPPosgwltjtpYJWEyxetom60askZ13/dL+zVtcTyqh+BxNU80j14lqeOrvlPsEDyGx4LB/2GxZ6FPDFnqNj6z8QpLUeF/vUwToHru5vMREOpw2HeDmLwLGmVyzQt2FlYpjpQKjRmepwkFmbezF4Mx/3S85lm7rP/b4YwjZn2SHq7mjzlehHi7CF/yK6jmDcKu+2ybrsUA2knbo0b5zC9fRt/T1XMgzQPLSaIZK3WQOr4zvSkUYG7R3Gv+ONRFgShBQEtnDfph3hkRme0UMQW0wMYDB/1LInRwl9a5DXWTmW1A8ccTvbg6v6kovNdeFNcn0eZvhDb0Q71mOeJFh0oOYJd5N8+077PcV6EcYNfQZUE6DPPmrVJPztPH7z5BZtGeoM49jhhV1xc0VmFumGwGFSvd5ZxHsaYaAdem/8ye+04UMQxGbBJgljHvVP9zv+AD9JUmfmd9hYPjRtx/0CiDDGNWwkP4vJmE+FhvCPmSHTH9BJceoP7e39NXcy/DZCh00Ud+/epSgLD29jfmaRZgyWWE6NMso/LHx0OLPCEachzXP5eVg+5d37jQCkq6jr+Ds8hHmN8+3QnmFWEekdd+8A2j7s9s7KQZUD8WPzrLiTIfC21b+T5XY2X2MiiPo3alVkNrFJKPNGQMjwvEvgPY8fm24mNW0UB9m4Eum47+W5ICAInAwBtrZwslD8r2H/d1Z9wyzSI2EIAoLAu4uAkOF3t2wlZ4KAICAICAKCgCAgCAgCIxAQMjwCIHktCAgCgoAgIAgIAoKAIPDuIiBk+N0tW8mZICAICAKCgCAgCAgCgsAIBIQMjwBIXgsCgoAgIAgIAoKAICAIvLsICBl+d8tWciYICAKCgCAgCAgCgoAgMAIBIcMjAJLXgoAgIAgIAoKAICAICALvLgJCht/dspWcCQKCgCAgCAgCgoAgIAiMQEDI8AiA5LUgIAgIAoKAICAICAKCwLuLgJDhd7dsJWeCgCAgCAgCgoAgIAgIAiMQEDI8AiB5LQgIAoKAICAICAKCgCDw7iIgZPjdLVvJmSAgCAgCgoAgIAgIAoLACASEDI8ASF4LAoKAICAICAKCgCAgCLy7CAgZfnfLVnImCAgCgoAgIAgIAoKAIDACASHDIwCS14KAICAICAKCgCAgCAgC7y4CQobf3bKVnAkCgsAZI/Czn/2MPv74Y/rOd75zxjFLdIKAICAICALTInDuyXDXI/LeuNPmb+h3rS5RfbtOdNge6u99evmPf/wjMrs///nPKZfLRb6LevjZZ5/R5z73uahXp/LMI6LWizbRYfdE4eNr78Cvb94RfiDk03NdVPCjwTi6h3TivJxeqs9nyK19j7w3rbkmrlKpEAjxOGS4XC7TJ598MnZ6Ee6rV6/G9i8eBQFBQBAQBMZD4NyTYWeXqLysiKhHWEEUXNed6C+KJFk3GlRZQdgnJ9vtIyK1vEHFRYTXHA/9c+QLA+3CwgIppehXv/pVX8rw7urVq33PxvmBcJaXl8fxemI/FZfIUhmieuFEYRXqRLkFi7zDGtkzrB9RiQJtUxdL1LqdHHhtXa/PrG4OBD7jB7///e8plUrpuoP6E/774IMPqNFozDjW/uDQgtVKherXrf4XE/7a39/X6b9///6EX/a8j0OGd3Z2dDy9r0bf/fOf/5z4m9Ghig9BQBAQBASBMyfDlRdE+bX8wF/9Tj6SlEaR4dRme2DADQ/A4d/tzVRfaReeESllTRQO7Tp9YZg/0pttSiwoUgsJam+mzVfn/v7w8JCSyaQmLMDtRz/6UZBmvPvyl79MkPRO4xDWjRs3pvk09pvmAVFtu9b3l7pepewFRbXtjb7nYX9us6anPvk79aAOVtZQ91oE+ay6WgsIVa1LpCyH3IeZ2LSc5EWpRZRWSaKDrb5g6phYWQXynowvie8LYE4/VldXI8kaJkUXL17sq1cnSSKIb2272VfOhcc1SqgU1e5k+56Hy7+5XYvsZ5CeP//5z5TJZAjkHu3g9evXUyVzFBn+29/+ptsbrpO6J0+enNkEc9K0iX9BQBAQBN5WBM4FGbbSuQHpLwMaRYb5XfgKkhyWIof94PcOSM6iQ8276cmky170Eryz2yVLWdTddci8j4r7NJ5hEMdyK/6ePXs2cRSPHj3Sg//BwYFe4jVJwOPHj09EZvf29nTYf/rTnyZOV9wHxTqRvWQHfwnb1nHYdiJ4Zr437+vrtl5jUMtlyq8kKX01T46CNHGHQE4tlaTavVxAqPI3ylR71CPY3n49LlljP6+8QvqzpC7YegLF6atcsYmoQ7mnXmR+sks20avK2PFM4hFlD9IKIoe/hw8fTvK59mtZFn3zm9+M/A71CAQT9eGkDiVgLxX7yhqTUPuC6nvGuJrXIjCk6DK8ffs2ra2taRWHb3zjG1MncxQZvnnzJq2vr08dfj6fJ+ApThAQBAQBQWA2CJw5GUayw2qY9q0m7awqyj7sDAxmicUeYWCyEJf1cchwzfWJ8M6qRbVmKyA9YQmS+RvSxDiX3+2SWrD7pMGQEqcXFHWfl+I+O/HzK1euaHIBgvGD1R9oqRsGyWKxOHHYP/zhD7WkKupDkIL//d//jXo19jNIln/yk5+M7X9Sj8lbzbEmQRwuFG5AhiHpL78kclSKurRDKlftI6e67ikQLCuol52HWQ5m6ivitCHFvO8E9S9zs6bz4FKb1OUt2vooGbxDXXTu1yilbKKX5anjjfoQOq6oQ1/4whfoo48+IuiGV6tVggRyEvfb3/5WhwMiGOVAthEPiOCsXalJlIKE/QTY/Otf/6IvfelL9Itf/GIgeZhkQgc47g8ScdMNI8OYFAIHqElM6zBpQfsXJwgIAoKAIDAbBM6cDO8cEiUTDlHTJ4p6aTpXpc69NNX3vT4CABIAkuAsYfl7i9p1kNLBzUYMxThkOH2vTZWsTe2jNqlLG1o6GKhtrDrB0jk/UxczmqhzHHxFKrIPWlrVYmcN0qae1Bh39toOWUpR6wHI02CaQQ7+8pe/0L///W8OUl+xRDvKYTCdheoBNsv97ne/00vYGOjDcfPA3e328mamDYM+8hB2pmQZ7yAFCxOG8DfT/gYRSkCaezszUHfMCY1Zd6LIcOFZTZelubKAVQlHQQd8euISlS+Q4ZRK9ZE3XgEpPGtTZsEiOuiXAEd9g7rz61//WpNX6LqC0AHncfVd7927pzdFzmJT1p07dzTJi9MNZjL8ve99LwqSqZ81oVJysUSllcTQ8q9DPWLIRtlPdz/V6f/000+nTgt/OIwM//SnPz3xxtL//Oc/Wr//73//O0cpV0FAEBAEBIETIHDmZBhpBSEtYKPZUYOwrcayCkTP/I1Prgvi2COPTBLMDXRx+R2HDOtvj4hqR5DO9Uh56QVROmEPSHPV6g6F9Y1bHpF9ZYsSSlHzNvSDfbKYf9Si1iPon/pP0rebpFSCCssJ8l71pMtYik2n03pJeXt7O8gOJFAgun/84x+DZ+EbbEaalZQVcfEf0rO4uKh/c5xYKv/85z/PP/uu+A76wLi2Wr0d/Ldu3SKk0XRbW1v09a9/3Xw0k3tWd8lcVAOTGJ7M4BpWwwmTYRBTtZyi5MVkn4T5rMlwaVlR6laFmrdSAxYmWIJNR349+utf/6rrEFYCILkH5pcuXaLf/OY3ukzq9WhVAAYedQ0S+1m5b3/72zo8ELUox3W7UDjZBkczbLQ6a3WHkgrln4mtA1CFSUEVJkJyDOLKf6jLaFv4HZ4YmvGOuh9GhrEKE2eV5Qc/+IHWB0YZmg5pAX6m++53v0t/+MMfzEdnco+0YQXh2rVrGidMwn784x8T8vX8+fMzSYNEIggIAoLArBGYCxnWZCRdpvqaRaWmR86CTXS0Q5XXRNZChrw9n1Ais2EyDHLKBG7SK1Qx2G3sE+WwtHpY5UeUe9LxB839Df0MlBxL5yYZLuy6pBIpSiUUuXv9KglImxkHAik/75KyszrNjXWLXrx4QV/5yld0+Eg/Bk52IJJYrsamtSgHyR++maUDaUKYSFfYYUkbG5/CDkvrGJwxSONbSCfZYQNSWPqHZd1EIsFeZnLFhESlN3T8YczDEYQnSWEynFMpqjzYIGe7ocNDnuL+OrsO2VcqgdqEqY86zj1UfcovUc+iJcOY9BWfeeTYNlG3J5EOyPCxlBqSfN7UyBJ8JnFIOzAf5kBgptEvjwqTpb7DpP//8z//ozGdRhc5Kk60zfRdrMyokdL7KKk6h4k6jD/g+f3vf1/f4/e07lvf+paWziM8tB2zfSNMvI9SFcFkolaraf/hNhdVniDO46iyIP5J/oblG1J/pAV9Brd9TMJQ/l/96lfJceI3GA8LV94JAoKAIDBvBOZChpHp8j6Ib5qsS8k+Agn9T5Yaw1+YDNeabuxyqH1tK1CpMJfI+R66v5DeQlqYXMlHSpSy2WwgYcqt5UlZacqlLf0MFi8Ke6+pfCVF1B00nxZFhpEH94iotNkgOvAHOwwkLCmDriU7EMk4qRH8QAoD82eQACKdkMzevXtXD4q7u7t6kIpbpuY4wleQEwxwMNsUdhjcojYSYaCHg1QS5J2/ZVK0ubnZFxRvout0On3Pp/3RxAbIdIkKlxSpbIFOKhmGzjBUIVDXSpcUuW5Db6zMPXYpp/C72tto6XXJtERhSqDHuUcdKr90SakUmRv+oJ/MKhpsJqycxuoJqDtRfq9fZcPcgMV6vyyhH4fMgfhhJQDli3KGZA9SWxA1bCTb2PAnhOOUEdflBw8exHr/2te+ptUDOI2xHsd4AYlw+laTkguKstcLke3YLIthkmGODm3KtKLCz2d9BdENTwjQbkBu4ZAGkwyzCbZ2268HnB6UP8pplEPZmH+Q7A77GxYeiLwptUa/gTJ/8+aN7kPCxH9YWPJOEBAEBIHzhMDcyDBASN1ta1UDMiTB0CmGOav2Xd8UWpgMDwMvLAGM8stkGLrAJolyYO4tpDMcRYaH2SSOI8NR6cBgZts2ece7Cdm+KfQ44xz0GSF9wzIlVC2uX7+udYcRFogp/8V9H/UcYcQtl3/44Ye0srIS9Zl+BtuyphQY0kgMkGEyBr1kPG82BycQsYHHvIBEMLG6Q3lbackpMDfL0SRBfD9KTcIkw0xIET3q3mnpDMdtoGN1IDbr1rjh280dlhaQWKi5TOKWlpY0ScIkCpOVKII0bnhY0RhWvih3vJ8VWXI+8cheSFB3N6/L6CRqEpzHWaaPw4y6/vd//7eetIbfoc1g5eeLX/wiQa+YHSYp+CbsMFnBhOYsHUg1O7YOMos2zWHKVRAQBASBeSEwVzKMQy8wCMGyA+vdAgjnkUv1W7Dt6g5IhocBNQ4ZxvcseWvf7R12gAE2u5ggr9Wz+Woupw+Ll99NQoYhZQGpZQeiACx46Zufm1dI1VjFwnx+knssb8YdqAHLAiC8UQ66oUivuVkLgzN25IcddFrhFxKwWbgORINdX8o8DubhemGWq6l+oAnn8WZN3ryZUdi8WQxWI+jg5IQ+atk+atLnbHepYFtEXn0oMcdStUk0TdIShzfK45e//GXc64meX758uU+aGf4Yqx0g6+HNomF/4/7Wxf/KL/9hkwQOLwpvfocrdF2BxyzMvpnhRt1D6muqFZl+2CKHuSkV7RP4hl2pVNKqHeHnZ/X72ocfnngj4FmlVeIRBAQBQWAUAnMjw7ACAJuuGw8KZMG0VcyBFlEkIS5TYdIT5w+b9nCoAW3367hhY18Ouq1vfD3iwF9M2sLhj0PM+JsLFy5oHUH+jcEFkuJRDoP2pKoQcWHCmgTCM4mU6Rc6pVHkFn6gY4xvzWVT2JmN0htkO8Zm2LO6P4lk2F5MEGwUs/QXdS1tYTNWLlaVhl70W3mYJh9R5Cy2nuNI6GMpdX4B+uJ1fRgECBLKDRJFlINJgLHpEbanhzn4hxTypA7EDfFHqRjASgVWK6BWM80BE+OkDbidVDKMSR/ycBbWGTBhjGtvsMhhTnZ5jwCehx3wZnWl8Dv+zXUDeRvn77/+67/408iraXUEbd2MH/rOUJcQJwgIAoLA24jAXMgwWwHABjpYjoCesAPrEsaGIQYzliSwB+M6Lhnmo3vzV9OBfjAvqeeu9HSGM9AZVkltfm0Dp5S5w3foT0KGoav58ccf69RjAxQIDJZER7mXL19qtQZTejTqm7j3rI8YJxEDWYaOcpTjTVucBwyGGHBhozbsyuVypC40b1CsXQXJw6/J3UnIcO1mRtvvdWC/91hn+KzUJIZtoItCwdnuHUsO7EFEsIEKV9icBcGCqg2kxFFlEBUmbOpCamuSnCh/Uc+g+oI/Vo1hYg4ChskP1Higkwwd5GES4dwTj3Ig+Yc9aytR8cU9mwUZBkGNUxWKi3fa59DzjWvnKEuTYPLmVnNfAceL1ZxhGxbZ36yurMaF9PE9JjrsxpnIs1+5CgKCgCBw3hA4czLchl3QdJnMzUENmDmzC+SGJLUAyyQBo8AblwzXXRwJvTFAhJkQ8xUbb3CyHEjzrMkwBjqc1mVKbMbZHQ4MIMHCdyAyUEHgP+h/TiI1hm4iwuENcFH4wiRanAknECDonpp5AFkPO+gdR0nDWPJ+kmOHx5mAhOsFFthhEYLqRUJdqKxhs1hrQCUHRIulxuE8neQ3JMNYDTEnY9jQaRLxcPjJu/2nK4LIQvWAJXKoCygLENFJHIg1JmbYvMn66LA0YeqtRoUHyTL021GuUX/QKR1GgjlMqEpVc9NPhsYpoyhJPMePKzaBRq1omH5mdQ/VFExYohwmp5DWoz0DX7QrTCggIQ47bEgcd9IT/nba30gPSC+kwqgrIORIA57zpHjasOU7QUAQEATmicCZk+HE9XqsFBhAQJ+Xd+tjU5uyM1RZwWCJN/0O1m3z16sBqVWXsj7JpumsFiCG2naTGts1qjeblFzbooKFHf3DJcKcqnGIGfxCeoY/dlimxQAz6U577OSGySpImnD6HDbDmdIaDj/uCp1l6C4Pc1iijbJrDImgebgGBkZTqsVhQuqIwdLML7+LMm/H78a9RmEOGXOt3tZ6vtXtGql0kWrXUIeGOxArpHXY3ygzbsNj8N+OIsPQic3frVN5PU+17So5m1VSC0lqrvub6caJY1I/UGPApAckDH+zOHxiVBq07valDTrJZCiODJsH+KTXq/6k5thGs5ku14VlDzVg4cH0M8t73kwK6WqUA+6Y6ECijnRFtWeowIDAn5bqSVS68AxtGRMfNsmHiRjUNcx+IO5beS4ICAKCwHlG4MzJcAsj/eveIQ1R4Njr9cCOa3ElRfQ6egmVJXxs39W5jEMzehvgosIe9iwcXm4Z4Y1//G0UMQvHx+bHmDhCygtpUNjcUvi7Wf3GwIUlYUhysDlulDQagzYkkKZ0iqVWLO1l02lRO8sRTxzhxhL5SaSCwCQOc/tGrw6hHGl/tK4viNUw6eysyqDyiii7lCV61UtTsU5kHjdutoHUkk219QzR0XSTvFmle9bhVA9h6zvXZ+t70jjiyHBhj4I+BPi1H+b6gkadRT1mSxeQkJ+VQ9sPm6HD5BLPuZ0hfclkMlKPGe3ONK13VumWeAQBQUAQeFcROHMy/K4CiXy5XY+87qAEO5xnLH1CAgQpEcyXQap7Vo51PLEUC0P/4zhInE3LF6wvDJWMp0+farvH4cEd4cKuMKRbcVLGLs4WOcTsSNz7iIB3ROS9mU/5w6oDNiFCCgvLDGfpoEICtRTTgQhDfQIqS1ghwj3UnsIOevxIe5Q6Utiv/BYEBAFBQBAYDwEhw+PhNFNfkOyAYEJ/8Cx2sIcTj3hh3mmYrnD4G+ijmtJr2JaFdAp6jnFH8IIIQ/9UnCBw3hCAjjDqJ/7iTnw8zTSD0JoTSBzLzunBFe0rykGHP0ptKcqvPBMEBAFBQBAYDwEhw+PhJL6OT5wbFwjoNcpS7rhoib/3EQGQ3kmILfyHJcrvI26SZ0FAEBAEZo2AkOFZIyrhCQKCgCAgCAgCgoAgIAi8NQgIGX5rikoSKggIAoKAICAICAKCgCAwawTGIsOzjlTCEwQEAUFAEBAEBAFBQBAQBM4DAkKGz0MpSBoEAUFAEBAEBAFBQBAQBOaCgJDhucAukQoCgoAgIAgIAoKAICAInAcEhAyfh1KQNAgCgoAgIAgIAoKAICAIzAUBIcNzgV0iFQQEAUFAEBAEBAFBQBA4DwgIGT4PpSBpEAQEAUFAEBAEBAFBQBCYCwJChucCu0QqCAgCgoAgIAgIAoKAIHAeEBAyfB5KQdIgCAgCgoAgIAgIAoKAIDAXBIQMzwV2iVQQEAQEAUFAEBAEBAFB4DwgIGT4PJSCpEEQEAQEAUFAEBAEBAFBYC4ICBmeC+wSqSAgCAgCgoAgIAgIAoLAeUBAyPB5KAVJgyAgCAgCgoAgIAgIAoLAXBAQMjwX2CVSQUAQEAQEAUFAEBAEBIHzgICQ4fNQCpIGQUAQEAQEAUFAEBAEBIG5ICBkeC6wS6SCgCAgCAgCgoAgIAgIAucBASHD56EUJA2CgCAgCAgCgoAgIAgIAnNBYCwy/PyzFpl/c0mpRCoICAKCgCAgCAgCgoAgIAjMGAEhwzMGVIITBAQBQUAQEAQEAUFAEHh7EBAy/PaUlaRUEBAEBAFBQBAQBAQBQWDGCAgZnjGgEpwgIAgIAoKAICAICAKCwNuDwHtPht03HpHXHSgxt+sRHQ4+H/A45QOPiLpul+gId9HOOzr2Q/F++Ev4qNXb5O3X+dHQ67D8uQjM7Qz9flYv54U/0u8hnzH445XnurPK5nsTDpqN92Z83Drweng2de29KQTJqCAgCAgCgsBECMyNDIMEua6r/5qvXKpt16m2XdN/+dtblF/LUzqXJ3vJpsSiTa3byb6Mbey52g/8DfvbWMsTuT2CCJJTfdoh6tapTURquUy06+iwSw+bRK9r+l5dq1Hzlt0Xp/kD4XTcLlX3muSsl6m8kiGilull6P0OEaWUQ/SyHOuv/JLIUSkigu/hjvPS3oT/0U6t7lCc39Rmm8rLikgjFB3WvPGPTtX4T0G/VGaLKlmL6Ajo9bvCM6KEssjbzfe/wCTmkIK6y3V41PU0J1YDCZzjA2eXIusO2ovrdqne7FD5cY2oWdVTPHW1RvXr1hxTLFELAoKAICAIvO8IzIUMM3GzEkqTXRBe/nNWUgG5La/nqbZd1QTZe9XoK6tRZMz5KE9qMU1ppYhe9QgnZL3W6g6V04ra1A7IsLPbpfSCpckpYrKsAtGzQl+c+OE86WpyrpQi/GVsRaU1h5rbW+SRq6WzTOrNa3MbJNslSM5AnKquS0mVI7dRiiVWpYZLOZUk161qP5BgF+sUYMWY8VUtJMi+MIgpv+88zAb5Mclw84CCiQjSXHxaI1ulqXbf6XtOB83g+3nhHyRgBjc7XSK16NBGWhF5vYlM4wjPC7SzCpI2uDqAyQKX/7jXuInHDLJxqkFUXlDQHs1JZ/0OJgmDEuAwGU7faxPqJeNk2wnKXbaps12krQNMCNNDJ4SnmjkJXBAQBAQBQUAQIKK5kuHTIAiQQJV2O5Sws1T4IEHeK1/Sa5Y2yE55dYPah01Nhju7DqWuVKnLEuImUU7Z5L6u9BFVr9sjsyCmJqFE+Ezy7cVEH2FN2DY5IOW0E5BZa8kmpRIEcsBkNXzFdwkFcmtpP1QvBmQ6LIlsuC6pSyVq3AJ59iXu4SukkyzVVFergd/K864mPM5qnvIfOX3kB5MKfkYvKiaMkfenjX9kpBM+ZAyAz1arQ4UPsuS+qmvcOq5L1mqNihcVua/9Z/A3jmR3HIn6hEmdu/coMmylc5HSXyQ2TIZ58rfxojuwymFdrwckmcmyeeUVm7mDIAkQBAQBQUAQeKcReOvIMMgW68Y2Wl0ityfRq70kSiw7lLUVuY0yuUd6bZbq+x616yDFHpkSzdxanpSVpvxKMiCAIHwYpE0Jq7pgE6TY9fV+tYk4MhwephtR5AAAIABJREFUxKPUHU6qJoE8mZLnre0aqSWHtq7Zfc/hx9Qjzj7saGKtElaQR02yiSiRq1LjRv+StXWjQRsXQeR9nM8T/tO2zNOS7L6LZBgYa91qA2z7VpN2VhVxXTIncVBpSiz4qxOVK2gvvj5wuA3gd0qlyG1uDEzeCntYNbGIWiUjVrkVBAQBQUAQEAROB4G5kuEo4mYSPL6vQ8Xg0NfrZOlrYzNFyet1Si4ocvd8dQZIpTYu+bquLY/Iym5RwVaUur0VSLJMEplc3dKSqdp6JiCQ1VaT1EKOuo97KgUghBj84fKPWgFxVhczlEtbwe/2i0qgdmEWV5gI4B3IsK2cAVUEzjOuzv0aOQqEYlBnGMQrc1EFcZtL2OY90hglgQ8TeaSpgmXrRIZo31crye95vurI8W/4mTf+Jq6zvgcmXM7ThP0ukuGdQ6JkwiFq+sQUkyGVq1LnXlpPMs36ivvMzRo5S4pq21t6App/9Jmuo+mreU1w82sZKmISmnaCiZc5MUT4UGOq5tDeBlVUpikX+UYQEAQEAUFAEBiGwFzJMKSvWpJkqAKYUibcQypr6v0yGWOC5zzpkFqwqXkrSc6up0lv7aBNynaodDlB1G1SmKRgiE3fblLaTpBaSlMikaDaWpLoqEMgvliqbd/tbdjDZjqOj8lwBjrJyj4RGbaUQ/mr6VhCCwLhQEIWQ4bHIW5RpBcVgp9D3ptfqwRpcFZ9NQkHhGUxTbnlRPCu9SgfkGHG46zxH1aZT/ruLMlwvV6n3//+9wNJjno24GmGD549e0Y3b96k/f19HeqbN2+oWCwGv/EQer+FRUV01KCwPr2rTY+AwvourCZRa2JzbI1y92qUURbVtouEyW1xfYuo60/yTDIMLeTiZoOoOVolh+OUqyAgCAgCgoAgcBIE5kqGQagqLlFSZSKXRLUU6mqNti5DSuRv1gmTYWS+BjHwfi3QV2wftan+oEp05H9jkuHaK48SywVNlNtdX2e49dTRUuT8JUXZq0VKXy8cS6Y8wpYxtVQi2vYtTjDYuaeeT5oN6w2ctrNQk0CeTP3KYfdMXDntuDIZbr6GukXPkkdlu0aVzXIgKTclf26zNkCG54W/mZdZ3LPEs77mrwDEhQnchmE97B1PXr71rW9RPp+nixcv0meffRZE9etf/1qHHTw45ZsnT57o+BDvhx9+SJ988glduXKFfvGLX/SlQ9frdJnqaxaVmh45CzbR0Q5VXhNZCxny9noWN8JkmLOQvN3SevPuQY/kNl4SuS9qeqoHyyreyzKBPNPL/s2yHIZcBQFBQBAQBASB00BgrmTYe5ILzCv5O/d7EiZkFuoFFkyL1XtWHZhwmgQPBLewUiDnSZ02lpWWQjU2c5FkOLvZpsZmVr+rNjqUXy8T9IQhLW43fGsJpSZRwcKAX9dkPQ2yblik4DQo6EYuWlS/AXNm3YAojkuG5yEZhu1i6FqrTJGQ/hw29nm9TYaQrudgVaNbjaxvnPd54h+ZsDEfgqwNI6zD3iHPLOk0Jwl8b1/bClQE+Jl5xWTi0aNH9MEHH+jUIq6f/exnQcpv3LjRR0KDF8c3P/rRj+g73/nO2H+/+tWvwkH0/f7CF74Q/L516xZduHCB/vrXv9K1a9d0OnDPrrwP4psm61KyT5UkeasZSI3hN4oMs3UOSymyFi1qH1s1gW5+7aqiHfK0mUGQYZhawzPo94sTBAQBQUAQEATOAoG5kmEmjaUWSG+yz5RZG+at0uUB3UGTjDVcotTqFtkLCU1wnaeuJsPlRoPUYpYg6YU1CVMyjMMmYB2g3HIpuZChTr0YbODhwwKCpeB6gdIPXCoZG8hQKCCMpYsWqWslKt9MkbLzVL1qUfuoc6Y6w8UMdDN928xxV5Bek7hCsgkLFSqR0BsC616X7KViYNECG+uiTN5BZQWm2c4D/idpGGzdIGxpY+ulS0plKL8IKxI7QZ0w/Y2yKGHWs7g0Qg0CKgmQwoIMQ02B3Te+8Q0tmeXfp3kFCUca2IGgf/e739U///SnP0WqcKTutnXdIUMSDJ1iZTnUvuvbt44iw7knXbIspVV+yvs1shfSVH9eImUVyHuaCyTDsLmNviCJvkA2z3HRyFUQEAQEAUHglBGYCxmGjiA2j/GmHOQREiYHeoldyImI0ndblFvA734JJZOxTCapdYXL2LHu+suq5kDc8Yjsa1WyFxQlM5lgA529XqfArJlhAg26y+ZBE5BaFXOK1MVCH5lkKZf7MBOoGsBebdp2qA3JlnGIB5dd3Aa6kxy6AeI1zQa6ZsvF0WpB2qFIUttualKdWClRMQ2C7dt2LsNCxWKOqtdT+j2sUswbf8Z01lfgmbZQ3mlqb6anCn4cMswBr6+vk23b5B2bagBBBjm+f/8+ezmz67/+9S8d9507d4bGyfr0YfvLziOX6rdw6Iw7IBlGe7EWC1TadALTajh8I/e0SwULesj1PjKMFRps0BPp8NCikJeCgCAgCAgCM0RgLmR4Yx92fJNEhz2iC0lw4nJZS3PT62VtJaJrqEdwnpmMNTdT5O73H+Oae+JvoOOT00Cqm89alNps9hFdWEnIL1pEh/7JdDwAm6fc4UAApdI+IT/01QgQHkgyVDFwahnr3YbTxhJvfm6SYZBxSFkDQj6BnWHTtBuIF+ugcjxR13Aa2U/4OVRDUigT40Q8Z7tLjgWc/I1O+Hae+HPaZ32FCoBaSBMmOKgblrICm9OTxDUJGYbe8EcffRQED0ktyPCf//zn4Fn4Bn4m+Rt3M96nu5/quPf29sJRBr9RP7B6s/GgoFWX2CZ34OH4xpyQ4hGkyZhkll+2e2QYhPfyVnDynLmBDt8U6qiL/gE44fDltyAgCAgCgoAgMGsE5kKGoXpgSmE5U1WXSF3I6YGZl135HV+ZjPHSf/kVkX0h7dvOhbpEyE4uvguTlMKuS4kLKX0oR+dFVUuhebc8x8MEiaXV/LzwwCXa39A/w4SS0zaMDLOaBi+/45CH+icNct12sDTffO1S40mN3Ne9Z/CPQz/YIU8gT+P8MVb8La7htDcPPMqsVylxwabyaopK2zWtIxomPZxHDvOs8ec8YGIyCwniVsvTKjWmtDO92dYrCp0n/ZsmOe64a7iexfnDc+jn1mo9Xe1rH35IX/rSl4Z9otUaoNow7h9biIgKlMk3W49APXr9+rX2ivChN8yOT+rDBjro8pqrOOyHr2Ey7KC9NEta/5+PFgexTmPidbClPwuTYVg4URdLAVnmsOUqCAgCgoAgIAicBgJnToZ5oGMyhUzBOpPzoEEqkSLHVpS+WdKns+EEObcJ6TGoj+/CZAxS3dpeSy/jd1tQl+j55W+iSAo2kuUeg1BahI097Ue54NsKJIWLWSqvWqTSJcrbisjtERcON0woOW1RBJVPoONvkUp9Ut5SThMvU2Wk+MwjlUiSnVBUXc+QZxyDzN8jT7OUDHO49TcgIgVNsqE20Hxc0GoV/J7zyOU3L/xR0lrn9AnKbXKHA1mymw2talPJWlrSz6EgT+lbTY0B1HC8A18Nh9/HXaPqWZxf6Ad//PHH+jXIJ+rMD3/4wzjvM3+OjXhf/epXtTWLL3/5yzr+v//979TtdvX9wcGBjpN193F8OVZD4KD6YNsFckMWVvDO2abIia65OtI+JD3Z47YaJsMIZ+e523egjo5Y/gkCgoAgIAgIAqeAwJmTYWymgS6w161qqwaZ9S1SCVsTQrbygHzCQoQNiwfYgZ5QVMylqb1bpjZ5Wi/XPCEOagfD/mCr2JREw5wYpKCwTwyy4zyoaiJev25RqQG7xWligqSlYnae0gmcatd/IlYcGXYf5wIpLyS6pYZLDiRhtEMgAs7mDqkLKZ1nHPhBXr+6B/IPsl7abVNiKac3LRVXbPL2a8GhHzgSd1ydYT4YBHaCd164VIUu8LKvC40NZc1XLpUe1Mm6DKl8gooZm7r7tSB+JuU47Y/J8Lzxj1K1Gad9YOJVeNwM8G89wOEqgxMohFXcc3W9QB10MDFr+IeRcDzaRvP1amCHWV3KkiaNx6eusb+oK+wMf/Ob39T1+/bt2/oKU2dn5SAZBiHGxrk//OEPWmWDJ3E///nPg2QkrtcDXf7goXGDtYr8nbrGQNumtjNUWemZQmSvJhnmZzgAp7Fdo8JuQ59GZ6rosB+5CgKCgCAgCAgCp43AmZNhLEFjgxIvvaYuKNrZdCIJITLPy/fpC8lAPcF941uEYFWDUdfkrYYmwx61KQFrCgtKqwJ4r3q6sCBJlZZLaiFD9Rs4gKOnktDsQp+5FOyY50IJk2EmBjDVZrq6S1RZg2oF9JfblEoMz7P5LWja1jNXHzMNndZhpr3iLErwc5j24iN0c8s20cuK3r2fUEnKLFtU28wPSKFZgp22s+cKf+iH+6eURRNZE0Pz3tntkr1gkZ6EHJ9qaL4P30OCjFWL0kpaH+BivscUxr5SCSZizmWbus/9pX/TX/gekmBThQHkEyoSw/SFw2Gc1W+ceE6vQfvjHevBY0JaXEkRvR5cRYkiw4U9CrCrr2PTIiITJwgIAoKAICAInC0CZ06Gzewdb6Q3H536vY7zKJ5AeYfx7+ioP3nQ/x1lbqv/C1/iS0PiD/t/137PCv/uIU2MfYBlqByD52dwA/UDSGBhMxgOqgn4vb29fQaxzy8KrHR0XZDdIe1rfsmTmAUBQUAQEATeYwTmSobfY9wl6+8xAtAXhuUGSIiXl5f7Dt54j2GRrAsCgoAgIAgIAnNBQMjwXGCXSN9nBGDB4Ze//CX97ne/e59hkLwLAoKAICAICALnAgEhw+eiGCQRgoAgIAgIAoKAICAICALzQEDI8DxQlzgFAUFAEBAEBAFBQBAQBM4FAkKGz0UxSCIEAUFAEBAEBAFBQBAQBOaBwFhkeB4JkzgFAUFAEBAEBAFBQBAQBASB00ZAyPBpIyzhCwKCgCAgCAgCgoAgIAicWwSEDJ/bopGECQKCgCAgCAgCgoAgIAicNgJChk8bYQlfEBAEBAFBQBAQBAQBQeDcIiBk+NwWjSRMEBAEBAFBQBAQBAQBQeC0ERAyfNoIS/iCgCAgCAgCgoAgIAgIAucWASHD57ZoJGGCgCAgCAgCgoAgIAgIAqeNgJDh00ZYwhcEBAFBQBAQBAQBQUAQOLcICBk+t0UjCRMEBAFBQBAQBAQBQUAQOG0EhAyfNsISviAgCAgCgoAgIAgIAoLAuUVAyPC5LRpJmCAgCAgCgoAgIAgIAoLAaSMgZPi0EZbwBQFBQBAQBAQBQUAQEATOLQJChs9t0UjCBAFBQBAQBAQBQUAQEAROGwEhw6eNsIQvCAgCgoAgIAgIAoKAIHBuERAyfG6LRhImCAgCgoAgIAgIAoKAIHDaCAgZPm2EJXxBQBAQBAQBQUAQEAQEgXOLwFhk+PlnLTL/zm1uJGGCgCAgCAgCgoAgIAgIAoLABAgIGZ4ALPEqCAgCgoAgIAgIAoKAIPBuISBk+N0qT8mNICAICAKCgCAgCAgCgsAECAgZngAs8SoICAKCgCAgCAgCgoAg8G4hMFcy7B0RuW6Xuq5LRF4fsm7XIxfPD7t9z+N+tA+Jatt1am7XiAjhxTvEFBcvvkLcjWaH6LAdH8gM3nD+vTeD6a03XXJfNcfO/7TJ6RwSUXcw/vZrj+iwM22wZ/LdecBvVEY5jeE63j1EHXTJi8Cew5y0DfB34SvSQF5/+wr7meY3520W9ZfDCuM0Tbom+Ubq/yRozd7vvPAf1rZGjQ9AIfjeG298mj1yEqIgIAjMEoG5kuHySyKlUuQoRUQ7fflSqzuklKL2ZqrvefMApLc28Ofcr5FSNmWUotp2ceA9vvH26zosxKSUExlv7ZBILeR03O7DTF/c/AOh2EtFspfssf4qV2wi8omle0SU22yQ+8ghzn95WVH7qE3ZK2VyG2VqIn1LJZ0G2stztMEVIdlXKmPFjTQWlxC/n/cgECLKPuyQWkhQOa2IjnrEf6dLpBYdSihFO9eTYMvBZx2PKHW9RuV0Qn9TrAOL0TiYaZg3fkFmprhpEVF+rUL5tXzkn7u30Rcql3G4jqc227p8d1ZR96NdXBuAb/eNR7Vnrb56Xtys6jQ5a3mylzO6XFC+aEfNW6gDvjuP+MfhxGk2r1L/T9Z/mFhOcw+yWKu3++peVJ/Mz+IEFPPqf5DncNuCMKW5Vyev29EjUdz4wHjx97Tr6Ef1fW8oHnUIaQ7buheeZOzgvtXsPzkNchUEBIHZIXDmZNherwfkKWHbeqAG6bKXrOA5OgCVsPQ7+wLe+WSrvm6Tswsiq6b6Y2IdJsPjhskdH38/bjpAdol8stk4AtEsUHpBUXm3rCcDG8uKkreqOk/tu6mAJDsLIKn9kwQUPUJSy/hWkb2YCPBhnPiaWPTxDRMxrj4m6W3fT+vHoL3W8UTEWVRE3f74m0j/RZ+oI63jYmemYd74cf6nuY5KO+pY5QUIc55aj/K9sjye8PHkQV3wy8ZK9Oo3lxtfw22A6kWdZLP8x62DRZSlnmb5004M9uN+O+v6i3WI2naTmCAgU5OQYTP/Uv9TNGn/MU29N78x8R+nDplt3wxnXv0P0sBklseE/J4/rmByym08Lt3m9zwm8OQ2Do8U2v/LchB2nL+458PSYmIq94KAIDAdAmdOhrkTimv0w56jozqpZBgz+OI2pMiZQIpcfNTUhBLkPLHQT04SCyCbPlFnMsLLaFjmDv81XrmUvAqi6kvksrbS0l4unq5H5DxqU+1GhkrPWqRUkkqXFJUbdSpmskTdBqUfuJqohNOCyQCcORi5j3MDaeA05R774YQ70lEdd1QZ8KCB+EtNDBxJchKKnKe+BL96Vel0VF64lM3mqbKWJddtUdVFGnJ9Uvh548dlMc2VB0qUWftVg1ovWtTZb1HyVsOfzGz2Jgior2GSN+7kIaoMeOA1yz+3nOiTUNcelLSEqrFd0/hrtYMjIN5z88afMWSCgJSZOHW9HWq+cqn8uE65NazApKl9r7dKY+Zf6v/k/UevJkx3Z+KfS1t99c9cMUmu5HWbOE/9D/pftAm1ijFA6dWvcs6m9G3/d+NWMuizcgp9WjXoX8nrBuoR6qovvED9Q3ipu+jLFWUuqj48MmvAIElc17nuh8PmPjt8jeo/pys1+UoQEASGIXDmZJh1rdDoSw0QpSShY6juV2njRolae1VyX7eJOxt0TtxBsH5l1FJ1+io6HYuSCp1Rpq9D2ljLE7m+mkAUEQTJ2NonUok0WUqRd6yawKQve0ERva5oHEEksETIUi33NeRcntZSzqzvkFrwJX6pC4pajwvU7nb7dJlHkaGdzVQg9Q0TIl5SNwejsJ+o33GDkSl1tyCNPybwtt2TNrME0yTDGoMnDSKvE0iGK6uK8nfqxOWQtlAOOarsbfSppJwH/IY1iFHveDCDtNTZ7ak6cL0CTlzGUWQYgzHqM5NnnkRwHTev4TaAwRjOLH8myKPSze/PA/6MIdpqp1Gi2l6T0je2dPuNqr945j3JcRb68h/n33wu9d9fSeP+IwByyhuz/pn9Qjg4bgfnCX+kCelRq8crIwtKS9bVNfRTw1cc0daihDkguqnj8MIYc10Pk2GkoX24o8cGVicJXzHG7Byij4lW6QvjLb8FAUFgegTOnAybSeVNMx3XJWvNn5mXLkI1oBnMwKM20HEHM6rz4vfcESHujT2XeLbOxNndK1Mb0oJMWZPhxr0sNd0OqWW/g6yvg5B3CBuFeCDAt9kb6FAtqt9I0g51daeFOFt3MrSD8BYdSl8GybQDyShLttPXMfj70uPckqLqow0t0Ss8rvtSVyyrHdWC+DBhoMOqho/TgLhOIhkzBzLG1MQKkZkkD7QfhBfSH55g8IBXXlVajzlQfTmWsJcfZvs6c077PPEz6+Ck94zTtGSY42Ncx1GTMMsJ3zOGKP/8SrJv4mdK5sz7+h3ons+//pZ2XUpf8yeu3D6jrik7QblrGVJWWpMUk/Sb+Zf6r2jS/oPr4LRXE/+ta3asrmzmpt+nx5Fhs15zuzrt/gftDm1XrfpqZq3NlN9XWwUtJcYqIAsGwup7WBlkNT/WxYeaTnbJptRaQdfTYgZ7Vnp7WngVkvPF+QQm5ZdYVUvFknB8s/MS6RQyPG1dle8EgXEROHMyHDWzjhoMo56x7qLZoYQ33pkZZ3/cEfE7fq5n57QTK4kNpwHxt6mt/SPM8vYGqQV/sN64i07NlzbsPHY0Ecb3uat43yPDjQOP7Ct+R2wtQhJhkVrwl+uq11Okcj4BT4P8virrDRdqIU956A8fb4IzB6NwGqN+xw1GUX7jnmHgMuNlTJkM11axpNgNpP1QI3DdBtW6kP73OnMOY574cT2Y5sp157yQ4bjyCj/ntjNv/K0bvjoJpw+rE85KijIfgSD32gnKhtMKv3FkmMMZdpX6399/TFPvzW/MchmGO787T/gn77apsgIyXNEkFP1aoQ61L0uTZNQ6buPhdDMGdeybsHzyy/WSJ7ec5/CV+0szbO9oR/eZ5mqQeQ/1i50jr6//5DTIVRAQBGaLwFtNhsMdTtxv7ogYOrNDco92qPZJU8/mN7ZrlL6UpfK6Q7Wnlb4ZPmb77ToktV5AhrEhorxPVLmSpdohdMZ8MtzedsjOVqh1N03ll+jMehYzrOuQ/CraylpUbuGblJbs2FdABvqX6dDRll+ho077Fh/YIoUhoTWlf3H3FaiJEJRLfMcdt6nvx9JyqInkr6YDaaOV9i1rYNDAEvtWvU1qyQl04JgMO6tI+/HSo5EPfs4DCw+kXCbzwI9xmObKdWdWZHgcNQlTgoY0M4aoL7WbGV1PC9e3qPbU1xdmyRTqs7oAybzSBMCUDM8L/8qeS8VtrIpkgjqEPJk6wzzBNfPJpAN+zRWKuDpvPpf6399/TFPvzW/McjmJZHge/Q+EMVBlYKEM2la56ZGys4HFFW7j3GeZecd97in6dL+vLiwnyHtVC1bQJpEMo57Xmu7AOMPt123WRhLzcNrktyAgCEyHwJmTYTOZ5Zan9XTRseysWn0mvEx/4XvurIaZUUOHEl6iApkr77Yps1bUqgjcofFSa/4TSDEtvbHO3S8Huso8W4fOMg8ETCZgKi272SCV8HWFEWbKtqixmSU6cgcG+Y3nRK0HDpXQASubcouK2vWy1juu73WoUG9RZsWXJjduWJR74ne8bBor/6gVEFVzwB/nHtYN4JgMmySLMeV8MeZhv+H8MxlmyTBjxddhkmFMJs4aP87XtFfGaVZkmOvgsKtZTkh3n+m9Xed4806CmrdgBq/nck+guqO06g89K+gX4fKbB/6MoVnXoshwnwTuWI9f6v/J+o9e7Zj+jusQ6la4bpqhct8QJpXhPgXfRNUJPA/75bi57nAc4/Y/zQOPuq1GHxlGPJWGS7XHvgCEx43w+EIHTTKt6XCbtZWiZCaj29okOsPINZNyDsu8IizGJYyhibPcCwKCwMkRmBsZLuy5pBaSugNBZ5L/qH/Tm0nuWD+Vs8sdRFini01S8ZV1v7jjxPfDOh+zI4q6R+fEnTF0Xgt386Qu+Dpftn2s8mBIRWFJovgQKhHJQGcYtjWRPt6YZuqMQveMXlVoB8twCw5lLUXqctYnM3WfzJw0/cCAB5ioPMY940GP8w9M28/L5Dz0N5FBZ5jNvZlh7GDTSYSaxLzw4zo07ZXr3qzIcHj3uVnv1UV/gGXsOc2cBuAMiSlv9IRUv3ts9xQSd1bhMSeaXH7zxJ/Tb7ZLkwxn7pd96y7HpgFBSsj1N7BK/T9Z/8F16CRXrkOof6Z016y7uD8NaxIc97T9D+eb6xG3Lf5t9l3he7S1zEMITHoreIXrWSqnk5Ta9K3qhNszr7hxXee6z+SW42WBDIQIvLlWyDCXllwFgdNH4MzJMA5tSB5vljM7lWH33JEwHNyhYEAPW44wO+RwR4TvnfuQDGPp3yeo7lFNbwrjjju9iDAdLX21M77qQnIBz7Labix3xiDw6mJSb7qoXU/RjtcJ1AQaDx1KXPZt8UIfGHnjzg9kmO3/MhEeRdoLFjbT+dYw2BpHuenSxtUctZ9D76xDDWzYu1TS1jTcRmlAqo1Olq1xMCHnSQOunAak1bQmwX46D7Mafs4/iFd60aLMDV93rnY3qckwlwnjGUeG54Uf16Fpr1z3QIZ5AITUnicYGFxZWoXBzCR55rKofQ2qAorCy6q8RIqrymAFQxEvRWPZFI5VZ8x2kT4+xAPlsvUAOuu+ekvYVjSX3zzxZwzN9Js4lZogFr2Vlvp1mBTEuk7v5C+p/4qm6T80iCf8x3UIdXOcP+77ONp59j+cBiahTIbNFQceN7gv4zHFe1EhlatSDn161m9frL7D7T8OD67rXPcZE04Hh4P0cVhChrm05CoInD4CZ0qGMZypa/4OY7PTMM2n8fI6rmx6jTsShoM7lPAylkkkotQkwt9zhwSDVejkkKZyNkHeQZPakM6m/Y1uUFdgxwMB0rSzW6ZGo0o2rFAYpslwahzCLNxu0sY2wujpDOtDLY4xcB/4tlN5ORsbO/goad7UgTS1bvcvfyMtydu+XUv+htMF/8PILJNpE2fcsz1LDADDyLQZj5bMX/Kl+2wSju1nso3jODI8b/y4PCe9og5jo2DrjRtYG8Fkqf1JQU9AYP1kGBnmwc+s/+PeY3CEY9UZ08KIrlfHh6VweFkctLHvS1Q5n1x+88Sf26/Zrk0ybG4swgQu+9Al54MEdfagTuQ7qf+KTtJ/MI7TXLkOoZ7xRC3c9+J3lDWJefc/nF9uh0yG+TmuXD95fDDfYQMe1JHYTjGTWCaw4cktq1xwXQ+HzekwD4/hVUMhwybyci8InC4CZ0qGkRUM5CAP9e18QCaiOiT45QGSOxKGgjuUadQkEAZ/z50d9CaLj1uUWPKXpdHJJy74Zs8KIBRHDY46UJMw02QS/I1lHFMMrU7fcR770EiVAAAHh0lEQVQ4rqZHZK/AYoQffuICpCsJysBaxIFPXFoeiHjP7mXe7j8JztSlrF2ztG6yOUANI8Pc+TJhmuSKztmMu3ojSUrnRVEb6hDHp+KZYQ4jw9AZhjtr/BAnS1fjTvnzSy/+P09gLKiyLFhalaVzbAuXzedBkhsu//CGmfLjGjm5Yt/mt9LDGpXWnECHkYkGwtMTyqv+hBLSaX87HVHDxRHd/uSN8c9fUnpzj5kLrifzrL/c/sw01F2c2rdB4c1uSLta8zed1q75kwGzDkr9n7z/AKYnqf9ch1DP4vpuxMGTQu77dFmGJmxcV8e5zqL/QRrguB+MSj/XTzPdx59R/TkRHdaD78NkmCes7J/D4rrOvzlsTkdU/oUMM4pyFQROH4EzJ8NtbAV3WwGpRCcQp3fGBzhwRwI4IFlgKSZLIcNSTv7N/ljayWoCNUh9DT1WhAubxzutLlkrx+oNx0uAdkJRdT2jpcXwxwMBlplr953YncBMYJz7IC49k1EgMy23S5nbGOB9QgwMQOw3VmyqtuqkbMMqw7GaRTrhS2yRhuStZt/yZMZWVHlQJHUpr9Ukuo1SsKzMmAET2ElmO5ms/sBXU7IdRabhDyfgsWQbeqhbB9igldZWAdqwh7lcDk714/zXXiOtg6bV5okfMHG2UQcUVXMgWCiV8Z2p7+4+zFDpeVfr56IM2/fSOrSu2yXvyKNiHRj1yh+x4OCN8m6LbH1Cl18HusahEly+CC932aLGgxJ5Xd8aCJNrpL15O6nrbErbTO3VJdhKNetWMWNTp1klOvLORf1lQoA8bK0mh7ah/INasLcAWMMxPvgef1L/J+s/gOE09Z+teORwqtqx/ee4vtvUGWZ1A9i6ttd/HXl8/Fn1P7oChcgwH5/O6hBxahJsqxthMIkNk+FpdYY5HISN/oEP2Ck+xwbq3p4TTr9cBQFBYLYInDkZ5uQzqeQBbdjVJMPcCQ3zH/cOM23Tzilm5xsvdshagvUGg0wsKNpaz1DKOBgDxMT7xAnIRFwccc9ZEsCm1dhf6YpN2dtb+uS65CWQGPz5FgCwGaoAMrWQ1JJH/HZ2Qa58SWTjqaMPuuCwRl2j1C24PJigmFjzu/DV7RJ1j1yyjtU9SksglE1y33j6aFKQS5YKcZrYTvIk5c7f4jor/Dgv9vGEggkWPx92xRiVugNy79cVc2Mal1PxkqLmYYPUUv+kiqW42cfQLe/VNZ23DxLkPvOl5Iij/Em7jygzDjggIPHR8UadBUXZ2/1x4NTDzlNstPSojNMdbd+sGn8Pon4e8Ece1bF0m9M26sorJ1L/fSk54zVp/8H1e5r6P23d4bRyG+A0mNez6n84Th5HIBkO91Wc3vDVTD9/zySW1STC3/Bv7lc5n9yfcXrMK0vt+Vtc9WFUhnlM07/cCwKCwMkROBdkeBKdYXOjA8/kx73CtBjrWyag53kvoyWd0BfG79xlm5qPS0QeZCC+a7lEqetVKkP9gdoT2zhl6TZ3fhstorSdpurtXCBtRkxaYt7tEDZCZe0EdZ/39CMheaytYQNbVy+HW9lynyk6mAsqPfBPhgMWmWt5spdSfRKYNCxVtHphcv74yp00d9r8fNh155VHVrYUqdNccSF59dVObGB9vAGPpUvjltms8UN+kAa1UtFSbLZSMCyf5jvokifSZaqt2Vo9xXzXeN4l8nwJLi/tYyDD6kJ317cG8v/bu3veJmIwAMC/G2VBVZWJDhXKykAHFpA6lK38AFhAYunAwtChK0OkKKqM3kSmV+i1l4vPdcST5arkzn792L28Od/Hj5iVOHqfFvNZ+n75LqVVpBgPv37FEeRvP9PL12fpzYtZSssvm1vRnXy4SjeXp3ftmM/S9efzf+Lpnv7z6XR7SkUL/tHauJD27OPXdPxqcW+c5pmKvDyZH6eLt4u0vN4+fTFOBzH+x+8/wn7s+I8fMfEo+j+zPp0nrQ15L+7T3jcLU2v/k//TcjIbyfDfR4b79k1Djgzves5wjqe77N46MfYf8SN3eXXeXcXfBAgUFni2ZDjaEUcSY/r+oUcux+f5cc3xJJ6Y4p3qtV5tapuk+HttGDodfzsglCHrDChm31U2vbKesG9utxesbcZAQb/uUeydDfa0X6929+olHhpLbwGPt36y8ft4tU9/OrTdT5e01xr/5fjfS6zsxmP984V8fd89u0a5XMV+6u6OPXn7iC8uuJ36OyzXZ0mAwDiBZ02Gx4VsKwIECBAgQIAAAQJlBCTDZRyVQoAAAQIECBAgcIACkuED7DQhEyBAgAABAgQIlBGQDJdxVAoBAgQIECBAgMABCkiGD7DThEyAAAECBAgQIFBGYFAyXKYqpRAgQIAAAQIECBBoS0Ay3FZ/iIYAAQIECBAgQKCigGS4IraqCBAgQIAAAQIE2hKQDLfVH6IhQIAAAQIECBCoKCAZroitKgIECBAgQIAAgbYEJMNt9YdoCBAgQIAAAQIEKgpIhitiq4oAAQIECBAgQKAtAclwW/0hGgIECBAgQIAAgYoCkuGK2KoiQIAAAQIECBBoS0Ay3FZ/iIYAAQIECBAgQKCiwG8jNvaWB5AoDgAAAABJRU5ErkJggg==;" vertex="1" parent="1">
                    <mxGeometry x="610.97" y="-160" width="578.83" height="140" as="geometry"/>
                </mxCell>
                <mxCell id="32" value="" style="shape=image;verticalLabelPosition=bottom;labelBackgroundColor=default;verticalAlign=top;aspect=fixed;imageAspect=0;image=data:image/png,iVBORw0KGgoAAAANSUhEUgAAAxkAAAB/CAYAAACDpg8lAAAgAElEQVR4Ae293XMbWf0nvP8TV3uxVVu1VXu3d3vzPHfP1W5t1f5uG9MEhGlMZKwMwgiDCCJJm2iMlbGGKEwcrMDIEwUreOQZeYwIYoImCKxgZUyT0WA0ru9Tn9P+tk63uvXitzgz31Nld6v79OnTn/P2fT//iQLpgIj+58J79J+/9CX63//Pf6elhEmtD94iOnB8OQ8+I3rngxa9dj1P/+//Mel//Lf/SQfV17w8//HmHi39ry+R83GdnI+d0L/6xw596X8t0d6b/+E9hxPHOQjNH1XO/369Tvn/+yU6oD36r8n36L//ly9RPvkfRO33vHKdz4iKHzn0n/+LSe9l/j+iz/rf8+EnRP/VWKLWG/56eA/LiSAgCAgCgoAgIAgIAoKAICAIjI3AfwrN+RkR4e8EyTkAX9In5KOKAkMRZGCi8o5zHcwPfQZWKTwdRN868TeHv1GuCgKCgCAgCAgCgoAgIAgIAl8sBMKZjC8WBvK1goAgIAgIAoKAICAICAKCgCBwiggIk3GKYEpRgoAgIAgIAoKAICAICAKCgCBAJEyG9AJBQBAQBAQBQUAQEAQEAUFAEDhVBITJOFU4pTBBQBAQBAQBQUAQEAQEAUFAEBAmQ/qAICAICAKCgCAgCAgCgoAgIAicKgLCZJwqnFKYICAICAKCgCAgCAgCgoAgIAgIkyF9QBAQBAQBQUAQEAQEAUFAEBAEThUBYTJOFU4pTBAQBAQBQUAQEAQEAUFAEBAEhMmQPiAICAKCgCAgCAgCgoAgIAgIAqeKgDAZpwqnFCYICAKCgCAgCAgCgoAgIAgIAsJkSB8QBAQBQUAQEAQEAUFAEBAEBIFTRUCYjFOFUwoTBAQBQUAQEAQEAUFAEBAEBAFhMqQPCAKCgCAgCAgCgoAgIAgIAoLAqSIgTMapwimFCQKCgCAgCAgCgoAgIAgIAoKAMBnSBwQBQUAQEAQEAUFAEBAEBAFB4FQRECbjVOGUwgQBQUAQEAQEAUFAEBAEBAFBQJgM6QOCgCAgCAgCgoAgIAgIAoKAIHCqCAiTcapwSmGCgCAgCAgCgoAgIAgIAoKAICBMhvQBQUAQEAQEAUFAEBAEBAFBQBA4VQSEyThVOKUwQUAQEAQEAUFAEBAEBAFBQBAYYDKefNQi/U8gEgQEAUFAEBAEBAFBQBAQBAQBQWASBITJmAQtySsICAKCgCAgCAgCgoAgIAgIAiMRECZjJESSQRAQBAQBQUAQEAQEAUFAEBAEJkFAmIxJ0JK8goAgIAgIAoKAICAICAKCgCAwEoEvFJPhvOgR9boDoDjdHtHB4PWBjBf0wosXL0Jrdvv2bbp27VrovWEXX3/9dbp58+awLNQ7BJSDmPWIqOvgOs7GT+q5fWf8BwI5O3soYbzn0dy9F9F5cae+1SQ6aAfeEv2zvtujdr068XdHl/jq34nCGX3nOH3koiPy5MkTMgxj4mr+6le/olQqNfI54Bk2T6mx+GJwLI4q0DnEkIkeB6Oe7+zh2fHGefcA80X0u9oHRM2t+thjGHWrNh1ymhhzX+yk5k7MuYfRbTFqzPUOwp8dZ22MWle5VTA3SjsxGnJET6vW29TbxXgn6vXC+14UUp1Dok6zNbS/Rz076Zx32nNuVL2GXY+aO6PW12FlvYx7Z85kNLtExeUC0WGfYGsRUXapTNml7MAfPS0P4LC64wzkC3t2dSlL5LgdF4Wg61Y2O0TdOuHtxlyRaNtW5RceNImeuwuUcaNKzdvWwHsv+gUQJyBq8Pe73/3OV9133333WAQPF3L16lX65S9/yT8HjpnNHmWmDKID/yJf2ieKGUmix7mBZ4ZdSD3oUBLl7RaHZfPuYdHkRbV6QGRMZaj7KOPdx4maIEKYSnubqDgHYrDfJ/UHa0SUMGyqPSlSfCZLzo7/WwpPepSdSRA5/W9PrLWHlqmXf9HPh43P4LhrPcz6PqfhELW3KuqajnOtS9RcQ9t2aXWXKGPEiQ7cfL4CXtEff/rTn+hb3/oW/fnPfz7WF2QyGfrFL34x9Nn4nRYVLqPfooX6KVcnShkxImdw7uzn8p9hbrRuNcieNoi66PGjk0sLuARBoUUURxs2C74HsSDyuNRvYHzUFqMZsOIzIttIUHG3RmkrQb1WSX+c0hsdKs5bRL3+txuLtaFl+gq4wD/ALFW3qmP9hRHrPF/Rs+i5k/ElGmxrsH7GQpmcB4OMLjBuryUi0Quuq2EZue0T99tUSvvbMCy/XDs5As19iuxPYX0I/SNhJGhYHzp5rdwSuM+gX5WfE1mXUtRaT48tsEB/Ki9gLokWWoTV9Thz3knm3LoDOnd1LNrV2Vn1Vbm616Nu3V0fefwgQ7lJ1Nly51x7i6gwAxyavmcv2o8zZzJAXBjTNpXTMY/RwDQXM2zKXkt6DZBZypIRS3pMgA7UKCbDvpklYzpJSUgR9/oTLWR7scUaFZMGtantMRn2dpeSUzE1oBrIE8tNTBTr9XsZ5wcHBxSPxxVRAybj5z//ua8a3/ve9+jx48e+a5P8+Mc//kGJRIJAPAUTBqtxrUr15VjwFiXXnaEdP2ryK25VyZjOUPGGFTo5stQDL6z2iGJTtq/N4reblAPBdIgWdVPqgUO5GAZh/xru6MQv59WP+qJdavUoZaWJnvcJOO5Xabxv172OiWAY46KXz+fAFhgzoxg8XrlyhRoNf9352bM8jsNkxNM2GYZJ9SU/4VjcRdskqbeT9XBuH7bJSBapvoT+0iO0y3EWibP85pOW/eMf/5gePHhw7GI++eQT1Q+gDQlLaBPjcoGc9eTA7dhynSoZtIPLAAQzQJIcRsTmN6tkGkkqryRD79N+f/ECY5gCU3HEyGAMGJnKQDvGbjUGrqE++kIZrB9+60Rwbseh3EycqNfv++1DUn0oNwumyBUkTcpkQCgzMzNz4cYbviNmGmTNWEP/DDPmY6ogRHEchyqOQ3EjQ06joH7jWvCv0HAUY+84FXVP1+hXDoiSRobqzdIAUWRcTlEmGfPWaRYyMFHEBCML78LaltseUuT4rTo1bkGg5++rwbnwm9/8JmH+W1hYUO2F9W13dzes+Jd6DfVGPYNzN/+enp6mSuX8hSlY48ypwT5lXLK8PlR+SlS/CyGRo8YfMxl4lus/6dFWmtxBRlZvJO4zzLwWnnTJmEpS657LzJb3iKyZ9MBY6DxIq3oir3XJ/235GfSpvoD5NOa8k8y5+N5xmIxYEuuoQZ37/nldp1F5/DAt3T7Ki7m2cWuQBtOxvgjnZ85k4CNBeKhOdMfVFuhEHIPAHW/YZMV5+YhpqrDdIdNKU+6KSb29vmSZ8zQOiYqLq9Q+aComo7NtU+Jqhbqs0WhCqmqR87zsm5iHqfa57Jd5fPjwoeqc3W6XsHg+f/7cq87GxgbdunXL+33cE5hbvfHGG77HrZU6xWYsRWBa06Y3EVA9r+SrIITCFsz6itv2UZPfsAXWmDJ90jSWvOnaJ9Zm6ESYsRROfOlMRhgDm1rKUsyI95ngm1kqQ0umSZBBZFmLNWrdw+TQIxAK1Rt+gtsH3JAfi4uLqi2DWaCdunz58gADGcx3nr9bDlFiuUKWaVJjLUN0OChNyj50yNnOeUxG4UmLivMJJWRQDGqmQo03477x1oXZzhBzj/P8xknfBa3ha6+9NuljA/kxjqHR0FMH/exqmUwLY84gy3LHXBqL6l6ZuN8HF12MJyzKSFikwsZk1Jjj8a3PxSD3jViOepq2ENoMjBOqu5o+1BXMpD4u+Vt4ocTv7MPWANGavJaluAFiNuXeu5n1CCAuA4yGlSySs2V7mun2vTjfHvt40cbbuMxSMF++DmLM6s/HR30jrF3Rf0z0n5mYegbzNafMox6V5g1qH0CjUvcxnEYqT6UQwQ8LffR1O0o4EUtmKHXZ6Lf5TWiH/ZJbrktY2zx79kyNCxDz+jrHz1yE4/vvv6/GZ1Aoh98/+tGP1B8Ed+eV9DVOf6c+DvU8uiaDmdcwRtUw4uRsZHxzt54P83h991NfHwoKOEoQKM7Yvn6Vv12h6mZBmRz3DnvkOF0qPXMobaTI2Sup97W6XXd+uZvw3t92HDKvlqm2CGIbq7KbTjLnncacy/WIOtb2emRdLVDikkmdTcyffqYbz9l3G9RrFj0BDbS5tUUwYl2luzBmCtR56G8LtY6GlBVVj/O4fi5MBj6kvQebUZcggXo/A02CZmqjT1b84YCdbfcarS6Rg2nMTdVnROacTWnLIKdRJLa1023jdQKSNSXZhbg32cE0C1JAfYEGp48FmYlift9FO8JvAgRoWIIW47333gu7NdG1Dz74wGNk+EEsdPmU4U0iPGGAIFFmG1Mxqm4VvPuYYLBQsamEPrFxmcOO3C9Y6sF5wzQmqTtNatyFyr/nDcIwEwC9DmESj/xWlSwjRdW3be87mltgYB2CjbI+qfK5ca1ClWtG6L1RBHQsFqPvf//7/Gm+IxhGEJc7Ozu+62f1A5omfGvn0KHOY5CW7uSH/6m7DTKnLKouJ4h6HXL2e+RQl6rwX9lvKhZMN4OML2QpGQNxkVFjDlKz0r6jpOdM7DBBm7ZMRTSf1XedZbkYi2DIT5r+9re/DbQ193+d0EP/TBgppYnFOMhexngseX2VxySPGZ2wGKeOEAIZhj2gVQ5qTLCkJ25UqL3pmqBCIh4zMj4NI79Pr0OYeZD9dpVSBrSYee872McJNv88zvjYcBwyZgvUuO1nVvn+sMX2Io034BNkHhiz4DEqX5jQLvisrinS7ymBzXyJepsucxskMDGvBTHWtSDcPzH/oyzMBUGi0rpR8q0ZuM9Mil4XnKNtsH4FE5sG43ha6d///rcyM0aZ/PfrX/+aqtXqxFqTG9evq7H76aefDlTvL3/5i7p3mnUfeEnggr7G6ef6ONSv60xGoCjvJ/IYMKk6EtB6NwIn6QcdT/gYxvDiGrRyYYKP8lUII0Hmk6InygtgHrDKuFYp+csGOc/r3nyQvNck/Rr7rOnfGahe6E99zuM+fZI5l+nQFuiFp5pGFnPmYpWsKQjp0oomdvYdgk9aHT5pB+0BDUiQSYeJMmgtc8oVGABPFiLkZ4BXX6MT+rHnfPHcmAz+rspzmE9lBtQ8arJbKFPKAlFiU/1eltrUVdqHxlqC4st1ik8Znn08BsgqVOfUphbMZ9IlylkGJe6UPLMVnYCML5bUQK+upLxJsNJqurb8G67ED3WECooJYq7z/v4+gQDApKSnoNRCv3dW5//85z+VCRMYDEhIgnXgCQ0ajqjUarWo03EHMvL89a9/pb29vYHsmDBB4KJMTsGFjgeks20ru94w9Z3+jK6i5TKHHdEvsnfrA5Ivz/fjSIoaLKPQhAmARbTft+3mSRLfxH9MiOnPY0qwYEIXsDdHHnwLPzvuMQEVcoS99B/+8AdVXtQChL6H97z55pt6Fc/sHOMKKu9SC+ZraSrBzLHX8iTHtOUSlDBpMabiVFpPeQSpTmQUNqpkXEpRZsag6mZRjblWvUrx2w3Kw8zsyI60DM3IEcHMHwXJJf6CDoHBvs75z+NYr9dpdnY2dJzABAcMeVTi7+H7GGvtNkbOYIJG5J133vFu8PjS+ykTlY3dIhnTuQFb+uAzELYEfWe8F4ScsEQ66B+HhS0J3w9tTOmPQyKuzBMP+4sc+lNwnIQRKegHGfSDgJ8Of0uwjFG/o8w2Ltp4A36YU6IEFMw04QiCP7g24Xn0B8uwfUKRIKEPJs7GfBjwycA8mYA26mh+QnuFmdkwsQitMrdfcC6MwhzmkcPM+bgPcduE+QJifkSbf7AdPc64nFFHzCPcf7LZLN2/f18xG7jOf5OYZmGdBHP0k5/8JPLV0MIkk36TmMjMp3AD7cjmu/q5Tnzr1ydhMqBJPEnACHyeThNEfS5oMZ738o97lIQ2dyZJbEFhTlu+vgrGhfOfZM7jOYfLQv0mnXOBM/DP7TTUOlm/FVcMBcqJQ4Czu6rEd+n1FllGjArrOc8nBgwHaxTt9SpBe6QEu5uu31arWVWmqpU01lGXzss9xroNBgNvuFjpTJkMfRJCg1VeEBlmxuefocMBU4zCel1JPbEoBhvbftQhY8qi5u042ds91YjV/TYZlk2FeZOo21SqJR5cKBtNkLzTpKRlqg5qmiZVl9DgHcVQYLLRVe5wAtc719LSkpocIGne2tryqsvq0eM6enoFTXiC+sLOE0dEpLGOzCi4GNiFf+1rX+OfviMYpW984xtK9Xzv3j0lvYF5xttvv63Kwf1gAgGFb+UUnBy4jSr3bcrMZIicQftTPAOMQXpYM/mRUg5e0PSjLuFAXSBZh19I9RoGmitt5zriCKkrTAB05zA4i0MNm9lwqDALrUOD6gddX51g29mmuue/g7Iy95rk7PgdXPV3VWEvjonjiADX742avO/evavaMsr3gpmMYQuY/r6TnmPhYWIBQRvM+QLB96S9V1GY9LZtgvQIkpjOI1tNaUGpNwQJpmVTYj5JpmlQetqk7pMilfdhNplyyz90TRth62+DyDmaHCHFhAM0fFV0W+ZyuaxwehmMBmuT4HcBYgfMPYgGJNY+6Iy43gZgTH74wx8SxhtMQcAswldqbm5OPavnxTmiwekO4Dy+9DmJF7zCwwIV5qBV6vtOoAx+Bv0xyr5ZH1tR50FtLtsot+4MmigpIdF8acBPiyXjYC6ZkC7vYsz1ba4xtmvUUcEWQOyiLPtWhXqtvh9UECf0G+V4vjtodqP34eBzF228oX6YH8OkusF2Cfpk8LehPwR9HNl3go8wRwsSIVgb4VejC0F0wpPL56PXr44k2dDqskYJJjTQHqUftH3zO0z29DIrDlF5Medz4OfyuW3++Mc/8iXviDUt+d3vUpimwMs0xgnGLxj5p0+fjpF7vCzQMmM9BrMSlb7zne/QV7/61ajbp35dx1w/Pw0mA8ySNWV4kvjjVN663QxlmLms+qHrK1u9n1ECKmg124eu0JmZXP278JyiM+BMHuHTERxPYb8x53E/P+6ci7owk4HZWAnWQaPOGlTrNdU85zwrknWjSknToO6Tgs8nhjGAr4p1KUlW0l1Hs7OmClYEhsIwYp6QHfnhBK7TvVzGRTieKZPBH8iNj9/leoeqWxVPmxCUuNRhlnIUOjSssatQW+xWvYkLTqX19YpniqU3Ljz0zbmcYkDaXdcno7VpK61Hdtag9LU8JZdznpQFSzXs3JhYxET07W9/W30GJhFd2gzziK9//esEB+ywBEIEz4z7p5cdVp5+DVJVlPvo0SP9sjpHOVFmVGBK2LEUEiGUAQZifX1dneMYTPgOqJA5oS11aRq3EQY+dCPmQpnaa36JDbe/LukOtjubeOgqSj0Pm05wPXDEYIMdd1DjwFoOEMRhSZ+csEBnDJvgEAnnSBC8bap5TAZPdmx3HlYe6hEV3WcUkwECFFGJPvvss7CiVfugnXI5f4Sr0MyncBHYMJOB4mCGWN9EdLb+BF+qdz0CEPgxk4G86bUGWaalGBCUtXokzYlNxSm7kqbcYpqsmO21GaTfrJEEMc+mEvhmfUzg/Mtf/vLQL9QllHh+nL+hBWK+OmJudKIEDMZPf/pT9Wit5mq2wmzFC4WC9w2wx+Zv+vDDDyPHGxxcdYaSx1fYggeCvHHgMu7sY4ZK8TMYk7pUTB9POIfZlQGzwDf72l09T1gUGkilVVS5rl+YAC1HAmMxQmOnEzcYE4VZ2FU3FMOPxbFGbY/JwPhNIkJdhMYE3xgV1AH3gn1YNdTRv4s23lCt4Jyq11c/j8rHTGcU9igDmCN6FzPzuIZ5CxJ4vd2A3biaDJSh9zX8RjuzeRU0L+i3KJMJIJj3BYU/eA4JbQOmHAnrKsZcqVRSQrV8Pn9iBoPHoHrBKf6D5gVjG+M6LLGgCIzGeSUdc8yxjL8+DvU8o9Yp1Bt5YC4FTQbmeRC6oKOCvrAQ+cHMXZ9L9HOYyqEew4J/IHplzDCUXyQY5OJczBe8B/XR64/fTGecdM7jPn3cORd1wfcx5vgNsrW9VfU0IhirpY22Fw1Vx7/Tg98jGBAI5wqqrOqiQdB6xKdilFnJUm45TRnMkUeaXzBtx/UJRf3OMp07kwF7PfZ7CHKSUH/pEaLCGhuMQ24hR/ajuiJgMverPgdUvXHTmPCO7N4qjQ5lV4oEEwBIcNoNV/oHdXEuZhEd1gkq+yRU9kcRqkDYgHBhrQXUuZxAsAedNPneWR+hrcCkFmbihDozoabXA9+BsLScQLROTU15E7dO0HEeHJEP2hxOGMhBqZuuQlcLlxHzHOvBeMAZVB+wKAtmU811aAfAevQXq2A+fm/YkSVxiB7mluBqriCd068Fn9UnJyzQNrQQVPMWYgdMxlFIR0x2YWFD9TIxwDGhgOFNLRR9YXj1yUN/Bue8+EDCHZUg1UZbR0UugtkbFuBgdLGo8kZdBzZBJiOz1qDa2xnFeNU2bDX+eGHRmQxEv8imsmrRgQtVYb1B9bvA1qEGAsN0m64GKlPxoiRBJc4RqvANYILhT4Rv1jVoYHb1/jvqO07jPvafAdHzs5/9zFccxs2dO3fUNR6L//rXv3x58EOXXMKJH9/00UcfEfJGjTcwJizYQBk8B+p+Y/BjSRimR9CD4NbDP0NjaExlPbMWrlhxx6H2+4i+52r+9LbjPKOOTWjtLhe8SGHIH3YtWI5O3GBMFKGBobZHKDSo7UX5Q9jIKA0lylVazIxrOoQ+l5vP+cLwBvsw1+U0xhuXdZrHKOYh+I6ofGjHSTUZau5Ml6nyKOMxd3gfsGMtr26qhXPWWrAkGfm5f/I1tDPP4Uz0YU3IxWLUoobqO+z/oX8ftw0089CeY+xAYo4xE6Ul1J8f5xymUb/5zW/GyTpRHtACqHNUggUEvgPvj0qYD6DFjNrzKuq5qOv6Goc2YXM1fRzqeYatU/wO5NF9MkCLGbNZFVBA+ekduibY+I9gFUzfQQOnz19Ku7XVN3fn8vnIGlPWsPF8wRFCgWXUH/c9Lus4cx73ab3Ok865wFlnMsA4pJarVNmBWZRNxa1VKiLIh+P6a+j4I1BS8Wpa3Ws8J8qvVTxz18YT+Da3lbFxDALxek5RUKBXghGqGIOXfTx3JgMfDKlXbhohbfsOMVg4EG5WX1y4sdFxEH8/sVjyHGbsTUcxGcVGQ9mOM0etNy476RZbDsWnUtSp5z2HId6MDTVQIWzrOTf8akgc+pWVFWVOxDbisNdEJx+mHj3Lhl1eXlbS77B3wPQJYf9GJaief/CDH4zKpvbK0CWrWDiiHL+5sMS9NqWw58V+2VuEgoMfhBFLsPGc3tZczjhHNfFNJT3tSXINElGElh00o+Dy9MkVC3RQkwGGQy3oawlFWAf33+BycISmA1F3+Pvwfp3g0ycP/TmcM/MapkHivFDtY8GFH01YAoPCjEjY/UmvARswGT2qUX6zQ4aVotycSa3dKhlzq9TZtCm+VFVSJjDwtUPH02SwORoIkthyjcpXTXKctjfm2GEUbQ9pZh3PImLRkdMp1xXjjSWauMYEiK5R47xneYS5Fsb573//e+818F/CNZZaYrzh9+EhNm6JTtB86t8UlXN1dZVg0smJx4Wu4dMdv5EPBGPsRtUL4RzFPICh06VdUfn43VHH7A6kjK4gQb17sUY2QkV3B6P7cRk6cYMxEdRkMAFRe2RTXNN08fP6EZoOA1K8bdv9drxf2++D+7AutcfzpzHe9Hqc1nkU8xAsPyof2vE4PhntXYxy59SZjKAmA+0NLYq9XaHCZaz7fvM+vW2Yeedvh1Ye4+s0iG8w7/CPOs3Ec9MwQREEdfiGMMsD1AXaGswPyHNaEaj0NU4fe/q5nmfYOsV4IY/OZOA6tNfJO9BqmFS80hf28TM4ot/y+sjXIdxVPkJHZrN8Hcf0Q4fsOYMSc7YSpOC9EErwHMEMrV7/qPccZ847jTmX6VDnsE32eoMMM0HFqxZV9xtqvDUaqxRLF5WfcWczS8VnPc8ng01MW/DDWihSfQXBLTpqHdWDyCgB3XKMMB/GMR+2ok26dXzP+/ylMBnciO2juMj4aD0uMIPA+VKpuPLFQCMx56d3MHCJ1o2KshOMp1IeBxkVbhUaE53LhP1+PmOQcblPLHIdcAQxru+ADakDJgRIJaMS8kzyN4mtOdSuUTt5gyCCPfuwxA7dkJqOSrZt+0x1ggsdtxEPfJSHUJMmCNIHqUjmIaoc4Br80yXrYfUF0QrVamY5o1S4QXOt4DN638ECbRq2Cu2ICA38rvi9NhlThqvFCFkUuUyo/3XzERBdiAWvGI1nRcrugInBpoV+8xI8zwtLszm46OI+rgML9KOwxAtc2L3jXgM20CaaCylKmIYXXi/YzjAtM8wkpRZMj+BjW1hoKoMmF7q2iyfFzEqObDCjh2iFfsJ40x3dmTjUTZb6uf1nk4y5KFy5RBAOwF+3AwdBAH8KThhvyIOADMMSpJ36N0XlDTJYjLu+SAMtSMN085hql8iatqlXz4X6yUSVA1O34HjDb31+DKsrFjj08aQK92x4msuwvLimEzcgGsyphJJ06nMx/OEw5lypK0ZSeMJ8rbSLR+MS800sXaYsGI2DOiXvd0L36jnpeAuvzcmvYi4Ma4Owa7qpKr85rD/wPT4C86C5FO4Fn8X4D45dlkjjqI9jPM/9iud/tDNLgNkRl33W0LZRAhtuGzDxesIaBRwmWR/15/VzMCxRARf0fJOc89w0TFCE/ayuX78eWSwsD8aZ2yILCLmhr3H6ZsP6ONTzoH/wPhkhxalLyBNkMjhv8UmXutv9Pcr4Oo5hTAYi0VmIRBcSXEWZFu22KIHNk58VlYXBcZgM7pvBuXPUnBf13CRzLnBG2GZjJuVFQAUW+niDYN3ecP2MUwvQTrsBGDg0NcaPbjUS1KZAWI8orfHl/Mj5Wm+P8z4/VyYDy0b7iUtQ8aZdsCXmfTR4kxEGgRu7uZYgZw+84ksAACAASURBVNdVxfE93c4Q19BgzcctSqy5pivu9EcEqVsWWpMDN+IJ6gBzGt15kSVjYTtYo+xLly6psHb8boSrg1p3WMLkM8nfuNEsQMxg0o0ikCCpwUZGwYS6wBwFTmpMGOm7hKPMsARJuv6uKOaAFxmvjCPBLrehrspj6X/zzT6GnE+fELyyRpwoLdiS66dSSvmdvcMexeQKk4Dido06O0XqOugVKKWf4EgFxgWbyiH1IF4IpAo2mpzKqEAE+i2UBj8GyJjxLmZc9Dw4n5+fj/SfwX2Y48FkIBjVDPfQhlD9Y+EE4XsaizDK5fq2n1dVmFpcQ8KoVf5Kmp8LtIvVXUix+uFO0Y4mzOO0zYUgtcpMYYfvvqQbhCL6nD4Oj16lxpseshfEOQczGEVwTDLmkHdYguYEGj89oU0QspYTxhvqFCReIHmFGRvGDms+9fH2la98heCDEkwwzYJpGKewcaEvVJxPHY/GHO6rNjnqu7jHc1xXi6Tn5dPa1FfekB8daPBSbsQ+N6Lc4PjQH8eiW7pmUGGjSb1mmXovMEr8CYw9M+corRcSIQ99CdFWgsQqGA3YPCPhXWFM0knGG8p96623lPP+uHO1/+uifwXn1KicwXwQooHw5zDQvIeKzhTwOYe45NDR7NQf7Es64RmsB/dFfa7na831DJXvVKh70CQOI8rPqzyzq54Jq5pKe/72R9sgKEkwsW9j1PwGc1GMGR73wef131j/9LVMv3fcc4xxjP8ogSP6DO6HBYjBN+EP97Gv1bAIdZPWD4QqAirUDztKW1xEKNhei2Cuzm2vt/VJmYxh9QtjMrjf6Ou9c4Ax79J5uB9kMmBSCc33ONGlUJ/jznlhdQuOE+97I+ZcnoPae03PXxjPgLlKgLnSfNcarR4Vn8AhvL/jeh3hwKezHv2BZzOPuj7TbQ62gf4TtAbw6ncBTs6NySiuxMmc6++XgG+H9gLOQ5Bw8KZmOibBxi4iagC87Y8kKmHhUrlxmcnIbTtkXkqozfo6TyuUvNfyzAr4Xczk6Cp3vocjJA0cVhL2oSB4dEJDz3vW5+xoqhNh+jthtgGmKJgwuaIzYjLmcw4HiEk6SqsBU53NzU2vuOBCx22kLzxeZpZ0za767MMxWNDmulkRl6NPOno5UefsJGUaJiXmsXu2SYWrFvX2MC34Exa30uMWxebdhSE1Y5LzeJU6TpeqO03K3imRNZ+h5tspZX7CGggVFQs27prUBUQNfE2Cu4z73+hGfQhjMjgqUZgvBXxtsHhhgf3444+DRarf6I9oR2i04BcQXIRBjMURsnJCFSozGWxqYi6BkIkRJM5sAqdXKEioNiGhyhTVZn21OxmqPm+TMW37wqyCvIBpJPpjmNYJjtVsO41vhGaOCW88c14JYx3vg5QRbcKaDV1qyeONAypw3Zh4QP3xB1MNJiJgEhIWphPPIoKVboYZNi4iF7yjl0NyHJS6xW8jXLfhMysKth3XfdQRzKV1tag0x9aVhLLJrmDvFG0fIy6jc0BU3GqSMetqTGxsmrpbpZbTpcpWg+yVIllzKWpv55Q5XmEG7dskzPW6YyPK4x1vhzmMIh+YlSCTcZLx9ve//135A8Enj31r+PtwBEMEwZVu6qvfH3UenFOj8gfzsTkw+050sBHa+w2fiWLzuUONR1VynvfNFpGfN5sN9iWM/3E1Gc3nPbLXoH2Kq2eqiwnqHrSp0XKouFGl1I085awEre5irCe8TRqhaWIfAXwrt03YXkEcSZHNpTCukB8JghYEYMDYBJE+am745JNPRuaJwj7qOuoXFmgFptUQUiCoh+7LqZeDb8EfNB2YU7C2BxOEqVHCz2DesN9Ya1Mxg8z5NOUQ8t9xha3BvGfNZLQgKMY6+7hFhfWq8o0Frab7O0Lrr9bKw6rSkFlzRRWWGeGXi3MWlZ22b3M+PUok+jQHGuBvO+6cdxpzrk6Hgm0y54su3XrJCqUZgvjX9onMKzm1WV9rI0erTzsUm0r69iBiGgTCUD3wB3//RTmeOZPBToGYAFTo2J7LqVZ33chPmNAM01R231h89BRsbBAn1Z2WilrQbcGbYlB6pjculwVb8cxGWzE0aJD2Q2w85D5bxm7k02kqLsbISBYoa2Eg+uuBaE6YAPEN/BdlX8nvPKsjS0YwYUYlMEVBogfMBX8DiBgQcfwtTMAFy2P7cz2kIBY6ffdW3uQwislgVTnfZ0IBYYiTay0Vws15XKA2ds2eG3QQD9aJfyOCRGoFC5yl1JEIkYoEta1hpRXhk1+wqNNE5DG3rRH20jLjVFpJUW+3oRz9EV0HKsnMvEWlO1lqPa5S4nZDhW015tLKQRlTfwrSescNqcnmGTqTxPXSj4qYvlH1+Z4AS/wxsQIClBcb7OIOJ3ssXJDeh2kw9PKhUYva2R0mZEyw6c+MOg8yGXA8Q2SQ5g6ivrljVy8jilCt7/fITLqmDgXY6jquBhOYsDmZvVYg04hRS0Uj649l4ABHSu6fkByD8YCkc5T2Qa/baZxDAplOp5WgAZt0oU5BR1SMN/hm6AnO3XBUR34wFGhjtCu+I2q8IcIYnMoR4pYTz4GZJHbDzqo/7EjPqnXOpx/Rz/X7LETpPMoo5s62DOrtVkLNqvRygueN/Z7yiwMjDz8dgrYLPnZbHWVzjLm8CEKzhV7htic0golLBlXXbOrtN1VEIwiWYFJjLySospanZrNOsWsVSicNisVSypkRi24uBrNP12+vDq3hbM7HJAXrh99q4Z1b9XxPTmO8ZW/e9LROCErw3YB2CzUM7oYeVreoa0HmYdJ8QLqw3SFzJqMYP10Ygv0FDDNOlmlQBfPevt80Ey2lM6QY/+M6fsMMB0xjc6tI1HO8kPAJy6T8jRTVN4pUgcnndIZS6aRy/kaAFazREBDyvKfPhRjfuM4JYwVjCAn5YL6LhPUPwgceixDK6KGfVaaQf+yEfdLNatGvOHQt6sjfgjkCJo/QQMPEmusXUhV1CczFjRs3om4rTHWGLDJjyI3VVo+MqaTS+kHziDGGkKm91qBZU5DIDSnOiy7Fa3lYHlzDhq5wVgZtYM0k1cZ7PJertXYGZu8VFdI8NpWi7lHod6xZbsCWjmIyYnNFFV0K8x42ck2uN32RydBXdWECxhELKU8y553GnBukQ+stbFpbVfQF+ybq+EXhX9ntqfED/MoZaKNQO3eeg4koBOPJ267Ax9mKDiygv+u8z8+cycCkn5gvqk302gc9yq83yJxJ+aRfSjKWKSopNKTLlbWsIgK5sdnGk1W/w46wB9c7HqQtqZWK59Nhr1fUglhfjlGhAXu4pLdvhyKAraxL+DZcfwWePLhhIJ1A2L8oR1zOd1ZHTFyjHLYRbzxKUjpJvSAtDzqRj2IyKi2i7FKOqusFQlhaaA3SsLt3yi4BkCx6ttNYHBGWDYxC7JKh7H11YoqJKhwLS1ly9mpU3IImAlJRUxEv7c2cx0Twt6FcOC2jn2FwgvjJL8SJnteIAv65vQOXGMKzOIOmi5kH7MWSicUo/6jsRiCjBnFEDWwM2Q1sBAifhMRMmrI3UooYNK/AR8TwmQ5hEQWTxxLu4BEmNKOYC/5OSMCwqIUl3Q437H7UNSXJNAylvRg2zvgem2rwwgNtUXG7ReacrXw6Kht5slJ55efReVZSC52OXfI+mH+TKjcsn3lWVP1e5nU2jQhudIn2BCNy0gTBBcwwOcAEyuM5UB8XQSZjtd6l/FKWqhtFJUGG1oA3PGSmnqOtwVEzsQJTNZNi0/CnMSm7EPcYGH3MlZaz1Pm06c7Zl92xlFHav36EKv5mlKscHC9Bm2goxr10LUn0qZ+oVaNNG3N4LrZY9ZgHLM75OYPS92teiMsi/H+m04rxp13/3hkwC0nOWGpXeXspq8a8buZ40vEGTSLme06YW7HniZ7A1GVgTx3id6Xn08+5XYHVcf7gmwFBi71WI+NSQjEX2GiWjoR4+rsgZCtstxUTYhqYCy2lTUIeZjIQtx+7daferJKNDTS1HeQ5/CiHGUfIYxVS/Eh4w+/qoXG1a1UHAjybaosIP+qGwK69mSAjXVSaTQgPICQJzoG6ORrWXxDhCJqAdY83kcW8p/slYp3SmXOuU9gRmqk33nhD4Y62DP6x4CfsWVxD/dAPgvXWf0dpoINlIohLmNkk8qk+MrtKvUfubuzBZ6N+oxmyCNoxFSe1CZwKj+A6aWOsJbAe7xap8aznhZlNrlQoBWbuSJAWVjYI4SifDD1/6RnCaqcom0kqwV1jq0oOtJwBEzk8g0ApWA+qG1ky5vLeJs0QZ6Wvlon23PHOwmpnvR8en5mM1m6Dmk7HDUxyP+lpPI8757V77nYHx51z8V2Yx4ZpBHn95CPMGTmaFp6HBji/0VSBV9KWQaWNolpTYTnReF5XAnHsX4X5EII7a6mmaOrGnaTPPEtvl5d1fuZMBn8Yq3aUVOtOxtsLg+/j2Nx3GYKYaXnqH+dFz4tOw2rhYUds+gQmo0dtMhdrqqEhXdPNZ5weUbmFHYtT7iA8dMOoqjocbUAGp3R2rGXJIyI/QJoaFU5U/5bTPEcMfqhdQfRDejNKi4JJEJIU3WH1OPWBeUjwXbADZptOlInJAOHqqJ5Xr2DnXx489rxF3SfurtuYKJKzBV+IVzyE9qjAXGmlGErsgPCp3clSlxwyMxW1SDrQUIRosoLfWdvtUXIRPgKp4K2B35U9oqSVVrGpcRODlwkySN4weceW6kpz0mv1dxLngninZCbUQPh1lDOcIq0426kcIfUGcRIWOhVknYXwdpp517gvBZMwbHwF71WgpoaNKXyrjhYhCApaG3nfZNfZd8i6VVeEYhA7bLJpT1tDoxONW//TygeCAfhytBeMJfhnQJMYTIjpj3GpS2CDecb5jRCXQedwHl8I+8gJBg/pmby3ALOjII+5/ELC0zLAb8i2Mr4QrygHBGppq0HZpULkmGs+yKrwtOZsQWkoersgSYcn9PRK06HkQp6626P3dik86VHGggDADYyAdQLzCbB3OHBEskh5aE5CTD3qDoQaq943KGHE08EgC8NrHX0XBKluxgPfAUix9QSTluNImydd2/SxB3MnEDIIzlBbs0OZC72OOEfblB47ilgBtkjMZLQQpGKp7OHIc1jUEZJlDj8efA+/C+YqlWsID+9qQJXVgJUONbsMK2PYNUR+0wVpo3wkw8qCCRbGLBjR7e1tZX4FEyz86YxO2LOndQ2MU5S2A/b7GcytEzCvqFeu3iNrKkatdcwZ/rUHTH274WoHiy1sjuwKBSDIbd5Dn/Dn17+T53cWKOn3jnuONTZ1B6acpifcCysLWpmcBQLarTvyIAw++mH6QVOZIuXnsYbU6aRz3knnXNStezDZOopAKqx9tt/vKeEPtIQ6/YCWae07ZKTKA6ZvwBGbTq9injwEe3px0rkxGfhkJekY0olPG5agZCVYvi7FDt5jiTdMHGBLjYUFESKGxboeKOOULrA6GSpebFg0ToKERI+INc4zeh4QWWeyL0FAk6C/81U4h1TwqCO/1OrCLpmZ32BFMBmFObMH853F72Fjaih2F6xfMJMBe2poL0FohvnPMIYw8Qqzzeb7o46YYxA1blwJ6KjyfPcvGLa+uo3xY9Q8PkYRJ8qCcYb+AGk5hEy6pgkFg6AIOjuf6IVjPqzGk6Y5GPOxz0U2MH/QHqJdYELFm2O+ah8X5uzO34D2DQuQwPeHHl1ia2iWV+7mJPPYJHkvGBCKzdO0vcHqDZ0PL+B3nyuTEQTrVfiNSQwE+29/+1tPqvky6o33v/vuu8oWddz3w679OFoX+KCchGAat36S7/gIQMUO219JZ4cAS0ux6/c4ISbhT6NvXDluzaAlwW7mkKhKupgIYB3AvPiyNmC9mKi83FrBL6NYLKqNMdE+r1qC6dd57gL+quEj9f18ICBMxuejHSO/Anbkk6ZXccKe9Btf1fwgRKFdw+KkR/16Vb/n81bv44w3tKkwGBezJ6A92QwOPlAQ9Eh6+QjoWlyY1nEbvfyaja4Bm2GPcvoeXZLkEAQuPgLCZFz8NpIaCgIeAoj4Bf8cYQQ9SOREEDgzBBCqHEQs/53Zi6TgiRDA/k3cJji+agkR6YbtEv6qfY/UVxCIQkCYjChk5LogIAgIAoKAICAICAKCgCAgCBwLAWEyjgWbPCQICAKCgCAgCAgCgoAgIAgIAlEICJMRhYxcFwQEAUFAEBAEBAFBQBAQBASBYyEgTMaxYJOHBAFBQBAQBAQBQUAQEAQEAUEgCgFhMqKQkeuCgCAgCAgCgoAgIAgIAoKAIHAsBITJOBZs8pAgIAgIAoKAICAICAKCgCAgCEQhIExGFDJyXRAQBAQBQUAQEAQEAUFAEBAEjoWAMBnHgk0eEgQEAUFAEBAEBAFBQBAQBASBKASEyYhCRq4LAoKAICAICAKCgCAgCAgCgsCxEBAm41iwyUOCgCAgCAgCgoAgIAgIAoKAIBCFgDAZUcjIdUFAEBAEBAFBQBAQBAQBQUAQOBYCwmQcCzZ5SBAQBAQBQUAQEAQEAUFAEBAEohAQJiMKGbkuCAgCgoAgIAgIAoKAICAICALHQkCYjGPBJg8JAoKAICAICAKCgCAgCAgCgkAUAsJkEFGn0/HhYxgGzc7O0q9+9Svf9XF//PrXv6ZMJjNudi/fj370I6pUKt5vPvnTn/5Er732Gn31q1+l999/ny/LURAQBAQBQUAQEAQEAUFAELiQCHyhmYxf/vKXBIYCDMHvfvc7r4F+9rOfeeeTnoAxuXbt2qSPefnBSGxubnq/9ZPFxcUvBJMBDMFw6X9oJ/zFYjG6fv06/e1vf9OhkXNBQBAQBAQBQUAQEAQEgQuEwBeWyfjkk0/otSuvKYIexOvPf/5zr1mOy2Q8e/aMLl26RB999JFX1qQnH3zwAX3ve9+jg4ODgUe/KEwGfzja5Tvf+Q5Bk8MJ52BCTNOkcrnMl+UoCAgCgoAgIAgIAoKAIHCBEPjCMhkbGxtKMt7tdhXR+vz5c69ZjstkvPnmm3Tr1i2vnOOe/OQnP6G7d+8OPP4qMhm1Wk1pXyY18wITCCbDtu0BHHChVCqp+3/5y19C78tFQUAQEAQEAUFAEBAEBIGXh8AXlsl4/fXX6fLly6HIH5fJgB/HpMR0WAV0Bki//yowGdA0fO1rX1MMAJgl1DmXy1E+n6cXL17onzP0HNogMBkwaQtLeA/u37lzJ+y2XBMEBAFBQBAQBAQBQUAQeIkInAuTsb+/T7u7uwOfqZvBDNw8owv//Oc/lfkNGAzY/IfV4ebNm5Fvf/DggSJugxkgUQfRC81IVALh/PHHH3u3//rXvxKwCSYQ4ygrKKU/Dyaj3W4TzL44oY57e3v8c+gRZkwzMzP05MmTofnGucmaig+2PwjN/oc//EFhdBwH+9AC5aIgIAgIAoKAICAICAKCwKkhcOZMRiKRUOZIIOh/85vfeBWHxB+EdBiR72U6gxO8E47ZYDJSqRRZlqXqob8qm83qP73zQqGgHI9B7IO4xTfhHAnMByT4YanZbCpfjXv37hGk+yDG8TxjEPYMygpqRc6ayQAm8E2ByRfehT9gAb+IUY7WYEbglH1a6ac//Sl95StfoU8//TS0SEThQlvqvjShGeWiICAICAKCgCAgCAgCgsC5I3CmTMbTp09pe3tbfRQIQvgscIIZzNe//vVQB2fkAQGPZ8b9A+E+bvr973+vyn306FHoI2FMBkx+vvvd73r52Vzn7bffVtfwbVHmV2C0OEEyj28CA4E647zVavFt74iyEApXT2fJZICBYgz528A4seZmfX1dr8rA+ZUrVwaYooFMY17o9XrKsRsMWVRi7Bj/qHxyXRAQBAQBQUAQEAQEAUHg/BE4UyYDhCAIVpbY1+t17wvn5+ePtZeEV8AJThCVCMR9lBkQ/DX0xKY5OkGLvTVQBhgWJDgoIypUMOH74avBCczKt771LfUTGg4m7Pk+H1HW0tIS/1THs2QyEDqXU7VapampKc/0K6qOnB9H5N/Z2VHtjW8O+9PzDztnvIe99wc/+IHC//Hjx8OKknuCgCAgCAgCgoAgIAgIAi8BgTNlMvh7VlZWlNaCf8MEBgT6/fv3+dK5HlEfJvTDXhwk7sEYIDQt/Dk4wTkbYVQ/++wzdQnmPQsLC3w78phMJpUjdGSGoxsoKyjJP0smQ6/P7du3x/oW/Rng8+GHHxIYFJjFQbMDUyZgB/MrYD6u4/dbb72l+geYjbAE5hD9Z3l5Oey2XBMEBAFBQBAQBAQBQUAQeMkInAuTAakziHBOLKketp8EpNiT/EFyPm4CAT9sw7ygnf/09DThG/QEgl9nRhDlSDeL0vPyueM4ijhGWNdRCWWBQNfTeTEZ8FWB+dQkCSZmusP4JM8G837/+99X/h1R/hiIVPWNb3wj8n1Bh/lg+fJbEBAEBAFBQBAQBAQBQeBsETgXJgNSbj3UKMyO4HA9LMHEapK/sOhVUeXDF2SYKU5QQg6NAqT7nPAuODk/fPiQLxH8O775zW96v/kE38BRrLCrOCTwvCcHIlF9+ctf9mlI+DmUFaxjGJMBgnoSBovLDx7BWMHcCd+GOuo7oOM3NDfDEu6DOTlpAjZ4343r10OLgsN3PB6nKDMpYPSLX/xClYFyJAkCgoAgIAgIAoKAICAInD8C58JkwL+Aw8KCKEbkpKDfw3l9OkLIgvgEQR2VgkwGmAk4Yv/jH/9Qu3nDyRll6A7bMBWCX0IwgVFAXjAC0ObgnJkMlKP7eejPoqwg8xDGZKBeKHMSJkt/D865jvo54wMsYOo0ToKfzSgH8VHl4JvxPTqDhchVaAMwezdu3PCFAdbLQzABfg4BB4CXJEFAEBAEBAFBQBAQBASB80fgXJgMOHzDBAbEI/9FRXY6awhgqoQ6YEfpqBQ0U0I++BqAoAejAMI7GK4WDAjKhTO3nvDtzJTg3fBXQDkwwQqaZfFzkNJDU/Kvf/2LL6ljGJMBfwdoSuDMfpIEpg/1R0QraF+gYcFvlD1JwjP4gyaE/zY3Nz0H+aiywBwAU7wPf6+99prym0EYW2h1ll5/fSgjBX8P+MigHZDAGL0sn5+ob5TrgoAgIAgIAoKAICAIfFEQOHMmA5JpXSL/wQcfKAIa0umXkeCQHPSvCNYDhPuwBKYhzMkbEabu3r077NGx7uH9YeZCYUwGCgSDoJs3jfWSM8wEXxtoFcCMYfd0MFNvvPHG2I7fx6ka+hgYE06I6BVlUsV55CgICAKCgCAgCAgCgoAgcDYInCmTgd2sdWn4wcGBstv/7W9/ezZfE1EqzJMQTeqdd94hmPSMIshBEHMCgYxv4MTmPNBsBFOj0SBEj4pyWA7mj/oNn4MwTU8UkwFCHk7lX/TE+5hAKwKtxjBt1RcdK/l+QUAQEAQEAUFAEBAEzhKBM2UyUHGYBUF78cc//lFFdHoZvhhgKtiEB6ZKo5Lug8DmO++99x5hx24wK6VSKbIIMCXsfxKZacgNEMjQiISlMCYD3xbl1xFWxuf52p///GelQYE/ySht1ecZB/k2QUAQEAQEAUFAEBAEXjYCZ85kgGiG2QyiD71MaTuiEkGToe91EQU+mAw288KeDHgOZlbwLRgnTOvMzIzaKTuq/KjrCO0LTUgwoS7wkwhjMthBO/jMF+038OF0/fp1XzQwvi5HQUAQEAQEAUFAEBAEBIHzQeDMmYzz+YzTfQv2YUDIWjBIx00oY9IU9T4wGTDhCmMyJn3H5zU/NFX8B6d5SYKAICAICAKCgCAgCAgCLw8BYTJeHvby5lNEAOGEET6XwwOfYtFSlCAgCAgCgoAgIAgIAoLAhAgIkzEhYJJdEBAEBAFBQBAQBAQBQUAQEASGIyBMxnB85K4gIAgIAoKAICAICAKCgCAgCEyIgDAZEwIm2QUBQUAQEAQEAUFAEBAEBAFBYDgCwmQMx0fuCgKCgCAgCAgCgoAgIAgIAoLAhAgIkzEhYJJdEBAEBAFBQBAQBAQBQUAQEASGIyBMxnB85K4gIAgIAoKAICAICAKCgCAgCEyIgDAZEwIm2QUBQUAQEAQEAUFAEBAEBAFBYDgCwmQMx0fuCgKCgCAgCAgCgoAgIAgIAoLAhAgIkzEhYJJdEBAEBAFBQBAQBAQBQUAQEASGIyBMxnB85K4gIAgIAoKAICAICAKCgCAgCEyIgDAZEwIm2QUBQUAQEAQEAUFAEBAEBAFBYDgCwmQMx0fuCgKCgCAgCAgCgoAgIAgIAoLAhAgIkzEhYJJdEBAEBAFBQBAQBAQBQUAQEASGI/BSmYyOQ0QHneE1DLmLx6pbTaL9Zsjd8S5Vmw45zep4mU8pl/OiR9TrDpTmdHtEB4PXBzLKhQuFQI+Iuk6X6BBn/hTV1v5c8msUAl2MDRrEd9Rz+n3VFkfjq3cQXZZ6Vcg47B0S9V6MHp8ouVpvU2+3rr/+lTrvHmCKwgzrT8Cm92Lwuj/X6f5yDonIOf47O3t4Nrq99dpGfTfnaR8QNbfQruPX52WsMVxfOQoCgoAgcBEQOBcmA9O843Sp3uxQcaNK1Kyoqd+4VqX6cmwoDmBBrKsVaq0lvQWjRkSGYRNt20OfHXbTWKxRbdEYlsW7t7rjUHYpO/JvdSlL5PQJDHx3ZbND1K1TG3WeK3p1LjxoEj13mRzjRpWaty3vfZ+XkydPnpBhjIex/s2/+tWvKJVK6ZcGzkH4tZwulbYalFkqUPVmv38MZA65kH3YGtmeaPMy2pRaXgkgfKobDaLDNqEfJtAPnxUJJGhxrUbUbbptPbtKvUcZ77lX7eTFixehVb59+zZdu3Yt9N6wi6+//jrhLyoVnxHZRoJIoermAjlnzJeodSce9djI6zzu2msJKj8nMs0UVZcTRL1B4Ub8TosKl9Ff++2NF+TqRCkjRuSUh74v9xj9IUZOc5Ucxxn5N4xoR3+KLdbU+HEeDB8Ly0lBTwAAIABJREFUqFTdIcourY7Vp52dVd93VPd61K1X1LXEWtubF8tNos5WQV23t4gKM8Dm+IId30tH/MDcad1qkD1tEHUx0kannuIn1D8qtIjiRpyo6dafnwYzESYU0L+b8+pH7p/F3RqlrQT1WiX9NqU3OlSct4h6/b4zyRrjK0x+CAKCgCDwOUHgTJmM5P02GVOmWihBbFqWSZl5izpbeSrtY0FOKgJtFJbFXSJjKkn1WyA2uooMuUhMhn0zS8Z0kpIgqPeK3ucwoVBMGtSmtsdk2NtdSk7F1Lc3QEzEckSPc95zn4eTP/3pT/Stb32L/vznPx/rczKZDP3iF78YeDZxt0nGJcvrU5k5k4orWWrXK+RQT2m4qltVCv6162DoXAIEhY5iMtKLWTLMOGWnQFj1Gcf2IZGRLFJ9KUY16nlMRnKtTVkQRAd1KjsgSlMjidKBj7sAF8DgYazi73e/+52vRu+++6667rs4wY+rV6/SL3/5y9AnmIjTmQwQipmpOFHXJYBDHxzjIog9MBlIDYfInC9Q4xaY+n5/AGloXC6Qsw5m1Z9iy3WqZNAP+vn9OYhqXSJj2lZznDVj0Th/5auowyCzg7LRn5JTBiWXs5ScMol2+/NK8N34PQ6TEUvaqv069/3fqM9HTGzz97SP8sZuNahxa7hAKKxe41yr72LcDo7Z/GaVTCNJ5ZVk6H1dk726izEX98Yc5l4jU6HyAtqtr33AdwSvoY783VH11ftnbseh3EycqIfZ2008L+RmwRS588WkTAbG3szMjDf+eBzy8cqVK9Ro9N/J75ajICAICAIXFYEzZTKgYodEb/Vpd0BKiYWbJ8+wY1BLAUbDtpJETpUw4cch9dz1S+TCQG7uw7RqcAEzUnnKp4zQe+OaO4DkKGx3yLTSlLtiUm9v0PyqcUhUXFyl9kFTMRmdbZsSVyvUPdLCFJpEGcMi53nZJ/kMM1kI+76Leu3HP/4xPXjw4NjV++STT1T/gDZET5BEdh2H2oc9j2nj+6zhAjOrE3nmtEXFORAbkGsPT9BU5DZaZJoJKmYsImdwUS/vE9WWs1QjRzEZzVaRknMFjxDMPOpR/rJBjtPwtelFN4k7ODigeDyuGEOMyZ///Oc+sL73ve/R48ePfdcm+fGPf/yDEokEgQENJp2I43uYI8wpw9eWert2HqRVVpCQ2bv1SCm+cTlFmWTMuw+hQPamrbRUHWqRdbVMpuUyrtx30jMW0V6ZqgcQcGTIujRYD34/E5i1RRDhIG+Pn/B08naTrCmDutvQovUZju4Tv1R+3LfU9npkXS1Q4pJJnU0IMwaZJftug3rNokdsQzJfWwRj1lW6C2OmQJ2HGV9/xjgMK2vcenE+EPgxcxBfva3189gM2sr0tMIoB6PUiOV82kMwqTEwHnVXgAN2DgKCMK2xzmSECSCS17IUN9CHUm4/upml+l20T5+BQT+wkkVytmxPc92+N7kWbnFxUc19jA8fwfRfvnx5YFzyfTkKAoKAIHDREDhTJoM/NkhA4HfCSISaFUBKhMmcWgWCSQzMrIKmB4UG8sTJaRQG7iGvTqDb2xRKqBhmLHRhg+aFpZ5YitnGutHqEjl9VXj1GZE5Z1PaMshpFInthyGVY6m5bmaVWcqSEUtSdiHuETv0tEwgpHQCBlJ6LLj1lVfXfAoS79dee42b/9hHSPag0QhLbAajM6O6+ZL+DPoAMxkgCdifp9Ho+MxmVh/3yLBSlJtzGUYHHaDrkG5brRMgqaWsImKy15KqTWEu5zh1ZeJjTfcZHfQ1tDETpXrdLtL5w4cPFXHT7XYJ2D9//tyr3sbGBt26dcv7fdwTmFu98cYb3uNom6CQwTYMKj6rURJzRKsYOsaNaxVvnHJf0BkJ3bwRTEbqsuGNO74HU7g2tRSzWrpheQKH/FaVEtBEPStSct2h7GUII0re/dJWlYwZW70fhGUsXabYNLQ/sYFvCX4b/9b7LYPR6qGsEsXBYBwRxriHbphca1HMMKm5BsbKz8jwnNPq9sh52meKgUtisUrWlEkNPHfokLPvEPwL6vAvOGgPaEBiyYwPq9bDrDIXM6diHrMHhsw0DMrPgKnqa/n4OyY96gT+OM+yMCGIYVDjBJQSNyrU3nTNaisHYDoyoVpjvQ4Y70HBlP12lVIG+kjeu8fzPHx+gmtUw3HImC1Q43Z84B7yDmPQYrEYff/73w+FAuMQfWhnZyf0vlwUBAQBQeAiIXCmTAYTZLoUKA9iO2l7qnedMMRiCjtk1zShqzQWhpEYe+HmBVz3tdAJTB34MFU2EyvMZPDvxlqC4st1tfg7O65UDOWuQjUOMuWIOMhZBiXulDyCVjcDiC+W1HdUV1LeIlVpNZWUtLvhSmRRP6jz9frrdX5VzmF7D2LypOlvf/ubb0HVJdZBpg0Efs2pe+ZL+rv1PsAESmvTVgRdetrw7KtBaFRvoE1d8xNjNkellEHGYslrEyZAKltVMlMFsgyDqvczqk3rW1UqPAYxGCd6klfloM7GQtkjiPV6XbRztBskpWEJWoz33nsv7NZE1z744APVpmBk9AR/BhvCBaUfcjFj85xmyyHq9SXGLJEOjlP+rZeLc2Op7rVf8B6Pcf1ZnpMau0UypnMU9InQn4GGtTCfpOKT5oC2Nvgu/OZngwQyBCeGmSTbMoieh5uHQQBjTMUVE+w87edBvwUTndtpqPvKrPTQUWalcfgM7a4qRiW93iLLiFFhPaeEPGCiwHBUt+qq/9rrVTKMuKvh3XS1v61mVZkdVdIYF26b6W0V9o2TXoMwBszMuAminuxSmSCk0RN8Z5LoQ/t+fwnOAw1jLmYQHfYZozAmN9g2eB4mkBkwngd93HGd25PXnnGPYKR100Cu4x/+8Ac1PsDkh6X9/X11/8033wy7LdcEAUFAELhQCJwpk8EEWeY+pEAxJQUCIZZfKXnOfLygY8EDGZFfaxA1/YtHELH4vbZH4AfvBZkHncDU8wbz4R4vGExwBH/bjzpkTFnUvB0ne7unFvbqfpsMy6bCvKmcfnnBd0tzl+XknSYlLZOMmSSZpknVpTjRYUcxFFiUdJU6nMD5/VzfZ8+eEf56rmcjXw41O/FunvFJvV6n2dlZ2tvbG3gT7IpBTEYl/h6+jzLabaA9mKAReeedd9QNnclIZLLKZII1Q5MyGSAkQDKhbSAh7mykPVOR1WZPEXyVG5Zqp2Bf6cAs4kaFkvMmmUaCYqYrYXaoqxgKtCltudJT1YdmV32mHfgYEAtgov7973/7PjrMlMiX4Qx+/POf/1R9CQzGj370o4F+9Ze//CWUMdCr0mq1qNPp+xf89a9/De0bn376qSoLZerJug0i3SDqVanqEOWu2Mq/hc2Vept9jVZwXAZ/6+XiXJdS43fxMVFjzTV1CXuW56TCwwIV5uAk7nd25me4jVWZ0GwaCbJm+hJ/3cRHP4e2lAnZ2j6ReSWnNAPpqwmyLJQR7dORmbPIuoq+b9DqFZPooKm+jzV1lefkzkezBtV6TcV0O8+KZN2oUtI0CCZXrEnGnMup8KRL1qUkWUnMUQZlZ00VmAIMBTQ0LFBBfjiB8/v4+eMey3tE1kx66DdH4RHU9rJfTVigAMXsz5cGAo2wSW/8doMq12Di6FB5t+urE3xnatTxBBgoy75VoV4rep2Cj4hyPA8x6cWaFMVk3L17V7VtlO8FMxk/+clPjgu5PCcICAKCwLkhcKZMBn8ForZgUnX2+5Ny4xmR87TqRejpPSsqsxR61lf38/P6US0WC2VPE6Lfw3mQIDxNJgPlV6G22K0Sl9s+bFN9vaJMEXBfZzIQtcWcyykGpN11fTJYgp6dNSh9LU/J5ZznVApSBrbPOvECCTIcoGHLXqn0pWjlclktRi+DKGWVPfwuIHEDYQqnRCTWPgSJSHWTSDEmP/zhD+nevXsE22NI5GDnPzc3p57lfHxEJKMwB3D0KUXMaxHGmDjUiSeUw20Fxg95gkEDqjuOctZkYrTeJWo9hDQUujV/nyo2HOWDAwakdugSHvXGKkHrkU/HyE5nKXYj59l9w0QjDhMNjdhYWlqiZDKpTCK2trb4U+n9999X33RcZ3mvoAlPgOP09LR6N6J6WUf+CVwMfGu+9rWv8U/fEe39jW98Q5m1oU3ZxG19fT2yTcGE4ls5cb9HPZgQ5nswV/IIWoQ01YQBHL2LiX48r/8xIafGZBKS445qUUS1Y20pP6sz9no/ahyACM57PlT6+5lRwDUQ7hmYdzmVUPMYNqdhMxp+Fj5buYWC8ueKMg/lZ3HkiFSlhkPO+y6ToM85qAumqPZWf27FeChttL3IdzqT0ekRJZbBgJiKAUFZ1UWDoPWIT8Uos5Kl3HKaMgjScSTFB0PIGj+87yRJ16QETZRgtmYYKaq+2df+6nnCQpCnHjiUQbCGQLAAaDkQ+Ss4N3DdeezjN/ApzKItG5TZcPtfjdoek4GgJUngEaExQRmoh9KaKG8Rfot7HMZkYG5EwIzPPvvM/9DRL54jcrnPV6CQ0I+Vi4KAIPDKI3DmTAYWUZgcxAyDYtMxah85a8J+tnrN8CL0gMnA4o9rTNyFoQuizQDRtm1TbrtLtWVESumbXoQxGfaM36YaC1WY47dua413hxEgYBxyCzmyH9Vpdc4gaGkaa5lQJiO91vZsoSuNDmVXikrFj9q2G650FI7fuRgk5m5UoiRU8kcRqkDMg8lAAvGkq9Bx/uUvfzkMIu8aGBCd6Brn3Hs44oSZm6dPn3o5wGD89Kc/Vb9rNTfspm7PzxkLhYL3DXAC5m/68MMP1TkI02CC83FQaldDH4jZZEwZlND6lE4c6uWMYjLAOJQyGUqs1aiyaFBqueZzkOU+hXZLLeFelrrUo9LjFq0uFhTxBtv87hOXQYZZRmke/dghSIKziCR2ZLsO3L797W+r6vH3c11hYvb1r3+d4IAdlsDMjdOGnEfvL2Hl6degmcJzjx490i+rc5QTZUaFiFHsnP/BtmsKBUIIbYnywtoU3/HrX//aew8IwPjlGNmGRdntCsVNi3qP84R2jsVscnayFLtZ88yWeFwyoc6/dft3EIcsfUf78zkIyBiCRhxFc+Nndb8oOBYn4Fh8JOkHwYhITxzhCcY2xlTW00bgQ1AuglF4jsERIa/ZzI/r7oFwgpMgkwHGIbVcpcoOzKJsKm6tUhG+TUdBDHQmA+Zexatpda/xHJrkime61HiCPWDayvE7BuFHPae0zTD/C0aoOkH1vUeLOw61FePkMvdhAgEvc8RJE+vN5YKK/sbrSNi14ONBJqMIDRa1PQFFg9peFEAIOIatU6g9IlvB7BVRunLzOU9zj/dGMRmspYDwJSpB4IJxdZKgGlFly3VBQBAQBE4bgTNnMjKPuhSLGcreurgLJ8Qk1Z8U3EggmxlPk4EF3Ytt3oqOogLJpo0F/7DmhY3Uo7owQchAYUIPi1AzjuM3EyCQciL0ZWKx5DlR2puOYjKKjQYZ02mCZgLRpfQFH5vsQfpYbDkUn0pRp573pJwskQRZqkLY1nPKyVSP0w8CGwQcbOGxsOjSXxBqIPDOM2HvBJhI/exnP/O9dmpqiu7cuaOuYfFDXf/1r3/58uDHV7/6Ve8aIqUg30cffaTyRhHEYEyYKOeHgXEhY5Axl6fiPVuZNjVvJ6lGXU/ayHlxjGIywDBaqTwlTIPamzlK3GspKW52E2ZxcSqmsTdCw6cdYyfP3LZDaTNGzm4/KhgHHID9tmIW90vKsV8nSPCdYP5YIgkbbE7QIkQ5unOeszpyu4WZv6HOzOzq78d36H0Q0lX0BZhEIUW1KfJBm4OEMRabK9Lqes7zaWDiNnGv7WkcVBQ2hLM9qHrMPxPqPE51DaDe5ngWDEz38Mi/QIWjdQUT/GyU4zfqiJyxG1XKIUTxYSNUGwbCPWUkqILw3G+XqbpR9nyvdOk7BBkWiM6667OjQIDN/wRmQ8HQtzznOIdtstcbZCAy2lWLqvsNNR4ajVWKpYvKpwwMcvEZQi8nFBPF5kItOCovFKm+AkfljpqnlHPy0UaT8BXDnkaQ4schxR8yR/M3TXrEO3QNyXGYDLwzu9OjmBFT2ifVdos1suGL0R2M/sd1DDIZQU0GhyCvPbIpHrMH9t/gcnAERgYwOjLJhJ+hvt9HFJPBc0IYY87lw3wU8yjMEyUJAoKAIHDREThTJgNajNh0jgprtkdAIFpUZrPrOeDp0mcsCJAA6USZDmAdUqoYTFH6YQHL2ENjOq0kVzCGCIYo1IkNvawgM4J7THCw6QT/TqXiyhcDCzdLA/VyITmEjT7CTsZTKc+8w1qpE4db1KMNBUOqQquTB9F8OTfgj4F6raysKOKe688SL10azPfO8ghzLTAGv//9773XwPYe16CNQHr77bfV78PDI9sWL6f/BFJ7MCyj0urqqvJj4XwIHxubSlH7cc4LYQtpbNZKUu1gfMfv1EKSTMP0bcymExq8n0LKNMiYTympJDwOwsKdwmYcUcHYYZ/tv/PL6Deu1o3rz0e0KcyS2M9md3dX4Xb//n3Ocq7H5eVlZaYR9lK06cLCQtgt37Xkd79LP/jBD3zXwn5grwzWTtlbPbUBXvEZTCr7m/GhTZNmfx8dnhsw9nlcMpPhaRZ2+s7D0CaxmVUV85Bhk71se/vTcL24LB7zuK7PSZyv2iWypm3q1XOhTAbyQYKdvNei1CWDqpuFUCaDGQ59jwc8CybFMhJUfdse+px1ox9YguuGfovoWcZMyot2h3v6d6Bu9obrU5ZagKYmrpiMfB3mYBYFhS5BbQ60TZmpGMWX8x6u/P7TOEa1A0wbMb8E/7hto94NhkXtM6IiwCEc8PCNW/Wxj7Ywp1zfGH2uhr8ctKdsahf57uW6u6njoaut5ghkvI9O8n4ndGNDzIn4zmbTfS5YPq7jfhTzHswvvwUBQUAQeNkInCmTAUkkFoPis7ZHQDABxjt96wshwBhmOxu/3Qy1t63ukvKTCFuodGZAB3sSJqO5liBnt+/UinJ0Iga/sYg3H7cosdb0LcKQqmWnY8qJFfmYWNKdE1nypWyJDwalbSDc9GgiLPHSTZb0b9PPsSBN8qc/Gzzn+O0sqcb9UqmkbO85LxgQLIRwJh6WILXXvykqr85goQWwA3T1RozacLLWdlDH88G+xGXqfQB5QLh0tmzq7aHH9BNszZlRwFWEJW5DU7VY9V3HJpPFpHnElhKxOYbunIx+DIdZXTPVfxMpYvzmzZveJbQRcINmJypN0o7IO4m/zne+853InbzRpvAJGpbYoRuap1HJtm1im/LKPlFvu6SIbGYyeBwDj+Bfasqg2j78kWzPXMnTHGkbYYJo5A302I8LZfHmcrjmNFvUhmBiruhj7qP6ER3xzdyHSGNq0Ffit1yTs0LKpOpWZYBZKGFzuWRO+Z3QM38EJN2EaRh++K4ggc3X2ntNz2wTZcC0NAHTUs3Bu9HqqUhYrMlAvjrM0qaz1NO+Bxpove/yvA0M9X4+rK6T3OM5UI+05+E8gkEIew+CMxgpN6KfG6UMM3R0AoalawYVNprUa5ap9wIztT8h4Igym3tWVPN9LxAhDbmhNUOEru6jfqACXAejAT8ZJG4vV6ylLql/8/PzkWaJyAAtJ3y5gsEiuIS33npL+blBYCFJEBAEBIGLgMCZMhn2uqPUylhAmYDAJJyEFO3IaS64oHOEEGZCGCTsSguiLRhOku/jqIiT2VUfwaATmHreSZgMlnIWYdKACCyQ/CH2fMgOuMEFBGY15qWE2qyv87SiJJ1sdsH1gdQWO5rrKnW+h+OlS5d8cdFBnLMjLhb9YcQkGJJJ/vT3Bs+hOYG0Wk9Y+BD6lBMiRyliLhAtCqZW+XxeMTwstdd3lMYz8EEJJphmwTSMU+52XZk9MCHK0mzcD/YlfkbvA0HCJbsDCbXpaZzC+pfeV0CqZO43yTQtKmQs6uzWKLZYHdhFmPsrdnuHXXswoU2r1T5DeeP6daXZCObTf0/Sjsg7LrEBhhD4gzEJS2jTb37zmwO38A6Y9CFmPzOXepuGPYNCYPIRfJc+RyBPY7dHzl7T3U/gyGQHhG7xDqJPNcgCk9F0GRq0L5xsu72G2iMHBD80ovUl+MX0d+O2TezI7mLOBHgbvmDjMhmqNCJoRuDrwMR7dbdHxmyWSukYtQ/czf3y85a3OSf6TPGxGzBA14YeFacOp8FkYAYEI27OF9056pLlmXgNexdHuMJmfa2NHK0+7VBsKun5reBZEMnQEsO3LkorAMFLlKBEf3/YOQRI0BLoc2BwrIY9F3YNWkjralFplq0rCRW5q7Kc8O1zxM91DoiKW00yZl2NiY1NVXer1HK6VNlqkL1SJGsuRe1taE5XPQ0E1gLdGR7l8S7pYTuK8/twBLMSZBQ5YEZwA0zkhwkj5k7Mgx9//LFelDr/+9//rswWYXrJZqgDmeSCICAICAIvAYEzZTL4e3QCAtFEGo+w0LuSpTDCsPbE8S0IuXpX2cjrvhdctn5E2EDsqxG0zS7MDu6+jM28OGQhR2/hyC/MVDAhy78h26rutJSEstuCN8WgdCzIZKB+iBqT2WgrJgmLdPshpFzus2zuVVyMkZEsUBZx8p0+8Ynn4Vj9m9/8Rn0qiDNIlZnwBnF4XolDmUKDgoWPNRu6DTHMpEBAszMw1w2MEBOy+Ab4WXCYW/hzQGMRlhDBKsyEiNsmyGSMMq8IEi6QeFa3GoTQyr3n4WYKOpPBdcRGfcnbkFyblEDkNG03Zu6vxdtJMqZtKiK8cc9vQw0fBw7NC1zBNOrMGr/nPI7srB+1wRe3abAuaEe0KZgNPofzNxKYQ5hFhSXYlG9ubvpu6XOE70bID2YQQORjFCFgBIQS7viPqzohShUctREO17CyZM+bZFzOeKaWEHZkpyxqU10xGfpGfthkkc2JQl6v3sP3i7s9JXhorffHNJ5BMAGYcSavmGRcSlAGO8A3/NoLvezTYjJQZr3VVXNU63GVqDcokY96VwXM0nRG4VfOxIh6LnPM5j5gAJK3XeLd2eqbpvF3wESJtUd8bZwjC1k6jzJqnyTsFdLbrUSapUWV2djvKb85jElsqEnP3Xk0t9VRfirwzSsuJqjbwizgzr8Ix5uAeduaTb39pgrUAGEWAgHYCwmqrOWp2axT7FqF0kmDYrGUcoAHhrkYtHtusAdEpEOEOZ1JCqunYtbmVj3fkz/+8Y+EP2YOMI4wV+IPm2PCdwmR3yBYitJgZG/e9AQ08N/7bkAQFFYPuSYICAKCwHkgcO5MBn8UNqprbFUptw3nRNcJke/xERLJ9FpDEedlOOEGJMLwecjMW2on39SNLBmmRWz3ymVAyglCaJI/ZiqYkNUjz0TFbOfrsM3XpVTN5z1KrVQ8nw57vaIWPBBFhQZspJPE36YkYVZWmVNgN3NOWGwQ9pO/ARJqMB4IHQoC7zwTwqum02nlCAxJPOoUDFcLAhp2/HqCIzichJEfxCcWUSye+A5mmPT8OEcYRzgSI8RtMHHbBJkMbD4W3Amew1BC0stMhu4jw20XdYS9OptRgTSptbqUWCwqn47KSsJr3/bbScrA7t2IkdoQjbqkCKijTdZ6e/0QxIjmhF19uU1xDIvsFPzus/gNMwu8/5NPPoksHm0aZBzR9/gbwAiCEebviWpT9uEBYaWnYUzG6gYYe3fHbWyCGEsXvPCgYCw4WhTaBj5f7LCcx+Z1ZsIbX2gLcypJpeUExa4VlfapTc5IJmO13iVsIlrdKFJxo6qk3nk4gau4S+5XwIG6uedQcaNOyUxe+ejELxlUWElRIlNQms+Yaaj5qoCytkrU2gER7DIB+P5xNx7V5xe8HYKNsOAWUf0ZO3aDMWZNDKT5+Y2m2u0+bRlU2iiSOWcrLUjjeV0JP7BpJe2WVW2tpZrSDjTuJD3zLDUeZ1eJwwrrbTvsnKX/SuNHbWWimFhxmffYtOnbC4d3audjaTlLnU+blF9vkHk5pfpeZsYk5zFC+7pMBL8ba4lyir/kbu6KtihdSxJ96hcsqKcO+s/iOWgqmXkA1vk5g9L3a572khlKxojfiSN8XpIzWKMyZC9lyZxJKW0Qm6ZhDGHsgLkI+4N2N4q5QPnQbGCHcE7YZwOhpCUJAoKAIHAREHhpTEYOZipHm07VV/xhaBkYLLwgCuorCW8x43s4YqdYXnBwrNzJ+jQgyINJPhiNRS9DP2fH3s5RmF3c42hCrO0YdcSmTiACetQmc7GmFn9Iz3p7IG/dBCl4uYXde1MuMXoIQxA3NbswdyhQ+95wG3jO/zKPUOGDqAzu3oxFE4zISROIbt05Wi8vjMmArmAVOwE7/R198Uz5KVH9rrv5GhOio9pRvw+tF5gMfqdlGlRZSfn6moMN5OodihkWtdbx7X1CBRukxSybukcb9LGkkr8HZmggFF5WxBj4hoxy2AbxEqWZ4O8Y5wjtTZgT+TAmI/2g480VmDPseYu6T1ytADQSlQwCQYRI7HeJmnewn0D/XvFJl8yZDKENu9s5ZV4EZ359zKP3pGfyRHvuvj7sHM3zVX4h4UnJ8c3wu9Kl3431AvVe+DVX6A2NVleFiE0s2ASHYlcz6/YTfD9C4AYZZL0f4pznF92ev3sA5soZ+w+7i7Mmxn4fdTcJZkKd7T5xjlq19h0yUmXKzUK72h9TQBObWK5CW3Ak+IF2KQP/j8CO2KP6RKVLZFsZX4hXPAONd2mrQdmlgm+O1+f75oOs8ocyZwtKQ9Hb7c+xUe/Fd1WaDiUXsPfJ6L0mCk96lLHi3i7s0ESgv2Deg2mlmhOSRcoDCw0jfn/dwe7kq943gMHUd2vnfMc9wlQKjD4n+HUEGXi+J0dBQBAQBM4bgXNhMmAu1HWwNLkL6iQf2dOkSpM8dxHyqg26j+zJw+oz9NuGB2cKK+5Mr7E5DPa3QIKjL/wzIAUPJuzzAJMuENMnSdlsdqhzOBjEvMIPAAADGElEQVTAMHOQk7xz1LM9tYVFdD+ObNOj9uTIYCzpB57QSJ133HvsY4JNv0D0o61GaVGgPYPTqe70PwqrsPswsRv1rrDnhl67CGNFDfahtRx605sjh8wXKAAMBYe/HlrgmDdVTx4yxw6dwzTcUf8wZ+mxqqGVM1b+C5ZpKEbnUFfMJZifwbxjLuGIdefwanmFICAICAJDETgXJmNoDeTmK4EAMxlwLoTkHdKzMCdF/hiYeEVt4MZ5hh3hr4GIR2GOjsOeexXuwUwM3weJ4/Xr1wnM1HkntgGHDTd2GR4nIcytHhFrnGf0POhD+r4a+j05FwQEgeMjgLEFE8yXtc/O8WsuTwoCgsDnGQFhMj7PrXvK34Z9MmAyg12/xwmfC6dF3nRtkqpAWo7dzM/b32SSOp4kLwgCEOy//e1viTVDJynvuM/i/e++++5QX4xg2fANOo7WBQTQSZjOYD3ktyAgCJCKOsUa43g8rsaz4CIICAKCwEVBQJiMi9ISn9N6wG9j0gTm4vPKYEyKxUXMf5w2BWMlSRAQBE4XAUSk42ALOEoSBAQBQeAiISBMxkVqDamLICAICAKCgCAgCAgCgoAg8DlAQJiMz0EjyicIAoKAICAICAKCgCAgCAgCFwmBASbjIlVO6iIICAKCgCAgCAgCgoAgIAgIAq8eAsJkvHptJjUWBAQBQUAQEAQEAUFAEBAELjQCwmRc6OaRygkCgoAgIAgIAoKAICAICAKvHgLCZLx6bSY1FgQEAUFAEBAEBAFBQBAQBC40AsJkXOjmkcoJAoKAICAICAKCgCAgCAgCrx4CwmS8em0mNRYEBAFBQBAQBAQBQUAQEAQuNALCZFzo5pHKCQKCgCAgCAgCgoAgIAgIAq8eAsJkvHptJjUWBAQBQUAQEAQEAUFAEBAELjQCwmRc6OaRygkCgoAgIAgIAoKAICAICAKvHgLCZLx6bSY1FgQEAUFAEBAEBAFBQBAQBC40AsJkXOjmkcoJAoKAICAICAKCgCAgCAgCrx4CwmS8em0mNRYEBAFBQBAQBAQBQUAQEAQuNAL/P7+yLiqDPvgCAAAAAElFTkSuQmCC;" vertex="1" parent="1">
                    <mxGeometry x="980" y="60" width="686.85" height="110" as="geometry"/>
                </mxCell>
                <mxCell id="38" style="edgeStyle=none;rounded=0;html=1;entryX=0;entryY=0.5;entryDx=0;entryDy=0;" edge="1" parent="1" source="36" target="32">
                    <mxGeometry relative="1" as="geometry"/>
                </mxCell>
                <mxCell id="36" value="复合条件：内部函数的值域在外部函数的定义域内" style="whiteSpace=wrap;html=1;" vertex="1" parent="1">
                    <mxGeometry x="600" y="110" width="299.03" height="40" as="geometry"/>
                </mxCell>
            </root>
        </mxGraphModel>
    </diagram>
</mxfile>